<svg xmlns="http://www.w3.org/2000/svg" viewBox="0 0 651.81 33.26"><defs><style>.cls-1{fill:#969494;}</style></defs><title>citat3@36x-100</title><g id="Layer_2" data-name="Layer 2"><g id="Layer_1-2" data-name="Layer 1"><path class="cls-1" d="M3.48,5.15a1,1,0,0,1-.31.72,1.06,1.06,0,0,1-.76.3,1.35,1.35,0,0,1-1-.45A1.65,1.65,0,0,1,1,4.57a1.89,1.89,0,0,1,1-1.8,2.55,2.55,0,0,1,1.14-.39c.12,0,.18,0,.18.14s-.06.13-.2.17c-.93.25-1.39.72-1.39,1.42a1.32,1.32,0,0,0,.23.77c0-.39.26-.58.72-.58a.83.83,0,0,1,.62.25A.81.81,0,0,1,3.48,5.15Z" transform="translate(-0.95 -2.36)"/><path class="cls-1" d="M8,4.08a1.92,1.92,0,0,1-1,1.8,2.48,2.48,0,0,1-1.14.39c-.13,0-.19,0-.19-.13S5.73,6,5.87,6A2.56,2.56,0,0,0,7,5.44a1.17,1.17,0,0,0,.31-.88A1.36,1.36,0,0,0,7,3.77c0,.39-.25.58-.73.58a.84.84,0,0,1-.62-.24.82.82,0,0,1-.25-.61,1,1,0,0,1,.31-.72,1.09,1.09,0,0,1,.78-.3,1.32,1.32,0,0,1,1,.45A1.62,1.62,0,0,1,8,4.08Z" transform="translate(-0.95 -2.36)"/><path class="cls-1" d="M20,2.75c0,.09-.11.15-.33.16a1.72,1.72,0,0,0-1,.22,2.29,2.29,0,0,0-.53,1L17.6,5.67q-2.1,5.74-3,8.81c0,.14-.09.21-.17.21s-.27-.43-.56-1.28c-.51-1.55-.9-2.72-1.19-3.5S12,7.76,11.39,6.05l-.83-2.29a1.47,1.47,0,0,0-.38-.64,1.13,1.13,0,0,0-.68-.18l-.67,0a.13.13,0,0,1-.11-.14c0-.1.11-.15.34-.15h.15l1.07,0,1.08,0,.65,0,1.62,0h.24c.21,0,.31,0,.31.15S14,3,13.57,3l-1,0c-.24,0-.36.09-.36.23a.47.47,0,0,0,0,.15l.13.46c0,.09.57,1.68,1.66,4.79l1,3.05c1.86-5.3,2.8-8.08,2.8-8.35S17.56,2.94,17,3h-.53c-.13,0-.2,0-.2-.15s.17-.19.51-.19h.58c.31,0,.55,0,.69,0h.55l1.12,0C19.92,2.62,20,2.66,20,2.75Z" transform="translate(-0.95 -2.36)"/><path class="cls-1" d="M23.78,14.37c0,.1-.09.15-.29.15l-.4,0-.85,0H20.47a.31.31,0,0,1-.21.07c-.12,0-.18,0-.18-.13s.11-.18.34-.18a1.57,1.57,0,0,0,.7-.09,2,2,0,0,0,.06-.71V8.26a2.62,2.62,0,0,0,0-.5s-.09-.08-.21-.08h-.67q-.18,0-.18-.12c0-.06.09-.1.28-.11a4.15,4.15,0,0,0,1.93-.53l.17-.1a2.22,2.22,0,0,1,.13.93v5.46a5.56,5.56,0,0,0,0,.8.19.19,0,0,0,.18.15,2.83,2.83,0,0,0,.74.07C23.7,14.23,23.78,14.27,23.78,14.37ZM22.51,3.77a.68.68,0,0,1-.77.77.76.76,0,0,1-.54-.21A.7.7,0,0,1,21,3.81c0-.53.25-.8.76-.8A.68.68,0,0,1,22.51,3.77Z" transform="translate(-0.95 -2.36)"/><path class="cls-1" d="M34.76,10.42a4.42,4.42,0,0,1-1.07,3,3.27,3.27,0,0,1-2.58,1.24A3.08,3.08,0,0,1,30,14.45a2.61,2.61,0,0,0-.78-.22.77.77,0,0,0-.42.16.74.74,0,0,1-.36.16c-.09,0-.14-.18-.14-.56V5.15c0-1.14-.07-1.76-.22-1.85a1.92,1.92,0,0,0-.66,0c-.27,0-.41,0-.41-.14S27.08,3,27.2,3h.24a4.36,4.36,0,0,0,1.8-.39,1,1,0,0,1,.36-.12h.06V7.82a2.18,2.18,0,0,1,1.94-1,2.94,2.94,0,0,1,2.3,1A3.73,3.73,0,0,1,34.76,10.42Zm-1.54.08A4.9,4.9,0,0,0,32.71,8a1.55,1.55,0,0,0-2.31-.57,1.47,1.47,0,0,0-.58.74,12.51,12.51,0,0,0-.16,2.68,17,17,0,0,0,.12,2.78c.13.47.55.71,1.25.71a1.63,1.63,0,0,0,1.49-.76A6,6,0,0,0,33.22,10.5Z" transform="translate(-0.95 -2.36)"/><path class="cls-1" d="M42.14,12.61a1.55,1.55,0,0,1-.26.61,3.87,3.87,0,0,1-.54.7,2.59,2.59,0,0,1-2,.75,3.38,3.38,0,0,1-2.56-1.1,3.86,3.86,0,0,1-1-2.74,4.23,4.23,0,0,1,1-2.84,3.07,3.07,0,0,1,2.44-1.14,3,3,0,0,1,2,.71,2.44,2.44,0,0,1,.87,1.81,8.67,8.67,0,0,1-1.45.06H39.47l-2,.06a7.92,7.92,0,0,0-.08,1.06A4.6,4.6,0,0,0,38,13.19a2.15,2.15,0,0,0,1.85.92,1.76,1.76,0,0,0,1.09-.31,3.72,3.72,0,0,0,.88-1.17A.2.2,0,0,1,42,12.5C42.1,12.5,42.14,12.53,42.14,12.61ZM40.66,9.15c0-1.36-.53-2-1.46-2s-1.49.68-1.72,2Z" transform="translate(-0.95 -2.36)"/><path class="cls-1" d="M49.64,7.16c0,.08-.11.12-.32.12h-.41c-.21,0-.36.12-.48.37l-.2.65L46.8,12.69c-.08.23-.19.58-.34,1-.18.63-.33.94-.44.94s-.16-.11-.24-.32-.11-.29-.17-.46c-.92-2.48-1.38-3.72-1.39-3.71a21.11,21.11,0,0,0-1.07-2.77.6.6,0,0,0-.48-.13h-.39c-.11,0-.17,0-.17-.11s.08-.12.24-.12h3.24c.12,0,.17,0,.17.12s-.17.14-.52.14-.53.05-.53.14a1.93,1.93,0,0,0,.14.56c.19.45.54,1.43,1.06,2.92.23.67.42,1.18.56,1.53.32-1,.6-1.88.86-2.61a21.74,21.74,0,0,0,.75-2.42c0-.1-.09-.15-.26-.15h-.37c-.15,0-.22,0-.22-.12s.06-.11.2-.11h1.7C49.47,7,49.64,7.08,49.64,7.16Z" transform="translate(-0.95 -2.36)"/><path class="cls-1" d="M59.87,12.61a1.39,1.39,0,0,1-.24.58,4.45,4.45,0,0,1-.5.68,2.81,2.81,0,0,1-2.08.8A3.27,3.27,0,0,1,54,12.9a2.5,2.5,0,0,1-2.29,1.77,1.89,1.89,0,0,1-1.35-.46,1.54,1.54,0,0,1-.5-1.22,2.59,2.59,0,0,1,1.68-2.26A10.3,10.3,0,0,1,53.72,10a7.81,7.81,0,0,0-.17-2,1.15,1.15,0,0,0-1.19-.88,1.68,1.68,0,0,0-1,.3.9.9,0,0,0-.42.73c0,.12.09.17.27.17a.43.43,0,0,1,.33.22A.72.72,0,0,1,51.7,9a.65.65,0,0,1-.74.73.88.88,0,0,1-.64-.25.85.85,0,0,1-.26-.64,1.85,1.85,0,0,1,.65-1.36,2.68,2.68,0,0,1,1.92-.61,3.16,3.16,0,0,1,1.25.21,3.4,3.4,0,0,1,1,.76,2.57,2.57,0,0,1,2.07-1A2.74,2.74,0,0,1,59.81,9,14.15,14.15,0,0,1,57,9.72l-1.14.21-.75.13c0,.15,0,.36,0,.62A3.7,3.7,0,0,0,56,13.51a2.1,2.1,0,0,0,1.51.58,2.16,2.16,0,0,0,2-1.46.21.21,0,0,1,.19-.13C59.83,12.5,59.87,12.53,59.87,12.61ZM53.72,10.3c-1.73.41-2.6,1.19-2.6,2.35a1.25,1.25,0,0,0,.36.94,1.32,1.32,0,0,0,1,.35q1.13,0,1.26-1.8C53.71,12,53.72,11.38,53.72,10.3Zm4.76-1.23c-.25-1.31-.79-2-1.61-2-1.07,0-1.67.86-1.81,2.6A21.46,21.46,0,0,0,58.48,9.07Z" transform="translate(-0.95 -2.36)"/><path class="cls-1" d="M68.66,7.85c0,.53-.23.79-.69.79a.67.67,0,0,1-.44-.17.44.44,0,0,1-.19-.36.52.52,0,0,1,0-.21,1,1,0,0,0,0-.23c0-.15-.08-.22-.24-.22a.51.51,0,0,0-.39.21.62.62,0,0,0-.19.43s0,.23.09.58a6.4,6.4,0,0,1,.08.8,2.58,2.58,0,0,1-.8,1.94,2.72,2.72,0,0,1-2,.78,4.8,4.8,0,0,1-1.12-.26,1.44,1.44,0,0,0-.29-.06.86.86,0,0,0-.64.29.84.84,0,0,0-.29.62c0,.59.36.89,1.07.89A8.09,8.09,0,0,0,64,13.51a8.61,8.61,0,0,1,1.27-.11,2.32,2.32,0,0,1,1.63.54,2,2,0,0,1,.58,1.51,2.93,2.93,0,0,1-1.25,2.43,5,5,0,0,1-3.15,1,3.8,3.8,0,0,1-2.22-.57,1.81,1.81,0,0,1-.81-1.57,1.63,1.63,0,0,1,.75-1.46A4.13,4.13,0,0,1,62,14.82a1.56,1.56,0,0,1-1.2-1.46c0-.81.52-1.38,1.56-1.7a2.54,2.54,0,0,1-1-2.11,2.58,2.58,0,0,1,.78-2,2.89,2.89,0,0,1,2.06-.74A2.8,2.8,0,0,1,65.34,7a3.5,3.5,0,0,1,1,.75A1.57,1.57,0,0,1,67.69,7C68.34,7,68.66,7.28,68.66,7.85Zm-1.85,8.2c0-.94-.55-1.41-1.66-1.41a9.54,9.54,0,0,0-1.4.15,9.61,9.61,0,0,1-1.38.15,1.67,1.67,0,0,0-.86,1.62A1.73,1.73,0,0,0,62.12,18a2.47,2.47,0,0,0,1.64.53,3.37,3.37,0,0,0,2.17-.71A2.12,2.12,0,0,0,66.81,16.05ZM65.5,9.54c0-1.65-.45-2.47-1.36-2.47s-1.33.77-1.33,2.3c0,1.72.47,2.58,1.42,2.58S65.5,11.15,65.5,9.54Z" transform="translate(-0.95 -2.36)"/><path class="cls-1" d="M75.11,12.61a1.47,1.47,0,0,1-.27.61,3.45,3.45,0,0,1-.53.7,2.61,2.61,0,0,1-2,.75,3.38,3.38,0,0,1-2.56-1.1,3.9,3.9,0,0,1-1-2.74,4.23,4.23,0,0,1,1-2.84,3.09,3.09,0,0,1,2.44-1.14,3,3,0,0,1,2,.71,2.41,2.41,0,0,1,.87,1.81,8.55,8.55,0,0,1-1.44.06H72.44l-2,.06a6.6,6.6,0,0,0-.09,1.06A4.52,4.52,0,0,0,71,13.19a2.13,2.13,0,0,0,1.84.92,1.74,1.74,0,0,0,1.09-.31,3.72,3.72,0,0,0,.88-1.17A.21.21,0,0,1,75,12.5C75.06,12.5,75.11,12.53,75.11,12.61ZM73.63,9.15q-.07-2-1.47-2c-.91,0-1.49.68-1.71,2Z" transform="translate(-0.95 -2.36)"/><path class="cls-1" d="M81.28,8a.92.92,0,0,1-.24.65.79.79,0,0,1-.61.25.72.72,0,0,1-.51-.18.57.57,0,0,1-.21-.45.54.54,0,0,1,.16-.4A.57.57,0,0,0,80,7.67c0-.17-.13-.26-.38-.26a1,1,0,0,0-.81.59,5.85,5.85,0,0,0-.39,2.58v3.34a.25.25,0,0,0,.14.26,5.67,5.67,0,0,0,.88.07c.12,0,.18.06.18.13s-.07.12-.22.12H76.13c-.19,0-.28,0-.28-.1s.08-.1.22-.1h.24c.39,0,.61-.05.68-.14a2.28,2.28,0,0,0,0-.63V8.83c0-.63-.1-1-.28-1.09a2.33,2.33,0,0,0-.9-.16c-.13,0-.2,0-.2-.12s.06-.12.17-.12h.12a4.36,4.36,0,0,1,.51,0l.22,0A3.27,3.27,0,0,0,78.06,7l.22-.1.14-.06a4.62,4.62,0,0,1,.07.82V8A1.69,1.69,0,0,1,80,6.88a1.29,1.29,0,0,1,.9.34A1.06,1.06,0,0,1,81.28,8Z" transform="translate(-0.95 -2.36)"/><path class="cls-1" d="M92.11,10.79a4,4,0,0,1-1,2.77,3.23,3.23,0,0,1-2.5,1.11A3.38,3.38,0,0,1,86,13.56a3.92,3.92,0,0,1-1-2.77A4.08,4.08,0,0,1,86,8a3.27,3.27,0,0,1,2.53-1.12A3.34,3.34,0,0,1,91.08,8,4.06,4.06,0,0,1,92.11,10.79Zm-1.55,0A6,6,0,0,0,90,7.87a1.5,1.5,0,0,0-1.43-.76,1.65,1.65,0,0,0-1.49,1,5.82,5.82,0,0,0-.53,2.71,5.26,5.26,0,0,0,.57,2.68,1.77,1.77,0,0,0,1.59,1,1.27,1.27,0,0,0,1.15-.59A5.63,5.63,0,0,0,90.56,10.78Z" transform="translate(-0.95 -2.36)"/><path class="cls-1" d="M98.33,12.3A2.24,2.24,0,0,1,97.61,14a2.39,2.39,0,0,1-1.71.69,3.17,3.17,0,0,1-1.4-.41.86.86,0,0,0-.39-.12q-.24,0-.36.33c0,.13-.1.2-.18.2s-.12-.05-.12-.13V12.26c0-.13,0-.19.12-.19s.14.06.15.19a2.66,2.66,0,0,0,.44,1.23,2.19,2.19,0,0,0,1.82.89A1.37,1.37,0,0,0,97,14a1.23,1.23,0,0,0,.37-.95A1.39,1.39,0,0,0,96.92,12a2,2,0,0,0-.44-.31l-1.14-.45c-1.26-.48-1.89-1.2-1.89-2.15a2.2,2.2,0,0,1,2.22-2.25,4.11,4.11,0,0,1,1,.2.89.89,0,0,0,.3.06.42.42,0,0,0,.44-.34c0-.12.08-.17.15-.17s.12,0,.12.13v.82a11.13,11.13,0,0,0,.08,1.31v0c0,.09,0,.14-.13.14s-.16-.17-.26-.52a1.94,1.94,0,0,0-.65-1,1.67,1.67,0,0,0-1.08-.38,1.31,1.31,0,0,0-1,.36,1.2,1.2,0,0,0-.38.9c0,.57.38,1,1.14,1.3a8.07,8.07,0,0,1,2.25,1.15A2,2,0,0,1,98.33,12.3Z" transform="translate(-0.95 -2.36)"/><path class="cls-1" d="M106,14.37c0,.1-.09.15-.28.15l-.41,0-.85,0h-1.77a.29.29,0,0,1-.2.07c-.13,0-.19,0-.19-.13s.11-.18.34-.18a1.57,1.57,0,0,0,.7-.09,2,2,0,0,0,.06-.71V8.26a2.62,2.62,0,0,0,0-.5s-.09-.08-.21-.08h-.66c-.13,0-.19,0-.19-.12s.09-.1.28-.11a4.12,4.12,0,0,0,1.93-.53l.17-.1a2.22,2.22,0,0,1,.13.93v5.46a5.56,5.56,0,0,0,0,.8.21.21,0,0,0,.18.15,2.87,2.87,0,0,0,.75.07C106,14.23,106,14.27,106,14.37Zm-1.27-10.6a.68.68,0,0,1-.77.77.76.76,0,0,1-.54-.21.7.7,0,0,1-.22-.52c0-.53.25-.8.76-.8A.68.68,0,0,1,104.77,3.77Z" transform="translate(-0.95 -2.36)"/><path class="cls-1" d="M118,14.35q0,.12-.63.12l-.91,0-1.19,0c-.15,0-.38,0-.68,0l-.67,0q-.15,0-.15-.12c0-.09.11-.14.32-.14.55,0,.82-.09.82-.27a25.22,25.22,0,0,0-2.86-3.42V14c0,.17.17.25.49.24H113c.15,0,.23,0,.23.12s-.13.14-.38.14h-2.92c-.27,0-.41-.05-.41-.15a.1.1,0,0,1,.08-.11l.58,0c.27,0,.42-.08.43-.19a6.47,6.47,0,0,0,0-.88V4.81c0-.89,0-1.36,0-1.39s-.18-.12-.49-.12h-.44c-.13,0-.19,0-.19-.13s.13-.13.39-.13a3.68,3.68,0,0,0,1.7-.49.76.76,0,0,1,.28-.12q.18,0,.18,1.41v6.28a16.54,16.54,0,0,0,2.76-2.71c0-.07-.22-.1-.67-.1h-.52c-.21,0-.31,0-.31-.14s.18-.15.53-.15h2.38c.41,0,.64,0,.71,0a.11.11,0,0,1,.1.12c0,.08-.26.12-.8.13a1.87,1.87,0,0,0-.69.09,1.61,1.61,0,0,0-.39.31L113,9.75c1.58,1.72,2.69,3,3.35,3.8a2,2,0,0,0,.65.59,2.26,2.26,0,0,0,.83.07C118,14.21,118,14.26,118,14.35Z" transform="translate(-0.95 -2.36)"/><path class="cls-1" d="M124.63,13.7c0,.19-.2.4-.61.61a2.58,2.58,0,0,1-1.15.31,1.1,1.1,0,0,1-1.22-1.21,2.11,2.11,0,0,1-2,1.26,1.72,1.72,0,0,1-1.2-.43,1.46,1.46,0,0,1-.47-1.12,2.47,2.47,0,0,1,1.67-2.21,9.19,9.19,0,0,1,2-.54V9.94a8.13,8.13,0,0,0-.15-2,1.15,1.15,0,0,0-1.22-.86,1.52,1.52,0,0,0-1,.32,1,1,0,0,0-.4.82c0,.09.07.13.21.13a.48.48,0,0,1,.37.2.67.67,0,0,1,.17.46.66.66,0,0,1-.74.75.87.87,0,0,1-.64-.26.93.93,0,0,1-.25-.67,1.81,1.81,0,0,1,.63-1.38,2.78,2.78,0,0,1,1.94-.63c1.24,0,2,.34,2.29,1A5.16,5.16,0,0,1,123,9.42V12.6c0,.52,0,.82,0,.91.06.41.22.62.49.62a1,1,0,0,0,.79-.34c.11-.13.19-.19.25-.19S124.63,13.63,124.63,13.7Zm-3-1.8V10.66a4.23,4.23,0,0,0-1.8.76,1.56,1.56,0,0,0-.54,1.25,1.27,1.27,0,0,0,.31.89,1,1,0,0,0,.78.35,1.3,1.3,0,0,0,1.15-.82A3.7,3.7,0,0,0,121.63,11.9Z" transform="translate(-0.95 -2.36)"/><path class="cls-1" d="M129.23,13.46c0,.11-.14.29-.42.55a2.52,2.52,0,0,1-1.74.66,2,2,0,0,1-1.41-.47,2.77,2.77,0,0,1-.27-1.6v-5a.18.18,0,0,0-.19-.19h-.64c-.25,0-.38,0-.38-.12s.07-.12.19-.13a2.62,2.62,0,0,0,2.06-1.31.31.31,0,0,1,.25-.16.11.11,0,0,1,.12.12v.36a3.49,3.49,0,0,0,.07.92,3,3,0,0,0,.51,0A6.28,6.28,0,0,0,128.62,7l.12,0c.09,0,.14,0,.14.15s-.46.24-1.38.24h-.7v3.15a21.26,21.26,0,0,0,.12,3,.7.7,0,0,0,.78.6,2,2,0,0,0,1.26-.63.22.22,0,0,1,.15-.08C129.19,13.38,129.23,13.41,129.23,13.46Z" transform="translate(-0.95 -2.36)"/><path class="cls-1" d="M135.78,12.61a1.47,1.47,0,0,1-.27.61,3.45,3.45,0,0,1-.53.7,2.61,2.61,0,0,1-2,.75,3.34,3.34,0,0,1-2.55-1.1,3.86,3.86,0,0,1-1-2.74,4.22,4.22,0,0,1,1-2.84,3.1,3.1,0,0,1,2.44-1.14,3,3,0,0,1,2,.71,2.43,2.43,0,0,1,.86,1.81,8.55,8.55,0,0,1-1.44.06h-1.19l-2,.06a6.6,6.6,0,0,0-.09,1.06,4.52,4.52,0,0,0,.66,2.64,2.13,2.13,0,0,0,1.84.92,1.72,1.72,0,0,0,1.09-.31,3.57,3.57,0,0,0,.88-1.17.21.21,0,0,1,.19-.13C135.73,12.5,135.78,12.53,135.78,12.61ZM134.3,9.15c-.05-1.36-.53-2-1.46-2s-1.49.68-1.72,2Z" transform="translate(-0.95 -2.36)"/><path class="cls-1" d="M144.58,7.85c0,.53-.23.79-.69.79a.67.67,0,0,1-.44-.17.44.44,0,0,1-.19-.36.52.52,0,0,1,.05-.21,1,1,0,0,0,.05-.23c0-.15-.08-.22-.24-.22a.55.55,0,0,0-.39.21.67.67,0,0,0-.19.43s0,.23.09.58a4.91,4.91,0,0,1,.08.8,2.58,2.58,0,0,1-.8,1.94,2.71,2.71,0,0,1-2,.78,4.74,4.74,0,0,1-1.13-.26,1.32,1.32,0,0,0-.29-.06.86.86,0,0,0-.64.29.88.88,0,0,0-.29.62c0,.59.36.89,1.07.89a8.09,8.09,0,0,0,1.31-.16,8.61,8.61,0,0,1,1.27-.11,2.31,2.31,0,0,1,1.63.54,2,2,0,0,1,.58,1.51,2.94,2.94,0,0,1-1.24,2.43,5,5,0,0,1-3.16,1,3.8,3.8,0,0,1-2.22-.57,1.8,1.8,0,0,1-.8-1.57,1.62,1.62,0,0,1,.74-1.46,4.13,4.13,0,0,1,1.19-.43,1.56,1.56,0,0,1-1.2-1.46c0-.81.52-1.38,1.56-1.7a2.54,2.54,0,0,1-1-2.11,2.58,2.58,0,0,1,.78-2,2.89,2.89,0,0,1,2.06-.74,2.8,2.8,0,0,1,1.13.19,3.37,3.37,0,0,1,1,.75,1.57,1.57,0,0,1,1.34-.8C144.26,7,144.58,7.28,144.58,7.85Zm-1.85,8.2c0-.94-.55-1.41-1.66-1.41a9.54,9.54,0,0,0-1.4.15,9.33,9.33,0,0,1-1.38.15,1.67,1.67,0,0,0-.86,1.62A1.73,1.73,0,0,0,138,18a2.47,2.47,0,0,0,1.64.53,3.37,3.37,0,0,0,2.17-.71A2.12,2.12,0,0,0,142.73,16.05Zm-1.31-6.51c0-1.65-.45-2.47-1.36-2.47s-1.32.77-1.32,2.3q0,2.58,1.41,2.58C141,12,141.42,11.15,141.42,9.54Z" transform="translate(-0.95 -2.36)"/><path class="cls-1" d="M151.81,10.79a4,4,0,0,1-1,2.77,3.24,3.24,0,0,1-2.5,1.11,3.4,3.4,0,0,1-2.59-1.11,3.91,3.91,0,0,1-1-2.77,4,4,0,0,1,1-2.82,3.23,3.23,0,0,1,2.52-1.12A3.34,3.34,0,0,1,150.78,8,4,4,0,0,1,151.81,10.79Zm-1.55,0a6,6,0,0,0-.58-2.91,1.49,1.49,0,0,0-1.42-.76,1.64,1.64,0,0,0-1.49,1,5.69,5.69,0,0,0-.54,2.71,5.26,5.26,0,0,0,.57,2.68,1.77,1.77,0,0,0,1.59,1,1.29,1.29,0,0,0,1.16-.59A5.73,5.73,0,0,0,150.26,10.78Z" transform="translate(-0.95 -2.36)"/><path class="cls-1" d="M158.05,8a.92.92,0,0,1-.24.65.79.79,0,0,1-.61.25.72.72,0,0,1-.51-.18.57.57,0,0,1-.21-.45.54.54,0,0,1,.16-.4.57.57,0,0,0,.15-.24c0-.17-.12-.26-.37-.26a1,1,0,0,0-.82.59,5.85,5.85,0,0,0-.39,2.58v3.34a.25.25,0,0,0,.14.26,5.67,5.67,0,0,0,.88.07c.12,0,.19.06.19.13s-.08.12-.23.12H152.9c-.18,0-.27,0-.27-.1s.07-.1.22-.1h.23c.39,0,.62-.05.68-.14a2.28,2.28,0,0,0,0-.63V8.83c0-.63-.1-1-.28-1.09a2.31,2.31,0,0,0-.89-.16q-.21,0-.21-.12c0-.08.06-.12.17-.12h.12a4.36,4.36,0,0,1,.51,0l.22,0a3.35,3.35,0,0,0,1.4-.35l.22-.1.13-.06a4.62,4.62,0,0,1,.07.82V8a1.69,1.69,0,0,1,1.53-1.16,1.29,1.29,0,0,1,.9.34A1.06,1.06,0,0,1,158.05,8Z" transform="translate(-0.95 -2.36)"/><path class="cls-1" d="M162.18,14.37c0,.1-.1.15-.29.15l-.41,0-.85,0h-1.77a.27.27,0,0,1-.2.07c-.12,0-.19,0-.19-.13s.12-.18.34-.18a1.64,1.64,0,0,0,.71-.09,2,2,0,0,0,.06-.71V8.26a4,4,0,0,0,0-.5s-.09-.08-.22-.08h-.66c-.12,0-.19,0-.19-.12s.1-.1.29-.11a4.15,4.15,0,0,0,1.93-.53l.17-.1a2.4,2.4,0,0,1,.13.93v5.46c0,.45,0,.72,0,.8a.21.21,0,0,0,.18.15,2.87,2.87,0,0,0,.75.07C162.1,14.23,162.18,14.27,162.18,14.37ZM160.9,3.77a.68.68,0,0,1-.76.77.77.77,0,0,1-.55-.21.74.74,0,0,1-.22-.52.7.7,0,0,1,.77-.8A.67.67,0,0,1,160.9,3.77Z" transform="translate(-0.95 -2.36)"/><path class="cls-1" d="M169.2,12.61a1.55,1.55,0,0,1-.26.61,3.87,3.87,0,0,1-.54.7,2.61,2.61,0,0,1-2,.75,3.37,3.37,0,0,1-2.56-1.1,3.86,3.86,0,0,1-1-2.74,4.18,4.18,0,0,1,1-2.84,3.07,3.07,0,0,1,2.44-1.14,3,3,0,0,1,2,.71,2.47,2.47,0,0,1,.87,1.81,8.73,8.73,0,0,1-1.45.06h-1.19l-2,.06a6.55,6.55,0,0,0-.08,1.06,4.52,4.52,0,0,0,.65,2.64,2.15,2.15,0,0,0,1.85.92A1.71,1.71,0,0,0,168,13.8a3.57,3.57,0,0,0,.89-1.17.19.19,0,0,1,.18-.13C169.15,12.5,169.2,12.53,169.2,12.61Zm-1.48-3.46c0-1.36-.53-2-1.46-2s-1.49.68-1.72,2Z" transform="translate(-0.95 -2.36)"/><path class="cls-1" d="M177.89,14.37c0,.09-.09.13-.26.13H174.5c-.14,0-.22,0-.22-.12s0-.09.1-.1l.65,0c.22,0,.34-.05.38-.1a1.64,1.64,0,0,0,.05-.55V10.35a9.51,9.51,0,0,0-.14-2.21,1.12,1.12,0,0,0-1.16-.76,1.75,1.75,0,0,0-1.42.74.94.94,0,0,0-.17.61V14c0,.13.12.21.36.22h.52c.11,0,.17,0,.17.12s-.07.12-.2.12h-3.1c-.17,0-.25,0-.25-.1s.1-.12.3-.14h.43q.25,0,.3-.12l.06-.25v-3.7c0-1.28,0-2,0-2.13s-.16-.21-.42-.21h-.5c-.22,0-.34,0-.34-.12s.12-.17.36-.17a4.74,4.74,0,0,0,1.11-.18,2.38,2.38,0,0,0,.83-.39.44.44,0,0,1,.24-.14c.08,0,.12.11.12.32V8a2.73,2.73,0,0,1,2.27-1.14,1.9,1.9,0,0,1,1.77.9,4.1,4.1,0,0,1,.31,1.94v3.88c0,.36,0,.56,0,.59a.75.75,0,0,0,.49.1h.31C177.83,14.26,177.89,14.3,177.89,14.37Z" transform="translate(-0.95 -2.36)"/><path class="cls-1" d="M189.09,11.15A3.25,3.25,0,0,1,188,13.64a3.81,3.81,0,0,1-2.68,1,5.69,5.69,0,0,1-2.19-.56,1.47,1.47,0,0,0-.51-.15c-.14,0-.23.15-.26.47,0,.16-.08.24-.22.24s-.17-.07-.17-.2a1.06,1.06,0,0,1,0-.21,14.86,14.86,0,0,0,.13-1.92c0-.11,0-.43,0-.95a1.87,1.87,0,0,1,0-.27c0-.17.07-.26.21-.26s.19.14.23.41q.45,3.06,2.88,3.06a2.09,2.09,0,0,0,1.6-.59,2.27,2.27,0,0,0,.57-1.65,2.47,2.47,0,0,0-.55-1.63,5.84,5.84,0,0,0-1.9-1.33,7.07,7.07,0,0,1-2.24-1.55,2.77,2.77,0,0,1-.63-1.85,3.13,3.13,0,0,1,3.21-3.25,4.83,4.83,0,0,1,1.6.39,1.8,1.8,0,0,0,.53.14.33.33,0,0,0,.25-.07.93.93,0,0,0,.11-.36c0-.11.08-.17.18-.17s.17.07.17.21a1,1,0,0,1,0,.2,7.07,7.07,0,0,0,0,1,7.47,7.47,0,0,0,.08,1.29l0,.27c0,.13,0,.19-.16.19s-.21-.13-.25-.39A3.11,3.11,0,0,0,187,3.49a2.25,2.25,0,0,0-1.57-.67,1.71,1.71,0,0,0-1.35.55,2.09,2.09,0,0,0-.5,1.47,2.26,2.26,0,0,0,.73,1.76,8.65,8.65,0,0,0,1.77,1.05,7.18,7.18,0,0,1,2.29,1.62A2.81,2.81,0,0,1,189.09,11.15Z" transform="translate(-0.95 -2.36)"/><path class="cls-1" d="M196.3,8.6a.69.69,0,0,1-.77.78c-.5,0-.75-.23-.75-.71a1.58,1.58,0,0,1,.17-.56.53.53,0,0,0,.06-.24.65.65,0,0,0-.35-.56,1.62,1.62,0,0,0-.88-.22A1.76,1.76,0,0,0,192.2,8a4.69,4.69,0,0,0-.56,2.49,5.42,5.42,0,0,0,.58,2.77,1.79,1.79,0,0,0,1.63,1,2,2,0,0,0,1.27-.44,4.25,4.25,0,0,0,.67-.78.22.22,0,0,1,.15-.09c.11,0,.17,0,.17.14s-.2.42-.59.83a2.62,2.62,0,0,1-2,.8,3.2,3.2,0,0,1-2.47-1.07,3.86,3.86,0,0,1-1-2.7,4.16,4.16,0,0,1,1-2.9,3.33,3.33,0,0,1,2.6-1.15,3.06,3.06,0,0,1,1.77.53A1.49,1.49,0,0,1,196.3,8.6Z" transform="translate(-0.95 -2.36)"/><path class="cls-1" d="M200.65,14.37c0,.1-.1.15-.29.15l-.41,0-.85,0h-1.77a.27.27,0,0,1-.2.07c-.12,0-.19,0-.19-.13s.12-.18.34-.18a1.64,1.64,0,0,0,.71-.09,2,2,0,0,0,.06-.71V8.26a4,4,0,0,0,0-.5s-.09-.08-.22-.08h-.66c-.12,0-.19,0-.19-.12s.1-.1.29-.11a4.15,4.15,0,0,0,1.93-.53l.17-.1a2.4,2.4,0,0,1,.13.93v5.46a5.56,5.56,0,0,0,0,.8c0,.08.07.13.17.15a2.87,2.87,0,0,0,.75.07C200.57,14.23,200.65,14.27,200.65,14.37Zm-1.28-10.6a.68.68,0,0,1-.76.77.73.73,0,0,1-.54-.21.71.71,0,0,1-.23-.52.7.7,0,0,1,.77-.8A.67.67,0,0,1,199.37,3.77Z" transform="translate(-0.95 -2.36)"/><path class="cls-1" d="M207.67,12.61a1.55,1.55,0,0,1-.26.61,3.87,3.87,0,0,1-.54.7,2.61,2.61,0,0,1-2,.75,3.37,3.37,0,0,1-2.56-1.1,3.86,3.86,0,0,1-1-2.74,4.23,4.23,0,0,1,1-2.84,3.07,3.07,0,0,1,2.44-1.14,3,3,0,0,1,2,.71,2.47,2.47,0,0,1,.87,1.81,8.73,8.73,0,0,1-1.45.06H205l-2,.06a6.55,6.55,0,0,0-.08,1.06,4.52,4.52,0,0,0,.65,2.64,2.15,2.15,0,0,0,1.85.92,1.71,1.71,0,0,0,1.08-.31,3.57,3.57,0,0,0,.89-1.17.2.2,0,0,1,.18-.13C207.63,12.5,207.67,12.53,207.67,12.61Zm-1.48-3.46c0-1.36-.53-2-1.46-2s-1.49.68-1.72,2Z" transform="translate(-0.95 -2.36)"/><path class="cls-1" d="M216.36,14.37c0,.09-.09.13-.26.13H213c-.14,0-.22,0-.22-.12s0-.09.1-.1l.65,0c.22,0,.34-.05.38-.1a1.64,1.64,0,0,0,.05-.55V10.35a9.51,9.51,0,0,0-.14-2.21,1.12,1.12,0,0,0-1.16-.76,1.75,1.75,0,0,0-1.42.74.94.94,0,0,0-.17.61V14c0,.13.12.21.36.22h.52c.11,0,.17,0,.17.12s-.07.12-.2.12h-3.1c-.17,0-.25,0-.25-.1s.1-.12.3-.14h.43q.25,0,.3-.12l.06-.25v-3.7c0-1.28,0-2,0-2.13s-.16-.21-.42-.21h-.5c-.22,0-.34,0-.34-.12s.12-.17.36-.17a4.74,4.74,0,0,0,1.11-.18,2.38,2.38,0,0,0,.83-.39.44.44,0,0,1,.24-.14c.08,0,.12.11.12.32V8a2.73,2.73,0,0,1,2.27-1.14,1.9,1.9,0,0,1,1.77.9,4.1,4.1,0,0,1,.31,1.94v3.88a1.69,1.69,0,0,0,0,.59.75.75,0,0,0,.49.1h.31C216.3,14.26,216.36,14.3,216.36,14.37Z" transform="translate(-0.95 -2.36)"/><path class="cls-1" d="M223.14,8.6a.68.68,0,0,1-.76.78c-.5,0-.75-.23-.75-.71a1.39,1.39,0,0,1,.17-.56.69.69,0,0,0,0-.24.65.65,0,0,0-.35-.56,1.56,1.56,0,0,0-.87-.22A1.78,1.78,0,0,0,219,8a4.69,4.69,0,0,0-.56,2.49,5.52,5.52,0,0,0,.58,2.77,1.8,1.8,0,0,0,1.63,1,2,2,0,0,0,1.28-.44,4.29,4.29,0,0,0,.66-.78.25.25,0,0,1,.15-.09c.12,0,.17,0,.17.14s-.19.42-.59.83a2.6,2.6,0,0,1-2,.8,3.22,3.22,0,0,1-2.47-1.07,3.86,3.86,0,0,1-1-2.7A4.16,4.16,0,0,1,218,8a3.34,3.34,0,0,1,2.6-1.15,3.11,3.11,0,0,1,1.78.53A1.5,1.5,0,0,1,223.14,8.6Z" transform="translate(-0.95 -2.36)"/><path class="cls-1" d="M230.25,12.61a1.47,1.47,0,0,1-.27.61,3.45,3.45,0,0,1-.53.7,2.61,2.61,0,0,1-2,.75,3.38,3.38,0,0,1-2.56-1.1,3.89,3.89,0,0,1-1-2.74,4.22,4.22,0,0,1,1-2.84,3.1,3.1,0,0,1,2.44-1.14,3,3,0,0,1,2,.71,2.43,2.43,0,0,1,.86,1.81,8.55,8.55,0,0,1-1.44.06h-1.19l-2,.06a6.6,6.6,0,0,0-.09,1.06,4.52,4.52,0,0,0,.66,2.64,2.13,2.13,0,0,0,1.84.92A1.72,1.72,0,0,0,229,13.8a3.57,3.57,0,0,0,.88-1.17.21.21,0,0,1,.19-.13C230.2,12.5,230.25,12.53,230.25,12.61Zm-1.48-3.46c-.05-1.36-.54-2-1.46-2s-1.49.68-1.72,2Z" transform="translate(-0.95 -2.36)"/><path class="cls-1" d="M244.85,14.36c0,.09-.09.14-.26.14a1.42,1.42,0,0,1-.3,0l-2.16-.06-2.16.06a1,1,0,0,1-.25,0c-.23,0-.34-.06-.34-.18s.15-.19.45-.19q1.5,0,1.5-.3a1.2,1.2,0,0,0,0-.14l-.14-.45-.09-.23c-.1-.35-.35-1.13-.75-2.33h-3.63a18.31,18.31,0,0,0-1,3.12.26.26,0,0,0,.2.29s.32,0,.85.07c.33,0,.5.07.5.17s-.15.17-.45.17c-.52,0-1.12,0-1.81-.07h-.53a2.32,2.32,0,0,0-.53.05l-.22,0q-.24,0-.24-.15c0-.1.18-.16.54-.17a1.56,1.56,0,0,0,.77-.17,1,1,0,0,0,.38-.55q2.18-6.27,3.56-10.08a1.69,1.69,0,0,1,.15-.45l.08-.31c0-.13.08-.19.13-.19s.06,0,.09.1c.14.44.48,1.37,1,2.77q.62,1.65,3,8.28a.81.81,0,0,0,.35.49,2.49,2.49,0,0,0,.88.12C244.7,14.21,244.85,14.26,244.85,14.36Zm-4.61-4.07c-.18-.52-.49-1.36-.91-2.54l-.82-2.36q-.72,1.89-1.72,4.9Z" transform="translate(-0.95 -2.36)"/><path class="cls-1" d="M249.81,8a1,1,0,0,1-.23.65.81.81,0,0,1-.62.25.76.76,0,0,1-.51-.18.59.59,0,0,1-.2-.45.57.57,0,0,1,.15-.4c.1-.12.16-.2.16-.24s-.13-.26-.38-.26a1,1,0,0,0-.81.59,5.67,5.67,0,0,0-.4,2.58v3.34a.24.24,0,0,0,.15.26,5.63,5.63,0,0,0,.87.07c.13,0,.19.06.19.13s-.07.12-.22.12h-3.3c-.18,0-.27,0-.27-.1s.07-.1.22-.1h.24c.38,0,.61-.05.68-.14a3.24,3.24,0,0,0,0-.63V8.83c0-.63-.09-1-.28-1.09a2.24,2.24,0,0,0-.89-.16c-.14,0-.2,0-.2-.12s.05-.12.17-.12h.12a4.36,4.36,0,0,1,.51,0l.22,0A3.27,3.27,0,0,0,246.6,7l.22-.1.14-.06a5.79,5.79,0,0,1,.07.82V8a1.69,1.69,0,0,1,1.53-1.16,1.29,1.29,0,0,1,.9.34A1.09,1.09,0,0,1,249.81,8Z" transform="translate(-0.95 -2.36)"/><path class="cls-1" d="M255,13.46c0,.11-.14.29-.42.55a2.52,2.52,0,0,1-1.74.66,2,2,0,0,1-1.41-.47,2.77,2.77,0,0,1-.27-1.6v-5a.18.18,0,0,0-.19-.19h-.64c-.25,0-.38,0-.38-.12s.06-.12.19-.13a2.62,2.62,0,0,0,2.06-1.31.31.31,0,0,1,.25-.16.11.11,0,0,1,.12.12v.36a3.49,3.49,0,0,0,.07.92,3,3,0,0,0,.51,0A6.28,6.28,0,0,0,254.37,7l.12,0c.09,0,.13,0,.13.15s-.45.24-1.37.24h-.7v3.15a21.26,21.26,0,0,0,.12,3,.7.7,0,0,0,.78.6,2,2,0,0,0,1.26-.63.21.21,0,0,1,.15-.08C254.94,13.38,255,13.41,255,13.46Z" transform="translate(-0.95 -2.36)"/><path class="cls-1" d="M262.05,2.5a.85.85,0,0,1-.11.3,14.9,14.9,0,0,0-1.48,7,14.41,14.41,0,0,0,1.44,6.94,1,1,0,0,1,.14.34c0,.08,0,.12-.1.12s-.28-.18-.57-.55a12.29,12.29,0,0,1-1.75-3.3,10.7,10.7,0,0,1-.68-3.53,11.45,11.45,0,0,1,2.26-6.68c.39-.55.63-.82.72-.82S262.05,2.41,262.05,2.5Z" transform="translate(-0.95 -2.36)"/><path class="cls-1" d="M271,11.15a3.23,3.23,0,0,1-1.12,2.49,3.77,3.77,0,0,1-2.67,1,5.73,5.73,0,0,1-2.2-.56,1.36,1.36,0,0,0-.51-.15c-.13,0-.22.15-.25.47,0,.16-.09.24-.22.24s-.17-.07-.17-.2a.62.62,0,0,1,0-.21,14.86,14.86,0,0,0,.13-1.92c0-.11,0-.43,0-.95a1.87,1.87,0,0,1,0-.27c0-.17.07-.26.2-.26s.2.14.24.41c.3,2,1.25,3.06,2.88,3.06a2.09,2.09,0,0,0,1.6-.59,2.27,2.27,0,0,0,.57-1.65,2.47,2.47,0,0,0-.55-1.63A5.84,5.84,0,0,0,267,9.13a7.07,7.07,0,0,1-2.24-1.55,2.77,2.77,0,0,1-.63-1.85A3.16,3.16,0,0,1,265,3.4a3.11,3.11,0,0,1,2.3-.92,4.83,4.83,0,0,1,1.6.39,1.72,1.72,0,0,0,.53.14.3.3,0,0,0,.24-.07.87.87,0,0,0,.12-.36c0-.11.08-.17.18-.17s.17.07.17.21a1,1,0,0,1,0,.2,6.9,6.9,0,0,0-.06,1,7.31,7.31,0,0,0,.09,1.29l0,.27c0,.13,0,.19-.16.19s-.21-.13-.25-.39a3.06,3.06,0,0,0-.89-1.68,2.21,2.21,0,0,0-1.56-.67,1.71,1.71,0,0,0-1.35.55,2,2,0,0,0-.5,1.47,2.26,2.26,0,0,0,.73,1.76A8.65,8.65,0,0,0,268,7.65a7.18,7.18,0,0,1,2.29,1.62A2.81,2.81,0,0,1,271,11.15Z" transform="translate(-0.95 -2.36)"/><path class="cls-1" d="M278.19,8.6a.69.69,0,0,1-.77.78c-.5,0-.75-.23-.75-.71a1.58,1.58,0,0,1,.17-.56.52.52,0,0,0,.05-.24.64.64,0,0,0-.34-.56,1.62,1.62,0,0,0-.88-.22,1.76,1.76,0,0,0-1.58.88,4.69,4.69,0,0,0-.56,2.49,5.42,5.42,0,0,0,.58,2.77,1.79,1.79,0,0,0,1.63,1,2,2,0,0,0,1.27-.44,4.68,4.68,0,0,0,.67-.78.2.2,0,0,1,.15-.09c.11,0,.17,0,.17.14s-.2.42-.6.83a2.59,2.59,0,0,1-1.95.8A3.2,3.2,0,0,1,273,13.6a3.82,3.82,0,0,1-1-2.7A4.11,4.11,0,0,1,273,8a3.33,3.33,0,0,1,2.6-1.15,3.06,3.06,0,0,1,1.77.53A1.49,1.49,0,0,1,278.19,8.6Z" transform="translate(-0.95 -2.36)"/><path class="cls-1" d="M282.54,14.37c0,.1-.1.15-.29.15l-.41,0-.85,0h-1.77a.27.27,0,0,1-.2.07c-.13,0-.19,0-.19-.13s.12-.18.34-.18a1.64,1.64,0,0,0,.71-.09,2,2,0,0,0,.06-.71V8.26a4,4,0,0,0,0-.5s-.09-.08-.22-.08H279c-.13,0-.19,0-.19-.12s.1-.1.29-.11a4.15,4.15,0,0,0,1.93-.53l.16-.1a2.18,2.18,0,0,1,.14.93v5.46c0,.45,0,.72,0,.8a.21.21,0,0,0,.18.15,2.87,2.87,0,0,0,.75.07C282.46,14.23,282.54,14.27,282.54,14.37Zm-1.28-10.6a.68.68,0,0,1-.76.77.77.77,0,0,1-.55-.21.74.74,0,0,1-.22-.52.7.7,0,0,1,.77-.8A.67.67,0,0,1,281.26,3.77Z" transform="translate(-0.95 -2.36)"/><path class="cls-1" d="M293.69,14.36c0,.09-.08.14-.25.14a1.47,1.47,0,0,1-.31,0L291,14.42l-2.16.06a1,1,0,0,1-.25,0c-.23,0-.34-.06-.34-.18s.15-.19.46-.19c1,0,1.49-.11,1.49-.3a1.2,1.2,0,0,0,0-.14l-.14-.45-.09-.23c-.1-.35-.35-1.13-.75-2.33h-3.63a18.31,18.31,0,0,0-1,3.12.26.26,0,0,0,.2.29s.32,0,.85.07c.33,0,.5.07.5.17s-.15.17-.45.17c-.52,0-1.12,0-1.81-.07h-.53a2.32,2.32,0,0,0-.53.05l-.22,0q-.24,0-.24-.15c0-.1.18-.16.54-.17a1.56,1.56,0,0,0,.77-.17,1,1,0,0,0,.38-.55q2.17-6.27,3.56-10.08a2.15,2.15,0,0,1,.15-.45l.08-.31c0-.13.08-.19.13-.19s.06,0,.09.1c.15.44.48,1.37,1,2.77q.61,1.65,3,8.28a.81.81,0,0,0,.35.49,2.49,2.49,0,0,0,.88.12C293.54,14.21,293.69,14.26,293.69,14.36Zm-4.61-4.07c-.18-.52-.49-1.36-.91-2.54l-.82-2.36q-.72,1.89-1.72,4.9Z" transform="translate(-0.95 -2.36)"/><path class="cls-1" d="M298.65,8a1,1,0,0,1-.23.65.81.81,0,0,1-.62.25.76.76,0,0,1-.51-.18.59.59,0,0,1-.2-.45.57.57,0,0,1,.15-.4c.1-.12.16-.2.16-.24s-.13-.26-.38-.26a1,1,0,0,0-.81.59,5.67,5.67,0,0,0-.4,2.58v3.34a.24.24,0,0,0,.15.26,5.63,5.63,0,0,0,.87.07c.13,0,.19.06.19.13s-.07.12-.22.12h-3.3c-.18,0-.27,0-.27-.1s.07-.1.22-.1h.24c.38,0,.61-.05.68-.14a3.24,3.24,0,0,0,0-.63V8.83c0-.63-.09-1-.28-1.09a2.24,2.24,0,0,0-.89-.16c-.14,0-.2,0-.2-.12s.05-.12.17-.12h.11a4.53,4.53,0,0,1,.52,0l.22,0A3.27,3.27,0,0,0,295.44,7l.22-.1.14-.06a5.79,5.79,0,0,1,.07.82V8a1.69,1.69,0,0,1,1.53-1.16,1.29,1.29,0,0,1,.9.34A1.09,1.09,0,0,1,298.65,8Z" transform="translate(-0.95 -2.36)"/><path class="cls-1" d="M303.82,13.46c0,.11-.14.29-.42.55a2.52,2.52,0,0,1-1.74.66,2,2,0,0,1-1.41-.47,2.77,2.77,0,0,1-.27-1.6v-5a.18.18,0,0,0-.19-.19h-.64c-.25,0-.38,0-.38-.12s.06-.12.19-.13A2.62,2.62,0,0,0,301,5.8a.31.31,0,0,1,.25-.16.11.11,0,0,1,.12.12v.36a3.49,3.49,0,0,0,.07.92,3,3,0,0,0,.51,0A6.28,6.28,0,0,0,303.21,7l.12,0c.09,0,.13,0,.13.15s-.45.24-1.37.24h-.7v3.15a21.26,21.26,0,0,0,.12,3,.7.7,0,0,0,.78.6,2,2,0,0,0,1.26-.63.21.21,0,0,1,.15-.08C303.78,13.38,303.82,13.41,303.82,13.46Z" transform="translate(-0.95 -2.36)"/><path class="cls-1" d="M307.58,9.74a11.6,11.6,0,0,1-2.53,7.06c-.23.29-.38.44-.45.44s-.13,0-.13-.14a.74.74,0,0,1,.12-.3,14.78,14.78,0,0,0,1.49-7,18.28,18.28,0,0,0-.34-3.82,11.76,11.76,0,0,0-1.14-3.12.92.92,0,0,1-.13-.34c0-.08,0-.12.1-.12s.29.18.56.53a11.31,11.31,0,0,1,1.21,2A11.23,11.23,0,0,1,307.58,9.74Z" transform="translate(-0.95 -2.36)"/><path class="cls-1" d="M312.35,14.37a1.93,1.93,0,0,1-1,1.8,2.34,2.34,0,0,1-1.12.41c-.09,0-.14,0-.14-.11s.06-.11.17-.13c1-.23,1.43-.72,1.43-1.46a1,1,0,0,0-.37-.94.57.57,0,0,1-.63.65.72.72,0,0,1-.55-.24.74.74,0,0,1-.23-.57,1,1,0,0,1,.29-.73,1,1,0,0,1,.73-.28,1.23,1.23,0,0,1,1,.45A1.68,1.68,0,0,1,312.35,14.37Z" transform="translate(-0.95 -2.36)"/><path class="cls-1" d="M324.32,14.37c0,.09-.09.13-.29.13h-3.09c-.15,0-.22,0-.22-.13s.21-.12.64-.12c.27,0,.41,0,.45-.1a1.73,1.73,0,0,0,.06-.63V10.07a7.86,7.86,0,0,0-.13-1.91,1.22,1.22,0,0,0-1.28-.78,1.54,1.54,0,0,0-1.32.73A2,2,0,0,0,319,9.16v4.32c0,.31,0,.48,0,.53s.06.18.14.19a4.87,4.87,0,0,0,.73.05c.14,0,.2,0,.2.13s-.05.12-.17.12h-3.24c-.13,0-.19,0-.19-.1s.06-.12.19-.12h.25l.26,0c.26,0,.39-.07.41-.24V6.38a21.51,21.51,0,0,0-.09-2.95c-.07-.11-.34-.17-.83-.18-.27,0-.41,0-.41-.13a.12.12,0,0,1,.09-.13l.57,0a3.92,3.92,0,0,0,1.67-.41l.24-.09a3.88,3.88,0,0,1,.12,1.31V7.94a2.33,2.33,0,0,1,2-1.09,2.28,2.28,0,0,1,1.93.75,1.92,1.92,0,0,1,.36,1.05,11.23,11.23,0,0,1,0,1.14v4.29c0,.11.3.17.88.17Q324.32,14.28,324.32,14.37Z" transform="translate(-0.95 -2.36)"/><path class="cls-1" d="M331.41,7.16c0,.08-.11.12-.32.12h-.41a.54.54,0,0,0-.48.37c-.06.22-.13.43-.2.65l-1.43,4.39c-.08.23-.19.58-.34,1-.18.63-.33.94-.44.94s-.16-.11-.24-.32-.11-.29-.17-.46c-.92-2.48-1.38-3.72-1.39-3.71a21.11,21.11,0,0,0-1.07-2.77.59.59,0,0,0-.48-.13h-.39c-.11,0-.17,0-.17-.11s.08-.12.24-.12h3.24c.12,0,.17,0,.17.12s-.17.14-.52.14-.53.05-.53.14a1.93,1.93,0,0,0,.14.56c.19.45.54,1.43,1.07,2.92.22.67.41,1.18.55,1.53.32-1,.61-1.88.86-2.61a21.74,21.74,0,0,0,.75-2.42c0-.1-.09-.15-.26-.15h-.37c-.15,0-.22,0-.22-.12s.06-.11.2-.11h1.7C331.24,7,331.41,7.08,331.41,7.16Z" transform="translate(-0.95 -2.36)"/><path class="cls-1" d="M338.53,10.79a4,4,0,0,1-1,2.77,3.23,3.23,0,0,1-2.5,1.11,3.38,3.38,0,0,1-2.58-1.11,3.92,3.92,0,0,1-1-2.77,4.08,4.08,0,0,1,1-2.82A3.27,3.27,0,0,1,335,6.85,3.3,3.3,0,0,1,337.5,8,4,4,0,0,1,338.53,10.79Zm-1.54,0a6.09,6.09,0,0,0-.58-2.91A1.51,1.51,0,0,0,335,7.11a1.64,1.64,0,0,0-1.49,1,5.82,5.82,0,0,0-.53,2.71,5.26,5.26,0,0,0,.57,2.68,1.77,1.77,0,0,0,1.59,1,1.27,1.27,0,0,0,1.15-.59A5.63,5.63,0,0,0,337,10.78Z" transform="translate(-0.95 -2.36)"/><path class="cls-1" d="M344.77,8a.92.92,0,0,1-.24.65.78.78,0,0,1-.61.25.76.76,0,0,1-.51-.18.59.59,0,0,1-.2-.45.57.57,0,0,1,.15-.4.57.57,0,0,0,.15-.24c0-.17-.12-.26-.37-.26a1,1,0,0,0-.82.59,5.85,5.85,0,0,0-.39,2.58v3.34a.24.24,0,0,0,.15.26,5.48,5.48,0,0,0,.87.07c.13,0,.19.06.19.13s-.07.12-.22.12h-3.3c-.18,0-.27,0-.27-.1s.07-.1.22-.1h.24c.38,0,.61-.05.68-.14a3.24,3.24,0,0,0,0-.63V8.83c0-.63-.09-1-.28-1.09a2.27,2.27,0,0,0-.89-.16q-.21,0-.21-.12t.18-.12h.11a4.36,4.36,0,0,1,.51,0l.23,0A3.31,3.31,0,0,0,341.56,7l.22-.1.14-.06a5.76,5.76,0,0,1,.06.82V8a1.71,1.71,0,0,1,1.53-1.16,1.3,1.3,0,0,1,.91.34A1.09,1.09,0,0,1,344.77,8Z" transform="translate(-0.95 -2.36)"/><path class="cls-1" d="M350.93,14.91a5.64,5.64,0,0,1-.63,2.88,1.92,1.92,0,0,1-1.72,1.06,1.37,1.37,0,0,1-.87-.27.81.81,0,0,1-.35-.68c0-.53.29-.8.86-.8s.72.2.72.6a3.2,3.2,0,0,1-.1.54s0,.07,0,.14,0,.15.1.15.36-.17.45-.52a12.92,12.92,0,0,0,.15-2.61V7.91a.23.23,0,0,0-.26-.23h-1c-.12,0-.19,0-.19-.12s.15-.11.45-.11A3,3,0,0,0,350.34,7a1.11,1.11,0,0,1,.4-.19c.09,0,.14.07.15.2s0,.55,0,1.28v6.58Zm-.09-11.12a.66.66,0,0,1-.75.75.79.79,0,0,1-.56-.21.75.75,0,0,1-.22-.56.76.76,0,0,1,.21-.54.72.72,0,0,1,.54-.22A.69.69,0,0,1,350.84,3.79Z" transform="translate(-0.95 -2.36)"/><path class="cls-1" d="M358.85,12.61a1.55,1.55,0,0,1-.26.61,3.87,3.87,0,0,1-.54.7,2.61,2.61,0,0,1-2,.75,3.34,3.34,0,0,1-2.55-1.1,3.86,3.86,0,0,1-1-2.74,4.18,4.18,0,0,1,1-2.84,3.07,3.07,0,0,1,2.43-1.14,3,3,0,0,1,2,.71,2.43,2.43,0,0,1,.86,1.81,8.55,8.55,0,0,1-1.44.06h-1.19l-2,.06a6.6,6.6,0,0,0-.09,1.06,4.52,4.52,0,0,0,.66,2.64,2.14,2.14,0,0,0,1.84.92,1.72,1.72,0,0,0,1.09-.31,3.71,3.71,0,0,0,.89-1.17.19.19,0,0,1,.18-.13C358.8,12.5,358.85,12.53,358.85,12.61Zm-1.48-3.46c-.05-1.36-.53-2-1.46-2s-1.49.68-1.72,2Z" transform="translate(-0.95 -2.36)"/><path class="cls-1" d="M367.65,7.85c0,.53-.23.79-.69.79a.67.67,0,0,1-.44-.17.44.44,0,0,1-.19-.36.52.52,0,0,1,.05-.21,1,1,0,0,0,.05-.23c0-.15-.08-.22-.24-.22a.55.55,0,0,0-.39.21.67.67,0,0,0-.19.43s0,.23.09.58a4.91,4.91,0,0,1,.08.8,2.61,2.61,0,0,1-.79,1.94,2.75,2.75,0,0,1-2,.78,4.74,4.74,0,0,1-1.13-.26,1.39,1.39,0,0,0-.28-.06,1,1,0,0,0-.94.91c0,.59.36.89,1.07.89a8.09,8.09,0,0,0,1.31-.16,8.61,8.61,0,0,1,1.27-.11,2.31,2.31,0,0,1,1.63.54,2,2,0,0,1,.58,1.51,2.94,2.94,0,0,1-1.24,2.43,5,5,0,0,1-3.16,1,3.8,3.8,0,0,1-2.22-.57,1.83,1.83,0,0,1-.8-1.57,1.64,1.64,0,0,1,.74-1.46,4.13,4.13,0,0,1,1.19-.43,1.56,1.56,0,0,1-1.2-1.46c0-.81.52-1.38,1.56-1.7a2.54,2.54,0,0,1-1-2.11,2.58,2.58,0,0,1,.78-2,2.89,2.89,0,0,1,2.06-.74,2.77,2.77,0,0,1,1.13.19,3.37,3.37,0,0,1,1,.75,1.58,1.58,0,0,1,1.34-.8C367.33,7,367.65,7.28,367.65,7.85Zm-1.85,8.2c0-.94-.55-1.41-1.66-1.41a9.54,9.54,0,0,0-1.4.15,9.33,9.33,0,0,1-1.38.15,1.69,1.69,0,0,0-.86,1.62,1.71,1.71,0,0,0,.62,1.39,2.42,2.42,0,0,0,1.63.53,3.37,3.37,0,0,0,2.17-.71A2.12,2.12,0,0,0,365.8,16.05Zm-1.31-6.51c0-1.65-.45-2.47-1.36-2.47s-1.32.77-1.32,2.3q0,2.58,1.41,2.58C364.07,12,364.49,11.15,364.49,9.54Z" transform="translate(-0.95 -2.36)"/><path class="cls-1" d="M378.87,13.89c0,.08-.12.12-.37.13a6.19,6.19,0,0,0-2.33.58.28.28,0,0,1-.12,0c-.07,0-.1-.05-.1-.14v-.95a2.54,2.54,0,0,1-2.18,1.09,2.08,2.08,0,0,1-1.78-.73,1.36,1.36,0,0,1-.27-.56c0-.17,0-.62,0-1.36V8.12a1.75,1.75,0,0,0-.07-.69q-.06-.1-.45-.12h-.23c-.3,0-.45,0-.45-.14s.09-.12.28-.12.5,0,.89,0l.34,0a7.63,7.63,0,0,0,1.1-.07v4.73a5.65,5.65,0,0,0,.17,1.72,1.08,1.08,0,0,0,1.11.66,1.42,1.42,0,0,0,1.32-.74,3.6,3.6,0,0,0,.31-1.73V9.07a5.78,5.78,0,0,0-.05-.86V7.65c0-.17-.05-.27-.11-.3a1.06,1.06,0,0,0-.38,0q-.72,0-.72-.15c0-.07.12-.11.36-.11h2.31V11.8a14.65,14.65,0,0,0,0,1.54c0,.22.12.34.26.38a5.78,5.78,0,0,0,.95,0C378.81,13.77,378.87,13.81,378.87,13.89Z" transform="translate(-0.95 -2.36)"/><path class="cls-1" d="M387,14.37c0,.09-.09.13-.26.13h-3.13c-.14,0-.22,0-.22-.12s0-.09.1-.1l.65,0c.22,0,.34-.05.37-.1a1.31,1.31,0,0,0,.06-.55V10.35a9.51,9.51,0,0,0-.14-2.21,1.12,1.12,0,0,0-1.16-.76,1.78,1.78,0,0,0-1.43.74,1,1,0,0,0-.17.61V14c0,.13.13.21.37.22h.52c.11,0,.17,0,.17.12s-.07.12-.2.12h-3.1c-.17,0-.25,0-.25-.1s.1-.12.3-.14h.43q.25,0,.3-.12l.05-.25v-3.7c0-1.28,0-2,0-2.13s-.16-.21-.43-.21h-.49c-.23,0-.34,0-.34-.12s.12-.17.36-.17a4.58,4.58,0,0,0,1.1-.18,2.35,2.35,0,0,0,.84-.39.46.46,0,0,1,.23-.14c.08,0,.12.11.12.32V8a2.76,2.76,0,0,1,2.28-1.14,1.9,1.9,0,0,1,1.77.9A4.23,4.23,0,0,1,386,9.69v3.88c0,.36,0,.56.05.59s.23.1.49.1h.31C386.91,14.26,387,14.3,387,14.37Z" transform="translate(-0.95 -2.36)"/><path class="cls-1" d="M395.16,14.13q0,.12-.24.12h-.51a2.94,2.94,0,0,0-1.41.32,1.06,1.06,0,0,1-.29.14q-.15,0-.15-.21l0-.53a2.38,2.38,0,0,1-1.74.74,2.92,2.92,0,0,1-2.35-1.11,4.2,4.2,0,0,1-.93-2.81,4.25,4.25,0,0,1,.93-2.85,3,3,0,0,1,2.42-1.09,2,2,0,0,1,1.73.83V5a6.84,6.84,0,0,0-.11-1.6c-.07-.17-.17-.25-.31-.23l-.58,0c-.15,0-.22,0-.22-.16s.06-.15.18-.15l.61,0a3.93,3.93,0,0,0,1.56-.48l.12,0c.11,0,.16.13.16.41V9.55c0,2.69,0,4.13.07,4.32s.29.12.8.12C395.08,14,395.16,14,395.16,14.13Zm-2.52-4.27a4,4,0,0,0-.35-2.09,1.44,1.44,0,0,0-1.18-.58,1.64,1.64,0,0,0-1.46,1,5.19,5.19,0,0,0-.54,2.55,6.63,6.63,0,0,0,.47,2.62,1.89,1.89,0,0,0,.61.76,1.34,1.34,0,0,0,.82.3,1.55,1.55,0,0,0,.95-.32,1.42,1.42,0,0,0,.56-.76A24.33,24.33,0,0,0,392.64,9.86Z" transform="translate(-0.95 -2.36)"/><path class="cls-1" d="M402,12.61a1.41,1.41,0,0,1-.26.61,3.47,3.47,0,0,1-.54.7,2.59,2.59,0,0,1-1.95.75,3.38,3.38,0,0,1-2.56-1.1,3.9,3.9,0,0,1-1-2.74,4.23,4.23,0,0,1,1-2.84,3.07,3.07,0,0,1,2.44-1.14,3,3,0,0,1,2,.71A2.44,2.44,0,0,1,402,9.37a8.67,8.67,0,0,1-1.45.06h-1.19l-2,.06a7.92,7.92,0,0,0-.08,1.06,4.6,4.6,0,0,0,.65,2.64,2.15,2.15,0,0,0,1.85.92,1.76,1.76,0,0,0,1.09-.31,3.72,3.72,0,0,0,.88-1.17.2.2,0,0,1,.19-.13C402,12.5,402,12.53,402,12.61Zm-1.48-3.46c0-1.36-.53-2-1.46-2s-1.49.68-1.71,2Z" transform="translate(-0.95 -2.36)"/><path class="cls-1" d="M408.16,8a1,1,0,0,1-.23.65.81.81,0,0,1-.62.25.76.76,0,0,1-.51-.18.59.59,0,0,1-.2-.45.57.57,0,0,1,.15-.4c.1-.12.16-.2.16-.24s-.13-.26-.38-.26a1,1,0,0,0-.81.59,5.82,5.82,0,0,0-.4,2.58v3.34a.24.24,0,0,0,.15.26,5.63,5.63,0,0,0,.87.07c.13,0,.19.06.19.13s-.07.12-.22.12H403c-.18,0-.27,0-.27-.1s.07-.1.22-.1h.24c.39,0,.61-.05.68-.14a3.24,3.24,0,0,0,0-.63V8.83c0-.63-.09-1-.28-1.09a2.24,2.24,0,0,0-.89-.16c-.14,0-.2,0-.2-.12s0-.12.17-.12h.12a4.36,4.36,0,0,1,.51,0l.22,0A3.27,3.27,0,0,0,405,7l.22-.1.14-.06a5.79,5.79,0,0,1,.07.82V8a1.69,1.69,0,0,1,1.53-1.16,1.29,1.29,0,0,1,.9.34A1.09,1.09,0,0,1,408.16,8Z" transform="translate(-0.95 -2.36)"/><path class="cls-1" d="M413.89,12.3a2.24,2.24,0,0,1-.72,1.68,2.35,2.35,0,0,1-1.71.69,3.2,3.2,0,0,1-1.4-.41.86.86,0,0,0-.39-.12c-.16,0-.27.11-.35.33s-.11.2-.19.2-.12-.05-.12-.13V12.26c0-.13,0-.19.12-.19s.14.06.16.19a2.46,2.46,0,0,0,.44,1.23,2.18,2.18,0,0,0,1.82.89,1.35,1.35,0,0,0,1-.36,1.23,1.23,0,0,0,.38-.95,1.39,1.39,0,0,0-.43-1.06,2,2,0,0,0-.43-.31c-.13-.06-.51-.21-1.15-.45-1.26-.48-1.89-1.2-1.89-2.15a2.2,2.2,0,0,1,.64-1.6,2.16,2.16,0,0,1,1.59-.65,4.14,4.14,0,0,1,1,.2.89.89,0,0,0,.31.06.41.41,0,0,0,.43-.34c0-.12.09-.17.16-.17s.11,0,.11.13v.82a9.69,9.69,0,0,0,.09,1.31v0a.13.13,0,0,1-.14.14c-.07,0-.15-.17-.25-.52a2,2,0,0,0-.66-1,1.67,1.67,0,0,0-1.08-.38,1.32,1.32,0,0,0-1,.36,1.19,1.19,0,0,0-.37.9c0,.57.38,1,1.14,1.3a8.12,8.12,0,0,1,2.24,1.15A1.94,1.94,0,0,1,413.89,12.3Z" transform="translate(-0.95 -2.36)"/><path class="cls-1" d="M422,10.78a4,4,0,0,1-1,2.78,3.21,3.21,0,0,1-2.49,1.11,3.64,3.64,0,0,1-1.94-.56L416,15a.3.3,0,0,1-.25.17c-.15,0-.22-.06-.22-.17a.61.61,0,0,1,.05-.12l.09-.15.53-.85a3.84,3.84,0,0,1-1.37-3.08,4,4,0,0,1,1-2.8,3.21,3.21,0,0,1,2.49-1.13,3.5,3.5,0,0,1,1.81.5l.69-1.14a.21.21,0,0,1,.2-.12c.13,0,.2,0,.2.17a.45.45,0,0,1-.12.23l-.64,1.07A4,4,0,0,1,422,10.78Zm-2.13-2.94a1.69,1.69,0,0,0-1.43-.73,1.65,1.65,0,0,0-1.49,1,5.61,5.61,0,0,0-.53,2.67,7.33,7.33,0,0,0,.31,2.29Zm.58,3a8.63,8.63,0,0,0-.36-2.57l-3.15,5.23a2,2,0,0,0,1.64.94A1.52,1.52,0,0,0,420,13.36,6.38,6.38,0,0,0,420.44,10.83Z" transform="translate(-0.95 -2.36)"/><path class="cls-1" d="M430.86,7.85c0,.53-.23.79-.7.79a.65.65,0,0,1-.43-.17.45.45,0,0,1-.2-.36.76.76,0,0,1,.05-.21.63.63,0,0,0,.05-.23c0-.15-.07-.22-.23-.22a.51.51,0,0,0-.39.21.62.62,0,0,0-.19.43s0,.23.08.58a5.18,5.18,0,0,1,.09.8,2.62,2.62,0,0,1-.8,1.94,2.74,2.74,0,0,1-2,.78,4.7,4.7,0,0,1-1.12-.26,1.44,1.44,0,0,0-.29-.06.88.88,0,0,0-.65.29.86.86,0,0,0-.28.62c0,.59.35.89,1.07.89a8.22,8.22,0,0,0,1.31-.16,8.61,8.61,0,0,1,1.27-.11,2.3,2.3,0,0,1,1.62.54,2,2,0,0,1,.59,1.51,3,3,0,0,1-1.25,2.43,5,5,0,0,1-3.15,1,3.8,3.8,0,0,1-2.22-.57,1.81,1.81,0,0,1-.81-1.57,1.63,1.63,0,0,1,.75-1.46,4.13,4.13,0,0,1,1.19-.43c-.81-.31-1.21-.8-1.21-1.46s.52-1.38,1.57-1.7a2.54,2.54,0,0,1-1-2.11,2.58,2.58,0,0,1,.78-2,2.87,2.87,0,0,1,2.06-.74,2.8,2.8,0,0,1,1.13.19,3.64,3.64,0,0,1,1,.75,1.57,1.57,0,0,1,1.34-.8C430.54,7,430.86,7.28,430.86,7.85ZM429,16.05c0-.94-.56-1.41-1.66-1.41a9.41,9.41,0,0,0-1.4.15,9.61,9.61,0,0,1-1.38.15,1.68,1.68,0,0,0-.87,1.62,1.74,1.74,0,0,0,.62,1.39,2.45,2.45,0,0,0,1.64.53,3.39,3.39,0,0,0,2.17-.71A2.15,2.15,0,0,0,429,16.05ZM427.7,9.54c0-1.65-.46-2.47-1.36-2.47S425,7.84,425,9.37Q425,12,426.42,12C427.27,12,427.7,11.15,427.7,9.54Z" transform="translate(-0.95 -2.36)"/><path class="cls-1" d="M437.3,12.61a1.55,1.55,0,0,1-.26.61,3.87,3.87,0,0,1-.54.7,2.59,2.59,0,0,1-1.95.75,3.37,3.37,0,0,1-2.56-1.1,3.86,3.86,0,0,1-1-2.74,4.23,4.23,0,0,1,1-2.84,3.07,3.07,0,0,1,2.44-1.14,3,3,0,0,1,2,.71,2.47,2.47,0,0,1,.87,1.81,8.73,8.73,0,0,1-1.45.06h-1.19l-2,.06a7.92,7.92,0,0,0-.08,1.06,4.6,4.6,0,0,0,.65,2.64,2.15,2.15,0,0,0,1.85.92,1.71,1.71,0,0,0,1.08-.31,3.57,3.57,0,0,0,.89-1.17.2.2,0,0,1,.19-.13C437.26,12.5,437.3,12.53,437.3,12.61Zm-1.48-3.46c0-1.36-.53-2-1.46-2s-1.49.68-1.72,2Z" transform="translate(-0.95 -2.36)"/><path class="cls-1" d="M443.47,8a.92.92,0,0,1-.24.65.78.78,0,0,1-.61.25.76.76,0,0,1-.51-.18.59.59,0,0,1-.2-.45.57.57,0,0,1,.15-.4.57.57,0,0,0,.15-.24c0-.17-.12-.26-.37-.26A1,1,0,0,0,441,8a5.85,5.85,0,0,0-.39,2.58v3.34a.24.24,0,0,0,.15.26,5.48,5.48,0,0,0,.87.07c.13,0,.19.06.19.13s-.07.12-.22.12h-3.3c-.18,0-.27,0-.27-.1s.07-.1.22-.1h.24c.38,0,.61-.05.68-.14a3.24,3.24,0,0,0,0-.63V8.83c0-.63-.09-1-.28-1.09a2.27,2.27,0,0,0-.89-.16q-.21,0-.21-.12t.18-.12h.11a4.36,4.36,0,0,1,.51,0l.23,0A3.31,3.31,0,0,0,440.26,7l.22-.1.14-.06a5.76,5.76,0,0,1,.06.82V8a1.71,1.71,0,0,1,1.53-1.16,1.3,1.3,0,0,1,.91.34A1.09,1.09,0,0,1,443.47,8Z" transform="translate(-0.95 -2.36)"/><path class="cls-1" d="M454.3,10.79a4,4,0,0,1-1,2.77,3.23,3.23,0,0,1-2.5,1.11,3.38,3.38,0,0,1-2.58-1.11,3.88,3.88,0,0,1-1-2.77,4.08,4.08,0,0,1,1-2.82,3.25,3.25,0,0,1,2.52-1.12A3.32,3.32,0,0,1,453.27,8,4,4,0,0,1,454.3,10.79Zm-1.55,0a6.1,6.1,0,0,0-.57-2.91,1.51,1.51,0,0,0-1.43-.76,1.64,1.64,0,0,0-1.49,1,5.7,5.7,0,0,0-.53,2.71,5.37,5.37,0,0,0,.56,2.68,1.77,1.77,0,0,0,1.59,1,1.28,1.28,0,0,0,1.16-.59A5.64,5.64,0,0,0,452.75,10.78Z" transform="translate(-0.95 -2.36)"/><path class="cls-1" d="M463.18,7.85c0,.53-.24.79-.7.79a.67.67,0,0,1-.44-.17.47.47,0,0,1-.19-.36.76.76,0,0,1,0-.21,1,1,0,0,0,.05-.23c0-.15-.08-.22-.24-.22a.55.55,0,0,0-.39.21.65.65,0,0,0-.18.43,5.6,5.6,0,0,0,.08.58,5.18,5.18,0,0,1,.09.8,2.62,2.62,0,0,1-.8,1.94,2.75,2.75,0,0,1-2,.78,4.6,4.6,0,0,1-1.12-.26l-.29-.06a1,1,0,0,0-.94.91c0,.59.36.89,1.07.89a8.09,8.09,0,0,0,1.31-.16,8.74,8.74,0,0,1,1.28-.11,2.3,2.3,0,0,1,1.62.54,2,2,0,0,1,.59,1.51,3,3,0,0,1-1.25,2.43,5,5,0,0,1-3.16,1,3.75,3.75,0,0,1-2.21-.57,1.81,1.81,0,0,1-.81-1.57,1.63,1.63,0,0,1,.75-1.46,3.91,3.91,0,0,1,1.19-.43c-.81-.31-1.21-.8-1.21-1.46s.52-1.38,1.56-1.7a2.54,2.54,0,0,1-1-2.11,2.58,2.58,0,0,1,.78-2,2.91,2.91,0,0,1,2.06-.74,2.77,2.77,0,0,1,1.13.19,3.37,3.37,0,0,1,1,.75,1.59,1.59,0,0,1,1.35-.8C462.85,7,463.18,7.28,463.18,7.85Zm-1.86,8.2c0-.94-.55-1.41-1.66-1.41a9.68,9.68,0,0,0-1.4.15,9.33,9.33,0,0,1-1.38.15,1.69,1.69,0,0,0-.86,1.62,1.71,1.71,0,0,0,.62,1.39,2.42,2.42,0,0,0,1.63.53,3.37,3.37,0,0,0,2.17-.71A2.12,2.12,0,0,0,461.32,16.05ZM460,9.54c0-1.65-.45-2.47-1.36-2.47s-1.32.77-1.32,2.3q0,2.58,1.41,2.58C459.59,12,460,11.15,460,9.54Z" transform="translate(-0.95 -2.36)"/><path class="cls-1" d="M474.4,13.89c0,.08-.13.12-.38.13a6.19,6.19,0,0,0-2.33.58.28.28,0,0,1-.12,0c-.07,0-.1-.05-.1-.14v-.95a2.54,2.54,0,0,1-2.18,1.09,2.08,2.08,0,0,1-1.78-.73,1.22,1.22,0,0,1-.26-.56A11,11,0,0,1,467.2,12V8.12a2.11,2.11,0,0,0-.06-.69c-.05-.07-.2-.11-.46-.12h-.22c-.31,0-.46,0-.46-.14s.09-.12.29-.12.5,0,.88,0l.34,0a7.68,7.68,0,0,0,1.11-.07v4.73a5.34,5.34,0,0,0,.17,1.72,1.07,1.07,0,0,0,1.1.66,1.44,1.44,0,0,0,1.33-.74,3.75,3.75,0,0,0,.3-1.73V9.07a5.78,5.78,0,0,0,0-.86V7.65c0-.17-.05-.27-.11-.3a1.06,1.06,0,0,0-.38,0q-.72,0-.72-.15c0-.07.12-.11.36-.11h2.31V11.8a14.65,14.65,0,0,0,.05,1.54c0,.22.12.34.26.38a5.78,5.78,0,0,0,.95,0Q474.4,13.77,474.4,13.89Z" transform="translate(-0.95 -2.36)"/><path class="cls-1" d="M482.37,14.13q0,.12-.24.12h-.51a2.88,2.88,0,0,0-1.41.32,1.23,1.23,0,0,1-.29.14q-.15,0-.15-.21V14a2.35,2.35,0,0,1-1.73.74,2.92,2.92,0,0,1-2.35-1.11,4.2,4.2,0,0,1-.93-2.81,4.25,4.25,0,0,1,.93-2.85,3,3,0,0,1,2.42-1.09,2,2,0,0,1,1.73.83V5a6.11,6.11,0,0,0-.12-1.6c-.06-.17-.16-.25-.3-.23l-.58,0c-.15,0-.22,0-.22-.16s.06-.15.18-.15l.61,0A3.93,3.93,0,0,0,481,2.48l.11,0c.12,0,.17.13.17.41V9.55c0,2.69,0,4.13.07,4.32s.29.12.8.12C482.29,14,482.37,14,482.37,14.13Zm-2.52-4.27a4,4,0,0,0-.35-2.09,1.44,1.44,0,0,0-1.18-.58,1.64,1.64,0,0,0-1.46,1,5.19,5.19,0,0,0-.54,2.55,6.46,6.46,0,0,0,.47,2.62,1.89,1.89,0,0,0,.61.76,1.34,1.34,0,0,0,.82.3,1.55,1.55,0,0,0,.95-.32,1.36,1.36,0,0,0,.55-.76A22,22,0,0,0,479.85,9.86Z" transform="translate(-0.95 -2.36)"/><path class="cls-1" d="M487.49,13.46c0,.11-.15.29-.43.55a2.51,2.51,0,0,1-1.73.66,1.92,1.92,0,0,1-1.41-.47c-.19-.18-.28-.72-.28-1.6v-5a.18.18,0,0,0-.18-.19h-.65c-.25,0-.37,0-.37-.12s.06-.12.18-.13a2.61,2.61,0,0,0,2.06-1.31.31.31,0,0,1,.26-.16c.07,0,.11,0,.11.12v.36a4,4,0,0,0,.07.92,3,3,0,0,0,.51,0A6.28,6.28,0,0,0,486.87,7L487,7c.09,0,.14,0,.14.15s-.46.24-1.38.24h-.7v3.15a21.26,21.26,0,0,0,.12,3,.71.71,0,0,0,.79.6,2,2,0,0,0,1.25-.63.23.23,0,0,1,.16-.08C487.45,13.38,487.49,13.41,487.49,13.46Z" transform="translate(-0.95 -2.36)"/><path class="cls-1" d="M492.89,8a.92.92,0,0,1-.24.65.79.79,0,0,1-.61.25.76.76,0,0,1-.51-.18.59.59,0,0,1-.2-.45.57.57,0,0,1,.15-.4.57.57,0,0,0,.15-.24c0-.17-.12-.26-.37-.26a1,1,0,0,0-.82.59,5.85,5.85,0,0,0-.39,2.58v3.34a.24.24,0,0,0,.15.26,5.48,5.48,0,0,0,.87.07c.13,0,.19.06.19.13s-.07.12-.22.12h-3.3c-.18,0-.27,0-.27-.1s.07-.1.22-.1h.24c.38,0,.61-.05.68-.14a3.24,3.24,0,0,0,0-.63V8.83c0-.63-.09-1-.28-1.09a2.27,2.27,0,0,0-.89-.16q-.21,0-.21-.12c0-.08.06-.12.17-.12h.12a4.36,4.36,0,0,1,.51,0l.22,0a3.31,3.31,0,0,0,1.4-.35l.22-.1.14-.06a5.76,5.76,0,0,1,.06.82V8a1.71,1.71,0,0,1,1.53-1.16,1.25,1.25,0,0,1,.9.34A1.06,1.06,0,0,1,492.89,8Z" transform="translate(-0.95 -2.36)"/><path class="cls-1" d="M500.13,7.16c0,.08-.13.13-.4.14a1.47,1.47,0,0,0-.52.07c-.08,0-.14.13-.2.29l-.12.31-.13.43L498,10.73c-.89,2.88-1.64,5.11-2.22,6.69-.37,1-.87,1.45-1.5,1.45a1,1,0,0,1-.67-.24.78.78,0,0,1-.27-.61.72.72,0,0,1,.22-.53.77.77,0,0,1,.55-.2.68.68,0,0,1,.66.37c.1.2.19.29.26.29s.26-.28.47-.83a23.42,23.42,0,0,0,.75-2.23q-1.26-3.3-2.14-5.76a12.56,12.56,0,0,0-.68-1.7,1,1,0,0,0-.55-.09c-.3,0-.45,0-.45-.17s.07-.13.22-.13l.58,0,.59,0h.31l1-.05L496,7c.12,0,.19,0,.19.14s-.21.13-.63.15-.53.06-.53.16a6.22,6.22,0,0,0,.35,1c.09.26.18.54.28.82l.3.85c.08.25.28.81.61,1.7q.18.4.39,1,1.63-5.11,1.63-5.37c0-.11,0-.17-.13-.19a4.26,4.26,0,0,0-.73,0c-.11,0-.17,0-.17-.13s.07-.12.21-.12l.13,0c.39,0,.71.05,1,.05h.47a1.44,1.44,0,0,0,.4,0A.75.75,0,0,1,500,7Q500.13,7,500.13,7.16Z" transform="translate(-0.95 -2.36)"/><path class="cls-1" d="M508.38,14.35q0,.12-.63.12l-.92,0-1.19,0c-.15,0-.37,0-.67,0l-.67,0c-.1,0-.16,0-.16-.12s.11-.14.33-.14q.81,0,.81-.27a25.53,25.53,0,0,0-2.85-3.42V14q0,.26.48.24h.47c.15,0,.22,0,.22.12s-.12.14-.37.14H500.3c-.27,0-.41-.05-.41-.15a.11.11,0,0,1,.08-.11l.59,0c.27,0,.41-.08.42-.19a5.69,5.69,0,0,0,0-.88V4.81c0-.89,0-1.36,0-1.39s-.19-.12-.49-.12h-.45c-.12,0-.18,0-.18-.13S500,3,500.27,3a3.72,3.72,0,0,0,1.7-.49.74.74,0,0,1,.27-.12c.13,0,.19.47.19,1.41v6.28a16.69,16.69,0,0,0,2.75-2.71c0-.07-.22-.1-.66-.1H504c-.2,0-.3,0-.3-.14s.17-.15.52-.15h2.38c.41,0,.65,0,.72,0a.11.11,0,0,1,.1.12c0,.08-.27.12-.8.13a1.9,1.9,0,0,0-.7.09,2.12,2.12,0,0,0-.39.31L503.4,9.75q2.36,2.58,3.35,3.8a2,2,0,0,0,.64.59,2.29,2.29,0,0,0,.83.07C508.33,14.21,508.38,14.26,508.38,14.35Z" transform="translate(-0.95 -2.36)"/><path class="cls-1" d="M516.35,14.35q0,.12-.63.12l-.92,0-1.19,0c-.14,0-.37,0-.67,0l-.67,0q-.15,0-.15-.12c0-.09.1-.14.32-.14.54,0,.82-.09.82-.27a26.21,26.21,0,0,0-2.86-3.42V14q0,.26.48.24h.47c.15,0,.22,0,.22.12s-.12.14-.37.14h-2.92c-.28,0-.41-.05-.41-.15a.1.1,0,0,1,.07-.11l.59,0c.27,0,.41-.08.43-.19a6.47,6.47,0,0,0,0-.88V4.81c0-.89,0-1.36,0-1.39s-.18-.12-.49-.12H508c-.13,0-.19,0-.19-.13S508,3,508.24,3a3.68,3.68,0,0,0,1.7-.49.81.81,0,0,1,.27-.12c.13,0,.19.47.19,1.41v6.28a16.19,16.19,0,0,0,2.75-2.71c0-.07-.22-.1-.66-.1H512c-.2,0-.3,0-.3-.14s.17-.15.53-.15h2.38c.4,0,.64,0,.71,0a.11.11,0,0,1,.1.12c0,.08-.26.12-.8.13a1.83,1.83,0,0,0-.69.09,1.88,1.88,0,0,0-.4.31l-2.12,2.06q2.36,2.58,3.35,3.8a2.06,2.06,0,0,0,.64.59,2.35,2.35,0,0,0,.84.07C516.3,14.21,516.35,14.26,516.35,14.35Z" transform="translate(-0.95 -2.36)"/><path class="cls-1" d="M522.54,12.61a1.47,1.47,0,0,1-.27.61,3.45,3.45,0,0,1-.53.7,2.61,2.61,0,0,1-2,.75,3.34,3.34,0,0,1-2.55-1.1,3.86,3.86,0,0,1-1-2.74,4.22,4.22,0,0,1,1-2.84,3.1,3.1,0,0,1,2.44-1.14,3,3,0,0,1,2,.71,2.43,2.43,0,0,1,.86,1.81,8.55,8.55,0,0,1-1.44.06h-1.19l-2,.06a6.6,6.6,0,0,0-.09,1.06,4.52,4.52,0,0,0,.66,2.64,2.14,2.14,0,0,0,1.84.92,1.72,1.72,0,0,0,1.09-.31,3.57,3.57,0,0,0,.88-1.17.21.21,0,0,1,.19-.13C522.49,12.5,522.54,12.53,522.54,12.61Zm-1.48-3.46c0-1.36-.53-2-1.46-2s-1.49.68-1.72,2Z" transform="translate(-0.95 -2.36)"/><path class="cls-1" d="M528.71,8a.92.92,0,0,1-.24.65.79.79,0,0,1-.61.25.72.72,0,0,1-.51-.18.57.57,0,0,1-.21-.45.58.58,0,0,1,.16-.4.57.57,0,0,0,.15-.24c0-.17-.12-.26-.37-.26a1,1,0,0,0-.82.59,5.85,5.85,0,0,0-.39,2.58v3.34a.25.25,0,0,0,.14.26,5.67,5.67,0,0,0,.88.07c.12,0,.19.06.19.13s-.08.12-.22.12h-3.3c-.18,0-.27,0-.27-.1s.07-.1.22-.1h.23c.39,0,.62-.05.68-.14a2.28,2.28,0,0,0,0-.63V8.83c0-.63-.09-1-.28-1.09a2.31,2.31,0,0,0-.89-.16q-.21,0-.21-.12c0-.08.06-.12.17-.12h.12a4.36,4.36,0,0,1,.51,0l.22,0A3.31,3.31,0,0,0,525.5,7l.22-.1.13-.06a4.62,4.62,0,0,1,.07.82V8a1.69,1.69,0,0,1,1.53-1.16,1.29,1.29,0,0,1,.9.34A1.06,1.06,0,0,1,528.71,8Z" transform="translate(-0.95 -2.36)"/><path class="cls-1" d="M540.13,14.37c0,.09-.08.13-.25.13h-3.13c-.15,0-.22,0-.22-.12a.1.1,0,0,1,.09-.1l.66,0c.21,0,.34-.05.37-.1a1.64,1.64,0,0,0,.05-.55V10.35a9.79,9.79,0,0,0-.13-2.21,1.13,1.13,0,0,0-1.16-.76,1.76,1.76,0,0,0-1.43.74,1,1,0,0,0-.17.61V14c0,.13.12.21.36.22h.52q.18,0,.18.12t-.21.12h-3.09c-.17,0-.26,0-.26-.1s.11-.12.31-.14H533c.17,0,.28,0,.31-.12l0-.25v-3.7c0-1.28,0-2,0-2.13s-.17-.21-.43-.21h-.49c-.23,0-.34,0-.34-.12s.12-.17.36-.17a4.66,4.66,0,0,0,1.1-.18A2.21,2.21,0,0,0,534.4,7a.51.51,0,0,1,.24-.14c.08,0,.12.11.12.32V8A2.76,2.76,0,0,1,537,6.85a1.92,1.92,0,0,1,1.77.9,4.26,4.26,0,0,1,.3,1.94v3.88a1.69,1.69,0,0,0,0,.59.79.79,0,0,0,.5.1h.3C540.08,14.26,540.13,14.3,540.13,14.37Z" transform="translate(-0.95 -2.36)"/><path class="cls-1" d="M547.85,10.79a4,4,0,0,1-1,2.77,3.23,3.23,0,0,1-2.5,1.11,3.42,3.42,0,0,1-2.59-1.11,3.91,3.91,0,0,1-1-2.77,4,4,0,0,1,1-2.82,3.23,3.23,0,0,1,2.52-1.12A3.32,3.32,0,0,1,546.82,8,4,4,0,0,1,547.85,10.79Zm-1.55,0a6.1,6.1,0,0,0-.57-2.91,1.51,1.51,0,0,0-1.43-.76,1.64,1.64,0,0,0-1.49,1,5.69,5.69,0,0,0-.54,2.71,5.26,5.26,0,0,0,.57,2.68,1.77,1.77,0,0,0,1.59,1,1.29,1.29,0,0,0,1.16-.59A5.64,5.64,0,0,0,546.3,10.78Z" transform="translate(-0.95 -2.36)"/><path class="cls-1" d="M556.72,7.85c0,.53-.23.79-.69.79a.67.67,0,0,1-.44-.17.44.44,0,0,1-.19-.36.76.76,0,0,1,.05-.21,1,1,0,0,0,0-.23c0-.15-.08-.22-.24-.22a.55.55,0,0,0-.39.21.67.67,0,0,0-.19.43s0,.23.09.58a4.91,4.91,0,0,1,.08.8,2.61,2.61,0,0,1-.79,1.94,2.75,2.75,0,0,1-2,.78,4.74,4.74,0,0,1-1.13-.26l-.28-.06a1,1,0,0,0-.94.91c0,.59.36.89,1.07.89a8.09,8.09,0,0,0,1.31-.16,8.63,8.63,0,0,1,1.28-.11,2.3,2.3,0,0,1,1.62.54,2,2,0,0,1,.59,1.51,3,3,0,0,1-1.25,2.43,5,5,0,0,1-3.16,1,3.8,3.8,0,0,1-2.22-.57,1.83,1.83,0,0,1-.8-1.57,1.64,1.64,0,0,1,.74-1.46,4.13,4.13,0,0,1,1.19-.43,1.56,1.56,0,0,1-1.2-1.46c0-.81.52-1.38,1.56-1.7a2.54,2.54,0,0,1-1-2.11,2.58,2.58,0,0,1,.78-2,2.89,2.89,0,0,1,2.06-.74A2.77,2.77,0,0,1,553.4,7a3.37,3.37,0,0,1,1,.75,1.58,1.58,0,0,1,1.34-.8C556.4,7,556.72,7.28,556.72,7.85Zm-1.85,8.2c0-.94-.55-1.41-1.66-1.41a9.54,9.54,0,0,0-1.4.15,9.33,9.33,0,0,1-1.38.15,1.69,1.69,0,0,0-.86,1.62,1.71,1.71,0,0,0,.62,1.39,2.42,2.42,0,0,0,1.63.53,3.37,3.37,0,0,0,2.17-.71A2.12,2.12,0,0,0,554.87,16.05Zm-1.31-6.51c0-1.65-.45-2.47-1.36-2.47s-1.32.77-1.32,2.3q0,2.58,1.41,2.58C553.14,12,553.56,11.15,553.56,9.54Z" transform="translate(-0.95 -2.36)"/><path class="cls-1" d="M563.17,12.61a1.47,1.47,0,0,1-.27.61,3.45,3.45,0,0,1-.53.7,2.61,2.61,0,0,1-2,.75,3.38,3.38,0,0,1-2.56-1.1,3.89,3.89,0,0,1-1-2.74,4.22,4.22,0,0,1,1-2.84,3.1,3.1,0,0,1,2.44-1.14,3,3,0,0,1,2,.71,2.43,2.43,0,0,1,.86,1.81,8.55,8.55,0,0,1-1.44.06H560.5l-2,.06a6.6,6.6,0,0,0-.09,1.06,4.52,4.52,0,0,0,.66,2.64,2.13,2.13,0,0,0,1.84.92A1.72,1.72,0,0,0,562,13.8a3.57,3.57,0,0,0,.88-1.17.21.21,0,0,1,.19-.13C563.12,12.5,563.17,12.53,563.17,12.61Zm-1.48-3.46c-.05-1.36-.53-2-1.46-2s-1.49.68-1.72,2Z" transform="translate(-0.95 -2.36)"/><path class="cls-1" d="M568.76,13.46c0,.11-.14.29-.43.55a2.48,2.48,0,0,1-1.73.66,2,2,0,0,1-1.41-.47,2.77,2.77,0,0,1-.27-1.6v-5a.19.19,0,0,0-.19-.19h-.65c-.24,0-.37,0-.37-.12s.06-.12.19-.13A2.64,2.64,0,0,0,566,5.8a.3.3,0,0,1,.25-.16.11.11,0,0,1,.12.12v.36a3.49,3.49,0,0,0,.07.92,3,3,0,0,0,.51,0A6.36,6.36,0,0,0,568.15,7l.12,0c.09,0,.13,0,.13.15s-.46.24-1.37.24h-.7v3.15a21.26,21.26,0,0,0,.12,3,.7.7,0,0,0,.78.6,2,2,0,0,0,1.26-.63.19.19,0,0,1,.15-.08C568.72,13.38,568.76,13.41,568.76,13.46Z" transform="translate(-0.95 -2.36)"/><path class="cls-1" d="M579.25,10.79a4,4,0,0,1-1,2.77,3.24,3.24,0,0,1-2.5,1.11,3.39,3.39,0,0,1-2.59-1.11,3.91,3.91,0,0,1-1-2.77,4,4,0,0,1,1-2.82,3.23,3.23,0,0,1,2.52-1.12A3.34,3.34,0,0,1,578.22,8,4,4,0,0,1,579.25,10.79Zm-1.55,0a6,6,0,0,0-.58-2.91,1.49,1.49,0,0,0-1.42-.76,1.64,1.64,0,0,0-1.49,1,5.69,5.69,0,0,0-.54,2.71,5.26,5.26,0,0,0,.57,2.68,1.77,1.77,0,0,0,1.59,1,1.29,1.29,0,0,0,1.16-.59A5.73,5.73,0,0,0,577.7,10.78Z" transform="translate(-0.95 -2.36)"/><path class="cls-1" d="M591.71,14.37c0,.09-.1.13-.29.13h-3.06c-.15,0-.22,0-.22-.11s.06-.13.19-.13h.56q.25,0,.3-.12a3.69,3.69,0,0,0,0-.71V9.2A2.86,2.86,0,0,0,589,7.79a1,1,0,0,0-.89-.41,1.45,1.45,0,0,0-.82.26,1.43,1.43,0,0,0-.53.67,12.33,12.33,0,0,0-.07,1.89v3.21a6.15,6.15,0,0,0,0,.65c0,.13.13.2.3.2h.48c.15,0,.22.05.22.13s-.08.11-.25.11h-3.06c-.14,0-.21,0-.21-.13a.11.11,0,0,1,.1-.11h.68c.19,0,.28-.07.29-.17l0-.24V9.11A2.58,2.58,0,0,0,585,7.75a1,1,0,0,0-.87-.37,1.44,1.44,0,0,0-1,.39,1.29,1.29,0,0,0-.42,1v4.82a1.27,1.27,0,0,0,.08.6c0,.06.21.09.49.09h.32c.12,0,.18,0,.18.13s-.07.12-.22.12h-3.11c-.16,0-.24,0-.24-.13s.08-.12.23-.12a2.29,2.29,0,0,0,.74-.06.25.25,0,0,0,.12-.21V9.57a12.38,12.38,0,0,0,0-1.5c0-.14-.2-.22-.49-.22h-.56c-.15,0-.22,0-.22-.12s0-.1.07-.11a4.9,4.9,0,0,1,.56-.06,3.55,3.55,0,0,0,1-.2,1.46,1.46,0,0,0,.68-.32c.12-.13.21-.19.27-.19s.09.05.1.14,0,.4,0,1a2.28,2.28,0,0,1,2.09-1.09c1,0,1.62.38,1.84,1.14a2.27,2.27,0,0,1,2.13-1.14,1.71,1.71,0,0,1,1.7.9,3.79,3.79,0,0,1,.24,1.58v4.2a1.61,1.61,0,0,0,.06.64,1.23,1.23,0,0,0,.52.09h.31C591.65,14.25,591.71,14.29,591.71,14.37Z" transform="translate(-0.95 -2.36)"/><path class="cls-1" d="M601.93,7.16q0,.12-.33.12h-.4a.52.52,0,0,0-.48.37c-.07.22-.14.43-.2.65l-1.43,4.39c-.08.23-.19.58-.34,1-.18.63-.33.94-.44.94s-.16-.11-.24-.32-.11-.29-.17-.46c-.92-2.48-1.38-3.72-1.4-3.71a18.24,18.24,0,0,0-1.07-2.77.57.57,0,0,0-.47-.13h-.39c-.12,0-.17,0-.17-.11s.08-.12.23-.12h3.25c.11,0,.17,0,.17.12s-.17.14-.53.14-.52.05-.52.14a1.64,1.64,0,0,0,.14.56c.18.45.54,1.43,1.06,2.92.23.67.41,1.18.56,1.53.32-1,.6-1.88.85-2.61a21.74,21.74,0,0,0,.75-2.42c0-.1-.08-.15-.25-.15h-.38c-.14,0-.22,0-.22-.12s.07-.11.21-.11h1.7C601.76,7,601.93,7.08,601.93,7.16Z" transform="translate(-0.95 -2.36)"/><path class="cls-1" d="M608.27,12.61a1.47,1.47,0,0,1-.27.61,3.45,3.45,0,0,1-.53.7,2.61,2.61,0,0,1-2,.75,3.34,3.34,0,0,1-2.55-1.1,3.86,3.86,0,0,1-1-2.74,4.22,4.22,0,0,1,1-2.84,3.1,3.1,0,0,1,2.44-1.14,3,3,0,0,1,2,.71,2.43,2.43,0,0,1,.86,1.81,8.55,8.55,0,0,1-1.44.06H605.6l-2,.06a6.6,6.6,0,0,0-.09,1.06,4.52,4.52,0,0,0,.66,2.64,2.13,2.13,0,0,0,1.84.92,1.72,1.72,0,0,0,1.09-.31,3.57,3.57,0,0,0,.88-1.17.21.21,0,0,1,.19-.13C608.22,12.5,608.27,12.53,608.27,12.61Zm-1.48-3.46c0-1.36-.53-2-1.46-2s-1.49.68-1.72,2Z" transform="translate(-0.95 -2.36)"/><path class="cls-1" d="M614.44,8a.92.92,0,0,1-.24.65.79.79,0,0,1-.61.25.72.72,0,0,1-.51-.18.57.57,0,0,1-.21-.45.54.54,0,0,1,.16-.4.57.57,0,0,0,.15-.24c0-.17-.13-.26-.37-.26A1,1,0,0,0,612,8a5.85,5.85,0,0,0-.39,2.58v3.34a.25.25,0,0,0,.14.26,5.67,5.67,0,0,0,.88.07c.12,0,.19.06.19.13s-.08.12-.22.12h-3.3c-.18,0-.28,0-.28-.1s.08-.1.23-.1h.23c.39,0,.62-.05.68-.14a2.28,2.28,0,0,0,0-.63V8.83c0-.63-.1-1-.28-1.09a2.33,2.33,0,0,0-.9-.16c-.13,0-.2,0-.2-.12s.06-.12.17-.12h.12a4.36,4.36,0,0,1,.51,0l.22,0A3.27,3.27,0,0,0,611.22,7l.23-.1.13-.06a4.62,4.62,0,0,1,.07.82V8a1.69,1.69,0,0,1,1.53-1.16,1.29,1.29,0,0,1,.9.34A1.06,1.06,0,0,1,614.44,8Z" transform="translate(-0.95 -2.36)"/><path class="cls-1" d="M622.58,14.13q0,.12-.24.12h-.51a2.94,2.94,0,0,0-1.41.32,1.06,1.06,0,0,1-.29.14q-.15,0-.15-.21l0-.53a2.38,2.38,0,0,1-1.74.74,2.93,2.93,0,0,1-2.35-1.11,4.2,4.2,0,0,1-.93-2.81,4.25,4.25,0,0,1,.93-2.85,3,3,0,0,1,2.42-1.09,2,2,0,0,1,1.74.83V5a6.11,6.11,0,0,0-.12-1.6c-.07-.17-.17-.25-.3-.23l-.59,0c-.15,0-.22,0-.22-.16s.06-.15.19-.15l.6,0a3.93,3.93,0,0,0,1.56-.48.27.27,0,0,1,.12,0c.11,0,.17.13.17.41V9.55q0,4,.06,4.32c0,.08.29.12.8.12C622.5,14,622.58,14,622.58,14.13Zm-2.51-4.27a3.87,3.87,0,0,0-.36-2.09,1.43,1.43,0,0,0-1.17-.58,1.66,1.66,0,0,0-1.47,1,5.19,5.19,0,0,0-.54,2.55,6.63,6.63,0,0,0,.47,2.62,1.89,1.89,0,0,0,.61.76,1.36,1.36,0,0,0,.82.3,1.55,1.55,0,0,0,1-.32,1.42,1.42,0,0,0,.56-.76A23.51,23.51,0,0,0,620.07,9.86Z" transform="translate(-0.95 -2.36)"/><path class="cls-1" d="M629.42,12.61a1.47,1.47,0,0,1-.27.61,3.45,3.45,0,0,1-.53.7,2.61,2.61,0,0,1-2,.75,3.38,3.38,0,0,1-2.56-1.1,3.9,3.9,0,0,1-1-2.74,4.23,4.23,0,0,1,1-2.84,3.09,3.09,0,0,1,2.44-1.14,3,3,0,0,1,2,.71,2.41,2.41,0,0,1,.87,1.81,8.55,8.55,0,0,1-1.44.06h-1.19l-2,.06a6.6,6.6,0,0,0-.09,1.06,4.52,4.52,0,0,0,.66,2.64,2.13,2.13,0,0,0,1.84.92,1.74,1.74,0,0,0,1.09-.31,3.72,3.72,0,0,0,.88-1.17.21.21,0,0,1,.19-.13C629.37,12.5,629.42,12.53,629.42,12.61Zm-1.48-3.46q-.08-2-1.47-2c-.91,0-1.49.68-1.71,2Z" transform="translate(-0.95 -2.36)"/><path class="cls-1" d="M638.1,14.37c0,.09-.08.13-.25.13h-3.13c-.15,0-.22,0-.22-.12a.1.1,0,0,1,.09-.1l.66,0c.21,0,.34-.05.37-.1a1.64,1.64,0,0,0,0-.55V10.35a8.93,8.93,0,0,0-.14-2.21,1.11,1.11,0,0,0-1.15-.76,1.76,1.76,0,0,0-1.43.74,1,1,0,0,0-.17.61V14c0,.13.12.21.36.22h.52c.12,0,.17,0,.17.12s-.06.12-.2.12h-3.09c-.17,0-.26,0-.26-.1s.1-.12.31-.14H631c.17,0,.27,0,.31-.12l0-.25v-3.7c0-1.28,0-2,0-2.13s-.17-.21-.43-.21h-.49c-.23,0-.34,0-.34-.12s.12-.17.35-.17a4.74,4.74,0,0,0,1.11-.18,2.29,2.29,0,0,0,.83-.39.44.44,0,0,1,.24-.14c.08,0,.12.11.12.32V8A2.76,2.76,0,0,1,635,6.85a1.92,1.92,0,0,1,1.77.9,4.26,4.26,0,0,1,.3,1.94v3.88a1.69,1.69,0,0,0,0,.59c.07.07.23.1.5.1h.3C638,14.26,638.1,14.3,638.1,14.37Z" transform="translate(-0.95 -2.36)"/><path class="cls-1" d="M641.28,13.68a.9.9,0,0,1-.26.64.87.87,0,0,1-.64.27.9.9,0,0,1-.66-.27.93.93,0,0,1-.26-.66.88.88,0,0,1,.26-.64.9.9,0,0,1,.66-.27A.87.87,0,0,1,641,13,.9.9,0,0,1,641.28,13.68Z" transform="translate(-0.95 -2.36)"/><path class="cls-1" d="M646.09,4.08a1.91,1.91,0,0,1-1,1.8,2.41,2.41,0,0,1-1.14.39c-.12,0-.18,0-.18-.13s.07-.14.2-.17a2.61,2.61,0,0,0,1.09-.53,1.21,1.21,0,0,0,.31-.88,1.44,1.44,0,0,0-.22-.79c0,.39-.25.58-.74.58a.82.82,0,0,1-.86-.85,1,1,0,0,1,.31-.72,1.09,1.09,0,0,1,.78-.3,1.33,1.33,0,0,1,1,.45A1.67,1.67,0,0,1,646.09,4.08Z" transform="translate(-0.95 -2.36)"/><path class="cls-1" d="M650.54,4.08a1.9,1.9,0,0,1-1,1.8,2.44,2.44,0,0,1-1.14.39c-.13,0-.19,0-.19-.13s.07-.14.21-.17a2.56,2.56,0,0,0,1.08-.53,1.17,1.17,0,0,0,.31-.88,1.36,1.36,0,0,0-.22-.79c0,.39-.24.58-.73.58a.84.84,0,0,1-.62-.24A.82.82,0,0,1,648,3.5a1,1,0,0,1,.32-.72,1.06,1.06,0,0,1,.77-.3,1.36,1.36,0,0,1,1,.45A1.66,1.66,0,0,1,650.54,4.08Z" transform="translate(-0.95 -2.36)"/><path class="cls-1" d="M585.68,29.27l-.12.66h-2.42l.09-.66Z" transform="translate(-0.95 -2.36)"/><path class="cls-1" d="M595.71,25.79a1.75,1.75,0,0,1-.45,1.16,2.81,2.81,0,0,1-1.23.82,5.94,5.94,0,0,1-1.83.28l.38.11a1.78,1.78,0,0,1,1,.55,2,2,0,0,1,.24,1.17c0,.12,0,.24,0,.34l-.09,1.06c0,.3,0,.53,0,.68,0,.31.09.46.28.46a.29.29,0,0,0,.18-.07s0-.07,0-.16a.36.36,0,0,1,.09-.24.31.31,0,0,1,.23-.11c.11,0,.17.06.17.18a.52.52,0,0,1-.26.42,1.2,1.2,0,0,1-.64.17,1.07,1.07,0,0,1-1.2-1.22,6.71,6.71,0,0,1,0-.72l.11-.93a6,6,0,0,0,0-.67.76.76,0,0,0-.51-.79,4.91,4.91,0,0,0-.94-.11L589.83,32a.45.45,0,0,0,0,.11c0,.12.14.19.42.23l.21,0h.28s.07,0,.07.06-.09.12-.26.12l-1.42,0h-1l-.44,0c-.1,0-.15,0-.15-.1s.11-.07.33-.08a1.39,1.39,0,0,0,.64-.12c.1,0,.22-.27.38-.67l2.66-6.77a.38.38,0,0,0,0-.17c0-.15-.24-.23-.73-.23-.08,0-.12,0-.12-.08s0-.09.11-.1h.72a4.52,4.52,0,0,0,.55,0h.59c.82,0,1.31,0,1.45.05a1.6,1.6,0,0,1,.67.18A1.4,1.4,0,0,1,595.71,25.79Zm-1.14,0c0-.69-.21-1.13-.62-1.31a2.4,2.4,0,0,0-.87-.1.31.31,0,0,0-.28.14,3.44,3.44,0,0,0-.19.39l-1.18,3,.34,0a3.23,3.23,0,0,0,2-.61A1.86,1.86,0,0,0,594.57,25.8Z" transform="translate(-0.95 -2.36)"/><path class="cls-1" d="M598.35,27.38a.42.42,0,0,1-.06.14c0,.1-.15.29-.27.59l-1.38,3.15a2.8,2.8,0,0,0-.28.79c0,.21.11.32.34.32a1.1,1.1,0,0,0,.52-.16,1.3,1.3,0,0,0,.45-.38c.07-.1.13-.14.17-.14a.06.06,0,0,1,.07.07c0,.09-.11.24-.34.42a1.67,1.67,0,0,1-1.14.43,1.09,1.09,0,0,1-.69-.21.69.69,0,0,1-.27-.56,2.78,2.78,0,0,1,.3-1L597,28.1a1,1,0,0,1,.14-.31.14.14,0,0,0,0-.09c0-.07-.18-.12-.53-.14q-.09,0-.09-.09c0-.07,0-.1.09-.1l.18,0a3.39,3.39,0,0,0,.54,0,2,2,0,0,0,.71-.09l.17,0C598.32,27.28,598.35,27.31,598.35,27.38Zm.83-2.25c0,.34-.16.51-.47.51a.53.53,0,0,1-.39-.15.49.49,0,0,1-.16-.38c0-.33.18-.49.55-.49S599.18,24.79,599.18,25.13Z" transform="translate(-0.95 -2.36)"/><path class="cls-1" d="M604.33,27.81a.56.56,0,0,1-.14.38.43.43,0,0,1-.34.16c-.24,0-.36-.11-.36-.35v-.27q0-.3-.21-.3T602,28.66c-.26.31-.43.5-.5.57a1.3,1.3,0,0,1-.32.18l.24,0c.59.09.88.36.88.81a7.3,7.3,0,0,1-.14,1.28,3.15,3.15,0,0,0-.06.54c0,.16.07.24.22.24a1,1,0,0,0,.67-.41,2.31,2.31,0,0,0,.5-1c0-.14.1-.22.17-.22a.1.1,0,0,1,.1.11,2.47,2.47,0,0,1-.36.87,1.54,1.54,0,0,1-1.4.89.76.76,0,0,1-.85-.87,6.92,6.92,0,0,1,.18-1.27,2.52,2.52,0,0,0,.06-.52.38.38,0,0,0-.31-.37,1.54,1.54,0,0,0-.43-.06,2,2,0,0,0-.36,0l-1.18,2.79-.09.07-.24,0-.3,0-.27,0a.11.11,0,0,1-.07,0c-.05,0-.07,0-.07-.07a.37.37,0,0,1,.06-.15l.14-.34,2.94-7,.12-.3.09-.22a.3.3,0,0,0,0-.11c0-.09-.07-.14-.23-.14l-.28,0-.28,0c-.09,0-.13,0-.13-.08s0-.09.08-.1h.53a8.23,8.23,0,0,0,1.3-.08.27.27,0,0,1,.13,0,.05.05,0,0,1,.06.06,4.07,4.07,0,0,1-.24.62l-1.73,4.07c0,.12-.14.34-.26.66h.4a.69.69,0,0,0,.41-.11,7.45,7.45,0,0,0,.63-.68,7.18,7.18,0,0,1,1-1.07,1.23,1.23,0,0,1,.74-.27C604.08,27.17,604.33,27.39,604.33,27.81Z" transform="translate(-0.95 -2.36)"/><path class="cls-1" d="M610.24,27.81a.55.55,0,0,1-.13.38.44.44,0,0,1-.35.16c-.24,0-.36-.11-.36-.35v-.27c0-.2-.06-.3-.2-.3s-.62.41-1.32,1.23c-.26.31-.43.5-.5.57a1.39,1.39,0,0,1-.33.18l.24,0c.59.09.89.36.89.81a8.42,8.42,0,0,1-.14,1.28,3.15,3.15,0,0,0-.06.54q0,.24.21.24a1,1,0,0,0,.68-.41,2.43,2.43,0,0,0,.5-1c0-.14.09-.22.17-.22s.09,0,.09.11a2.47,2.47,0,0,1-.36.87,1.52,1.52,0,0,1-1.39.89.76.76,0,0,1-.85-.87,6.92,6.92,0,0,1,.18-1.27,2.52,2.52,0,0,0,.06-.52.39.39,0,0,0-.31-.37,1.56,1.56,0,0,0-.44-.06,2,2,0,0,0-.36,0L605,32.32l-.1.07-.24,0-.3,0-.26,0a.12.12,0,0,1-.07,0s-.08,0-.08-.07a.37.37,0,0,1,.06-.15l.15-.34,2.94-7a2.28,2.28,0,0,1,.12-.3l.08-.22a.21.21,0,0,0,0-.11c0-.09-.08-.14-.23-.14l-.28,0-.28,0c-.09,0-.14,0-.14-.08a.09.09,0,0,1,.08-.1H607a8.17,8.17,0,0,0,1.29-.08.3.3,0,0,1,.13,0,.05.05,0,0,1,.06.06,4.07,4.07,0,0,1-.24.62l-1.72,4.07-.27.66h.41a.64.64,0,0,0,.4-.11,7.45,7.45,0,0,0,.63-.68,7.74,7.74,0,0,1,1-1.07,1.23,1.23,0,0,1,.75-.27C610,27.17,610.24,27.39,610.24,27.81Z" transform="translate(-0.95 -2.36)"/><path class="cls-1" d="M615,28.12a1.25,1.25,0,0,1-.69,1.07,3.41,3.41,0,0,1-1.77.42c-.25,0-.54,0-.85-.05a3.94,3.94,0,0,0-.44,1.71c0,.71.31,1.06.94,1.06a2,2,0,0,0,1.43-.75c.11-.11.17-.17.21-.17a.05.05,0,0,1,.06.06c0,.18-.19.41-.57.68a2.26,2.26,0,0,1-1.34.46,1.88,1.88,0,0,1-1.29-.45,1.51,1.51,0,0,1-.5-1.15,3.52,3.52,0,0,1,1.46-2.6,3.71,3.71,0,0,1,2.3-1.1Q615,27.31,615,28.12Zm-.85-.2a.32.32,0,0,0-.37-.37,1.23,1.23,0,0,0-.76.28,4.93,4.93,0,0,0-1.23,1.58h.32a2.43,2.43,0,0,0,1.31-.41A1.29,1.29,0,0,0,614.12,27.92Z" transform="translate(-0.95 -2.36)"/><path class="cls-1" d="M625.74,26.83a5.26,5.26,0,0,1-1,3.13A5.83,5.83,0,0,1,622,32a6.38,6.38,0,0,1-1.25.35,12.83,12.83,0,0,1-1.77.1h-2.5l-.25,0c-.11,0-.17,0-.17-.11s.05-.1.16-.12h.37a1.42,1.42,0,0,0,.7-.11,1.18,1.18,0,0,0,.19-.32c0-.11.12-.29.23-.53l2.42-6a3.61,3.61,0,0,0,.25-.73c0-.1-.12-.16-.37-.19l-.65-.05c-.13,0-.19,0-.19-.09s.08-.08.25-.08.36,0,.72,0h1.56l.6,0h.41a3.75,3.75,0,0,1,1.76.35A2.42,2.42,0,0,1,625.74,26.83Zm-1.19-.39a2,2,0,0,0-.63-1.67,2.17,2.17,0,0,0-1.41-.4,3.32,3.32,0,0,0-.72.05c-.08,0-.17.13-.28.35s-.26.57-.32.74l-2.27,5.73a8.23,8.23,0,0,0-.3.81c0,.12.22.18.65.18a4.64,4.64,0,0,0,3.62-1.56,6.2,6.2,0,0,0,1.21-2A6.1,6.1,0,0,0,624.55,26.44Z" transform="translate(-0.95 -2.36)"/><path class="cls-1" d="M631.38,27.38a1.87,1.87,0,0,1-.1.25l-1.58,3.58a2,2,0,0,0-.23.79.27.27,0,0,0,.31.31,1.24,1.24,0,0,0,.93-.64c.07-.08.12-.13.15-.13a0,0,0,0,1,0,.05q0,.14-.27.42a1.65,1.65,0,0,1-1.26.57.94.94,0,0,1-.6-.19.55.55,0,0,1-.24-.46,1.22,1.22,0,0,1,.09-.42,2.16,2.16,0,0,1-1.75,1.1,1.35,1.35,0,0,1-1-.4,1.38,1.38,0,0,1-.4-1,3,3,0,0,1,.46-1.5,5.43,5.43,0,0,1,1.21-1.48,3,3,0,0,1,1.89-.92.9.9,0,0,1,1,.87l.3-.64c.07-.13.12-.19.17-.19l.14,0,.17,0a1.11,1.11,0,0,0,.41-.06l.08,0C631.35,27.29,631.38,27.32,631.38,27.38Zm-1.52,1a.81.81,0,0,0-.22-.6.77.77,0,0,0-.57-.22,1.51,1.51,0,0,0-1.15.7,8,8,0,0,0-1,1.69,3.92,3.92,0,0,0-.38,1.56c0,.54.22.81.67.81a1.29,1.29,0,0,0,.83-.42,3.44,3.44,0,0,0,.75-1.05l.94-2A1.46,1.46,0,0,0,629.86,28.37Z" transform="translate(-0.95 -2.36)"/><path class="cls-1" d="M636.07,27.86a.6.6,0,0,1-.16.41.45.45,0,0,1-.36.18c-.13,0-.19-.05-.19-.14l0-.12a.31.31,0,0,0,0-.13.26.26,0,0,0-.29-.29c-.23,0-.56.23-1,.68A6.85,6.85,0,0,0,633,30.33l-.86,1.9q-.12.27-.21.27l-.37,0a1.33,1.33,0,0,0-.32,0h-.08c-.07,0-.1,0-.1,0a.09.09,0,0,1,0-.05l.06-.12,2-4.62c0-.07,0-.1-.15-.1h-.33c-.12,0-.18,0-.18-.08s.21-.08.63-.1a2.75,2.75,0,0,0,.84-.11l.1,0c.05,0,.07,0,.07.07a2.54,2.54,0,0,1-.15.45l-.44,1.08c.73-1,1.38-1.54,1.94-1.54C635.87,27.33,636.07,27.51,636.07,27.86Z" transform="translate(-0.95 -2.36)"/><path class="cls-1" d="M639.58,24.07a.88.88,0,0,1-.06.16,2.28,2.28,0,0,1-.12.29l-2.69,6.57a3.29,3.29,0,0,0-.29.95c0,.21.14.32.43.32a1.19,1.19,0,0,0,.86-.51c.12-.14.2-.21.23-.21s.08,0,.08.08-.13.28-.39.51a1.72,1.72,0,0,1-1.18.4c-.66,0-1-.24-1-.73a3.41,3.41,0,0,1,.3-1l2.69-6.57a.42.42,0,0,0,0-.09c0-.07-.07-.11-.23-.11-.35,0-.52,0-.52-.08s0-.06.1-.06h.66a7.12,7.12,0,0,0,.77,0l.18,0C639.54,24,639.58,24,639.58,24.07Z" transform="translate(-0.95 -2.36)"/><path class="cls-1" d="M641.24,27.38a.42.42,0,0,1-.06.14,6,6,0,0,0-.28.59l-1.38,3.15a3,3,0,0,0-.27.79.29.29,0,0,0,.33.32,1.1,1.1,0,0,0,.53-.16,1.18,1.18,0,0,0,.44-.38c.08-.1.13-.14.17-.14s.07,0,.07.07-.11.24-.33.42a1.71,1.71,0,0,1-1.14.43,1.09,1.09,0,0,1-.69-.21.69.69,0,0,1-.27-.56,2.78,2.78,0,0,1,.3-1l1.25-2.78a1,1,0,0,1,.14-.31.14.14,0,0,0,0-.09c0-.07-.18-.12-.53-.14-.06,0-.1,0-.1-.09a.09.09,0,0,1,.1-.1l.18,0a3.39,3.39,0,0,0,.54,0,2,2,0,0,0,.71-.09.58.58,0,0,1,.17,0C641.21,27.28,641.24,27.31,641.24,27.38Zm.83-2.25c0,.34-.16.51-.47.51a.57.57,0,0,1-.4-.15.52.52,0,0,1-.15-.38c0-.33.18-.49.55-.49S642.07,24.79,642.07,25.13Z" transform="translate(-0.95 -2.36)"/><path class="cls-1" d="M646.63,28.24a3.12,3.12,0,0,1-.32,1l-1,2.2a1.8,1.8,0,0,0-.17.52c0,.17.1.25.29.25a1.92,1.92,0,0,0,1-.55l.09,0c.05,0,.08,0,.08.06s-.14.23-.4.42a2.1,2.1,0,0,1-1.17.37,1.13,1.13,0,0,1-.61-.16.48.48,0,0,1-.25-.42,2.21,2.21,0,0,1,.23-.72l1-2.16a3.48,3.48,0,0,0,.35-1.06c0-.28-.14-.41-.42-.41a2,2,0,0,0-1.3.79A5.92,5.92,0,0,0,643,30l-1,2.28c0,.12-.09.18-.16.18H641q-.09,0-.09-.06s0,0,0-.07l.08-.18,1.84-4.4.06-.1c0-.06-.11-.09-.3-.1s-.36-.05-.36-.13,0-.09.13-.09l.26,0,.28,0a2.55,2.55,0,0,0,.85-.09l.11,0s.07,0,.07.07,0,.05,0,.06l-.45,1.13.28-.31a2.48,2.48,0,0,1,1.72-.95,1.12,1.12,0,0,1,.78.27A.89.89,0,0,1,646.63,28.24Z" transform="translate(-0.95 -2.36)"/><path class="cls-1" d="M652.76,27.76q0,.39-.36.39c-.23,0-.34-.11-.34-.33a.19.19,0,0,1,0-.07.74.74,0,0,1,0-.12s0-.06-.07-.06-.2.09-.34.26a.75.75,0,0,0-.23.39.3.3,0,0,0,0,.14,1.8,1.8,0,0,1,.15.73,2.07,2.07,0,0,1-.57,1.45,2,2,0,0,1-1.52.59,2.11,2.11,0,0,1-1.25-.39c-.62.22-.92.45-.92.72s.12.27.35.31a3.45,3.45,0,0,0,.76.08h1a4.45,4.45,0,0,1,1,.08,1.15,1.15,0,0,1,.89,1.29,2.3,2.3,0,0,1-.68,1.66,2.71,2.71,0,0,1-2,.74,3.14,3.14,0,0,1-1.66-.43,1.49,1.49,0,0,1-.88-1.23,1,1,0,0,1,.45-.82,4.48,4.48,0,0,1,.9-.41c-.47-.19-.7-.47-.7-.84,0-.61.47-1,1.39-1.31a1.68,1.68,0,0,1-.38-1,2.18,2.18,0,0,1,.68-1.59,2.23,2.23,0,0,1,1.61-.66,1.5,1.5,0,0,1,1.23.65c.29-.46.61-.69.93-.69S652.76,27.43,652.76,27.76ZM651,33.67a.83.83,0,0,0-.19-.54.86.86,0,0,0-.48-.29,6,6,0,0,0-1.26-.07h-1.36a1.23,1.23,0,0,0-.74,1.16,1.36,1.36,0,0,0,.47,1.07,1.89,1.89,0,0,0,1.26.41,2.6,2.6,0,0,0,1.61-.53A1.49,1.49,0,0,0,651,33.67Zm-.21-5.33c0-.56-.24-.84-.7-.84s-.73.34-1,1a3.86,3.86,0,0,0-.4,1.63.69.69,0,0,0,.77.78c.38,0,.7-.31,1-.93A4,4,0,0,0,650.82,28.34Z" transform="translate(-0.95 -2.36)"/></g></g></svg>
