<svg xmlns="http://www.w3.org/2000/svg" viewBox="0 0 517.96 33.24"><defs><style>.cls-1{fill:#969494;}</style></defs><title>citat2@36x-100</title><g id="Layer_2" data-name="Layer 2"><g id="Layer_1-2" data-name="Layer 1"><path class="cls-1" d="M3.48,5.15a1,1,0,0,1-.31.72,1.06,1.06,0,0,1-.76.3,1.35,1.35,0,0,1-1-.45A1.65,1.65,0,0,1,1,4.57a1.89,1.89,0,0,1,1-1.8,2.55,2.55,0,0,1,1.14-.39c.12,0,.18,0,.18.14s-.06.13-.2.17c-.93.25-1.39.72-1.39,1.42a1.32,1.32,0,0,0,.23.77c0-.39.26-.58.72-.58a.83.83,0,0,1,.62.25A.81.81,0,0,1,3.48,5.15Z" transform="translate(-0.95 -2.38)"/><path class="cls-1" d="M8,4.08a1.92,1.92,0,0,1-1,1.8,2.48,2.48,0,0,1-1.14.39c-.13,0-.19,0-.19-.13S5.73,6,5.87,6A2.56,2.56,0,0,0,7,5.44a1.17,1.17,0,0,0,.31-.88A1.36,1.36,0,0,0,7,3.77c0,.39-.25.58-.73.58a.84.84,0,0,1-.62-.24.82.82,0,0,1-.25-.61,1,1,0,0,1,.31-.72,1.09,1.09,0,0,1,.78-.3,1.32,1.32,0,0,1,1,.45A1.62,1.62,0,0,1,8,4.08Z" transform="translate(-0.95 -2.38)"/><path class="cls-1" d="M21.61,14.36c0,.09-.12.14-.36.14H17q-.36,0-.36-.15c0-.12.16-.17.49-.17.58,0,.93-.06,1.06-.19a3.82,3.82,0,0,0,.08-1.14V4l-.2.59c-.46,1.37-1.12,3.44-2,6.19l-.79,2.7c-.16.54-.27.8-.34.8s-.17-.13-.26-.4c-.32-1-1.25-3.61-2.77-7.73l-.68-1.81v6.41c0,2.07,0,3.12.05,3.14s.35.22.82.22.56.06.56.17-.12.19-.36.19a2.63,2.63,0,0,1-.41,0,2.19,2.19,0,0,0-.42,0l-2,.07q-.3,0-.3-.15c0-.12.32-.18,1-.19.27,0,.43,0,.47-.14a2.8,2.8,0,0,0,.07-.88V5q0-1.41,0-1.53a.45.45,0,0,0-.29-.32A4.25,4.25,0,0,0,9.49,3c-.19,0-.28-.06-.28-.15s.17-.19.5-.19h2.62c.05.15.38,1,1,2.67.26.69,1,2.67,2.18,6,.21-.74.43-1.47.65-2.18L18,3.47c.11-.32.21-.59.3-.8l2.52,0a2.23,2.23,0,0,1,.64.05.18.18,0,0,1,.09.16c0,.11-.1.17-.29.17a4.49,4.49,0,0,0-.65,0,.89.89,0,0,0-.56.27,9.64,9.64,0,0,0-.09,2v7.93c0,.45,0,.72.14.8a2.47,2.47,0,0,0,1.11.15h.1C21.49,14.21,21.61,14.26,21.61,14.36Z" transform="translate(-0.95 -2.38)"/><path class="cls-1" d="M25.86,14.37c0,.1-.1.15-.29.15l-.41,0-.85,0H22.54a.27.27,0,0,1-.2.07c-.13,0-.19,0-.19-.13s.11-.18.34-.18a1.64,1.64,0,0,0,.71-.09,2,2,0,0,0,.06-.71V8.26a3.25,3.25,0,0,0-.05-.5s-.08-.08-.21-.08h-.66c-.13,0-.19,0-.19-.12s.1-.1.29-.11a4.15,4.15,0,0,0,1.93-.53l.16-.1a2.18,2.18,0,0,1,.14.93v5.46c0,.45,0,.72,0,.8a.21.21,0,0,0,.18.15,2.87,2.87,0,0,0,.75.07C25.78,14.23,25.86,14.27,25.86,14.37ZM24.58,3.77a.68.68,0,0,1-.76.77.77.77,0,0,1-.55-.21.74.74,0,0,1-.22-.52.7.7,0,0,1,.77-.8A.67.67,0,0,1,24.58,3.77Z" transform="translate(-0.95 -2.38)"/><path class="cls-1" d="M34.26,14.37c0,.09-.09.13-.26.13H30.87c-.15,0-.22,0-.22-.12a.1.1,0,0,1,.09-.1l.66,0c.21,0,.34-.05.37-.1a1.39,1.39,0,0,0,.05-.55V10.35a9.79,9.79,0,0,0-.13-2.21,1.12,1.12,0,0,0-1.16-.76,1.78,1.78,0,0,0-1.43.74,1,1,0,0,0-.17.61V14c0,.13.13.21.37.22h.52c.11,0,.17,0,.17.12s-.07.12-.21.12H26.69c-.17,0-.25,0-.25-.1s.1-.12.3-.14h.43q.25,0,.3-.12l.05-.25v-3.7c0-1.28,0-2,0-2.13s-.17-.21-.43-.21h-.49c-.23,0-.34,0-.34-.12s.12-.17.36-.17a4.58,4.58,0,0,0,1.1-.18A2.35,2.35,0,0,0,28.53,7a.46.46,0,0,1,.23-.14c.08,0,.12.11.12.32V8a2.76,2.76,0,0,1,2.28-1.14,1.9,1.9,0,0,1,1.77.9,4.23,4.23,0,0,1,.31,1.94v3.88c0,.36,0,.56,0,.59s.23.1.49.1h.31C34.2,14.26,34.26,14.3,34.26,14.37Z" transform="translate(-0.95 -2.38)"/><path class="cls-1" d="M46.14,14.35q0,.12-.63.12l-.92,0-1.19,0c-.15,0-.37,0-.67,0l-.67,0c-.1,0-.16,0-.16-.12s.11-.14.33-.14q.81,0,.81-.27a25.53,25.53,0,0,0-2.85-3.42V14q0,.26.48.24h.47c.15,0,.22,0,.22.12s-.12.14-.37.14H38.06c-.27,0-.41-.05-.41-.15a.11.11,0,0,1,.08-.11l.59,0c.27,0,.41-.08.42-.19a4.54,4.54,0,0,0,0-.88V4.81c0-.89,0-1.36,0-1.39s-.19-.12-.49-.12h-.45c-.12,0-.18,0-.18-.13S37.77,3,38,3a3.72,3.72,0,0,0,1.7-.49A.74.74,0,0,1,40,2.43c.13,0,.19.47.19,1.41v6.28a16.69,16.69,0,0,0,2.75-2.71c0-.07-.22-.1-.66-.1h-.53c-.2,0-.3,0-.3-.14S41.62,7,42,7h2.38c.41,0,.65,0,.72,0a.11.11,0,0,1,.1.12c0,.08-.27.12-.8.13a1.9,1.9,0,0,0-.7.09,2.12,2.12,0,0,0-.39.31L41.16,9.75q2.36,2.58,3.35,3.8a2,2,0,0,0,.64.59,2.29,2.29,0,0,0,.83.07C46.09,14.21,46.14,14.26,46.14,14.35Z" transform="translate(-0.95 -2.38)"/><path class="cls-1" d="M53.94,13.89c0,.08-.12.12-.37.13a6.14,6.14,0,0,0-2.33.58l-.12,0c-.07,0-.1-.05-.1-.14v-.95a2.55,2.55,0,0,1-2.18,1.09,2.1,2.1,0,0,1-1.79-.73,1.46,1.46,0,0,1-.26-.56,11.91,11.91,0,0,1,0-1.36V8.12a1.75,1.75,0,0,0-.07-.69c0-.07-.2-.11-.46-.12H46c-.3,0-.46,0-.46-.14s.1-.12.29-.12.5,0,.89,0l.34,0a7.63,7.63,0,0,0,1.1-.07v4.73a5.65,5.65,0,0,0,.17,1.72,1.08,1.08,0,0,0,1.11.66,1.42,1.42,0,0,0,1.32-.74,3.6,3.6,0,0,0,.31-1.73V9.07a5.78,5.78,0,0,0,0-.86V7.65c0-.17-.05-.27-.11-.3a1.13,1.13,0,0,0-.39,0c-.47,0-.71,0-.71-.15s.12-.11.36-.11h2.31V11.8a14.65,14.65,0,0,0,.05,1.54c0,.22.12.34.26.38a5.78,5.78,0,0,0,1,0C53.87,13.77,53.94,13.81,53.94,13.89Z" transform="translate(-0.95 -2.38)"/><path class="cls-1" d="M62,14.37c0,.09-.08.13-.25.13H58.65c-.15,0-.22,0-.22-.12a.1.1,0,0,1,.09-.1l.66,0c.21,0,.34-.05.37-.1a1.64,1.64,0,0,0,.05-.55V10.35a9.79,9.79,0,0,0-.13-2.21,1.13,1.13,0,0,0-1.16-.76,1.76,1.76,0,0,0-1.43.74,1,1,0,0,0-.17.61V14c0,.13.12.21.36.22h.52q.18,0,.18.12t-.21.12H54.47c-.17,0-.26,0-.26-.1s.1-.12.31-.14h.42c.17,0,.28,0,.31-.12l0-.25v-3.7c0-1.28,0-2,0-2.13s-.17-.21-.43-.21h-.49c-.23,0-.34,0-.34-.12s.12-.17.36-.17a4.66,4.66,0,0,0,1.1-.18A2.29,2.29,0,0,0,56.3,7c.11-.09.18-.14.24-.14s.12.11.12.32V8a2.76,2.76,0,0,1,2.28-1.14,1.92,1.92,0,0,1,1.77.9A4.26,4.26,0,0,1,61,9.69v3.88a1.69,1.69,0,0,0,.05.59.79.79,0,0,0,.5.1h.3C62,14.26,62,14.3,62,14.37Z" transform="translate(-0.95 -2.38)"/><path class="cls-1" d="M67.81,12.3A2.27,2.27,0,0,1,67.1,14a2.39,2.39,0,0,1-1.72.69,3.2,3.2,0,0,1-1.4-.41.86.86,0,0,0-.39-.12c-.16,0-.27.11-.35.33s-.11.2-.19.2-.12-.05-.12-.13V12.26c0-.13,0-.19.12-.19s.14.06.16.19a2.46,2.46,0,0,0,.44,1.23,2.18,2.18,0,0,0,1.82.89,1.36,1.36,0,0,0,1-.36,1.23,1.23,0,0,0,.38-.95A1.39,1.39,0,0,0,66.4,12,2,2,0,0,0,66,11.7c-.13-.06-.51-.21-1.15-.45-1.26-.48-1.89-1.2-1.89-2.15a2.2,2.2,0,0,1,.64-1.6,2.16,2.16,0,0,1,1.59-.65,4.14,4.14,0,0,1,1,.2.94.94,0,0,0,.31.06.41.41,0,0,0,.43-.34c0-.12.09-.17.16-.17s.11,0,.11.13v.82a9.69,9.69,0,0,0,.09,1.31v0a.13.13,0,0,1-.14.14c-.07,0-.15-.17-.25-.52a2,2,0,0,0-.66-1,1.67,1.67,0,0,0-1.08-.38,1.32,1.32,0,0,0-1,.36,1.19,1.19,0,0,0-.37.9c0,.57.38,1,1.14,1.3a8,8,0,0,1,2.24,1.15A1.94,1.94,0,0,1,67.81,12.3Z" transform="translate(-0.95 -2.38)"/><path class="cls-1" d="M73.41,13.46c0,.11-.15.29-.43.55a2.49,2.49,0,0,1-1.73.66,1.92,1.92,0,0,1-1.41-.47c-.19-.18-.28-.72-.28-1.6v-5a.18.18,0,0,0-.18-.19h-.65c-.25,0-.37,0-.37-.12s.06-.12.18-.13A2.61,2.61,0,0,0,70.6,5.8a.31.31,0,0,1,.26-.16c.08,0,.11,0,.11.12v.36A4,4,0,0,0,71,7a3,3,0,0,0,.51,0A6.21,6.21,0,0,0,72.79,7l.12,0c.09,0,.14,0,.14.15s-.46.24-1.38.24H71v3.15a21.26,21.26,0,0,0,.12,3,.71.71,0,0,0,.79.6,2,2,0,0,0,1.25-.63.23.23,0,0,1,.16-.08C73.37,13.38,73.41,13.41,73.41,13.46Z" transform="translate(-0.95 -2.38)"/><path class="cls-1" d="M80.36,14.37c0,.1-.1.15-.29.15l-.41,0-.85,0H77a.27.27,0,0,1-.2.07c-.13,0-.19,0-.19-.13s.12-.18.34-.18a1.64,1.64,0,0,0,.71-.09,2,2,0,0,0,.06-.71V8.26a2.27,2.27,0,0,0-.05-.5s-.08-.08-.21-.08h-.66c-.13,0-.19,0-.19-.12s.1-.1.29-.11a4.15,4.15,0,0,0,1.93-.53l.16-.1a2.18,2.18,0,0,1,.14.93v5.46c0,.45,0,.72,0,.8a.21.21,0,0,0,.18.15,2.87,2.87,0,0,0,.75.07C80.28,14.23,80.36,14.27,80.36,14.37ZM79.08,3.77a.68.68,0,0,1-.76.77.77.77,0,0,1-.55-.21.74.74,0,0,1-.22-.52.7.7,0,0,1,.77-.8A.67.67,0,0,1,79.08,3.77Z" transform="translate(-0.95 -2.38)"/><path class="cls-1" d="M88.76,14.37c0,.09-.09.13-.26.13H85.37c-.14,0-.22,0-.22-.12s0-.09.1-.1l.65,0c.22,0,.34-.05.37-.1a1.31,1.31,0,0,0,.06-.55V10.35a9.51,9.51,0,0,0-.14-2.21A1.12,1.12,0,0,0,85,7.38a1.75,1.75,0,0,0-1.42.74.94.94,0,0,0-.17.61V14c0,.13.12.21.36.22h.52c.11,0,.17,0,.17.12s-.07.12-.2.12h-3.1c-.17,0-.25,0-.25-.1s.1-.12.3-.14h.43q.26,0,.3-.12l0-.25v-3.7c0-1.28,0-2,0-2.13s-.16-.21-.42-.21h-.5c-.22,0-.34,0-.34-.12s.12-.17.36-.17a4.58,4.58,0,0,0,1.1-.18A2.35,2.35,0,0,0,83,7a.44.44,0,0,1,.24-.14c.07,0,.11.11.11.32V8a2.76,2.76,0,0,1,2.28-1.14,1.9,1.9,0,0,1,1.77.9,4.23,4.23,0,0,1,.31,1.94v3.88c0,.36,0,.56.05.59a.75.75,0,0,0,.49.1h.31C88.7,14.26,88.76,14.3,88.76,14.37Z" transform="translate(-0.95 -2.38)"/><path class="cls-1" d="M97,14.13q0,.12-.24.12H96.2a2.94,2.94,0,0,0-1.41.32,1.06,1.06,0,0,1-.29.14q-.15,0-.15-.21l0-.53a2.38,2.38,0,0,1-1.74.74,2.93,2.93,0,0,1-2.35-1.11,4.2,4.2,0,0,1-.93-2.81,4.25,4.25,0,0,1,.93-2.85A3,3,0,0,1,92.7,6.85a2,2,0,0,1,1.73.83V5a6.3,6.3,0,0,0-.11-1.6c-.07-.17-.17-.25-.3-.23l-.59,0c-.15,0-.22,0-.22-.16s.06-.15.19-.15L94,3a3.93,3.93,0,0,0,1.56-.48.27.27,0,0,1,.12,0c.11,0,.17.13.17.41V9.55q0,4,.06,4.32c0,.08.29.12.8.12C96.87,14,97,14,97,14.13ZM94.43,9.86a3.9,3.9,0,0,0-.35-2.09,1.44,1.44,0,0,0-1.18-.58,1.64,1.64,0,0,0-1.46,1,5.19,5.19,0,0,0-.54,2.55,6.63,6.63,0,0,0,.47,2.62,1.89,1.89,0,0,0,.61.76,1.34,1.34,0,0,0,.82.3,1.55,1.55,0,0,0,1-.32,1.42,1.42,0,0,0,.56-.76A24.33,24.33,0,0,0,94.43,9.86Z" transform="translate(-0.95 -2.38)"/><path class="cls-1" d="M103.78,12.61a1.41,1.41,0,0,1-.26.61,3.47,3.47,0,0,1-.54.7,2.58,2.58,0,0,1-2,.75,3.38,3.38,0,0,1-2.56-1.1,3.9,3.9,0,0,1-1-2.74,4.23,4.23,0,0,1,1-2.84,3.09,3.09,0,0,1,2.44-1.14,3,3,0,0,1,2,.71,2.41,2.41,0,0,1,.87,1.81,8.55,8.55,0,0,1-1.44.06h-1.19l-2,.06A6.6,6.6,0,0,0,99,10.55a4.6,4.6,0,0,0,.65,2.64,2.16,2.16,0,0,0,1.85.92,1.74,1.74,0,0,0,1.09-.31,3.72,3.72,0,0,0,.88-1.17.21.21,0,0,1,.19-.13C103.74,12.5,103.78,12.53,103.78,12.61Zm-1.47-3.46q-.07-2-1.47-2t-1.71,2Z" transform="translate(-0.95 -2.38)"/><path class="cls-1" d="M111.89,10.42a4.42,4.42,0,0,1-1.07,3,3.27,3.27,0,0,1-2.58,1.24,3.08,3.08,0,0,1-1.11-.22,2.61,2.61,0,0,0-.78-.22.74.74,0,0,0-.42.16.74.74,0,0,1-.36.16c-.09,0-.14-.18-.14-.56V5.15c0-1.14-.07-1.76-.22-1.85a2,2,0,0,0-.66,0c-.27,0-.41,0-.41-.14s.06-.12.19-.12h.24a4.36,4.36,0,0,0,1.8-.39,1,1,0,0,1,.36-.12h.06V7.82a2.17,2.17,0,0,1,1.94-1,2.94,2.94,0,0,1,2.3,1A3.78,3.78,0,0,1,111.89,10.42Zm-1.54.08A4.9,4.9,0,0,0,109.84,8a1.55,1.55,0,0,0-1.41-.87,1.52,1.52,0,0,0-.9.3,1.47,1.47,0,0,0-.58.74,11.83,11.83,0,0,0-.16,2.68,17,17,0,0,0,.12,2.78c.13.47.54.71,1.25.71a1.63,1.63,0,0,0,1.49-.76A6,6,0,0,0,110.35,10.5Z" transform="translate(-0.95 -2.38)"/><path class="cls-1" d="M123.16,12.61a1.39,1.39,0,0,1-.24.58,4.45,4.45,0,0,1-.5.68,2.81,2.81,0,0,1-2.08.8,3.27,3.27,0,0,1-3.08-1.77A2.5,2.5,0,0,1,115,14.67a1.89,1.89,0,0,1-1.35-.46,1.54,1.54,0,0,1-.5-1.22,2.59,2.59,0,0,1,1.68-2.26A10.3,10.3,0,0,1,117,10a7.81,7.81,0,0,0-.17-2,1.15,1.15,0,0,0-1.19-.88,1.68,1.68,0,0,0-1,.3.9.9,0,0,0-.42.73c0,.12.09.17.27.17a.43.43,0,0,1,.33.22A.72.72,0,0,1,115,9a.65.65,0,0,1-.74.73.9.9,0,0,1-.64-.25.85.85,0,0,1-.26-.64A1.85,1.85,0,0,1,114,7.46a2.68,2.68,0,0,1,1.92-.61,3.16,3.16,0,0,1,1.25.21,3.4,3.4,0,0,1,1,.76,2.57,2.57,0,0,1,2.07-1A2.74,2.74,0,0,1,123.1,9a14,14,0,0,1-2.84.68l-1.14.21-.75.13c0,.15,0,.36,0,.62a3.7,3.7,0,0,0,.94,2.83,2.1,2.1,0,0,0,1.51.58,2.16,2.16,0,0,0,2-1.46.21.21,0,0,1,.19-.13C123.12,12.5,123.16,12.53,123.16,12.61ZM117,10.3c-1.73.41-2.6,1.19-2.6,2.35a1.25,1.25,0,0,0,.36.94,1.32,1.32,0,0,0,1,.35q1.13,0,1.26-1.8C117,12,117,11.38,117,10.3Zm4.76-1.23c-.25-1.31-.79-2-1.61-2-1.07,0-1.67.86-1.81,2.6A21.46,21.46,0,0,0,121.77,9.07Z" transform="translate(-0.95 -2.38)"/><path class="cls-1" d="M129.32,8a.92.92,0,0,1-.24.65.79.79,0,0,1-.61.25.72.72,0,0,1-.51-.18.57.57,0,0,1-.21-.45.54.54,0,0,1,.16-.4.57.57,0,0,0,.15-.24c0-.17-.12-.26-.37-.26a1,1,0,0,0-.82.59,5.85,5.85,0,0,0-.39,2.58v3.34a.25.25,0,0,0,.14.26,5.67,5.67,0,0,0,.88.07c.12,0,.19.06.19.13s-.08.12-.23.12h-3.29c-.18,0-.27,0-.27-.1s.07-.1.22-.1h.23c.39,0,.62-.05.68-.14a2.28,2.28,0,0,0,0-.63V8.83c0-.63-.1-1-.28-1.09a2.31,2.31,0,0,0-.89-.16q-.21,0-.21-.12c0-.08.06-.12.17-.12H124a4.36,4.36,0,0,1,.51,0l.22,0A3.27,3.27,0,0,0,126.1,7l.23-.1.13-.06a4.62,4.62,0,0,1,.07.82V8a1.69,1.69,0,0,1,1.53-1.16,1.29,1.29,0,0,1,.9.34A1.06,1.06,0,0,1,129.32,8Z" transform="translate(-0.95 -2.38)"/><path class="cls-1" d="M136.2,12.61a1.41,1.41,0,0,1-.26.61,3.87,3.87,0,0,1-.54.7,2.58,2.58,0,0,1-2,.75,3.38,3.38,0,0,1-2.56-1.1,3.86,3.86,0,0,1-1-2.74,4.23,4.23,0,0,1,1-2.84,3.07,3.07,0,0,1,2.44-1.14,3,3,0,0,1,2,.71,2.44,2.44,0,0,1,.87,1.81,8.67,8.67,0,0,1-1.45.06h-1.19l-2,.06a7.92,7.92,0,0,0-.08,1.06,4.6,4.6,0,0,0,.65,2.64,2.15,2.15,0,0,0,1.85.92A1.76,1.76,0,0,0,135,13.8a3.72,3.72,0,0,0,.88-1.17.21.21,0,0,1,.19-.13C136.16,12.5,136.2,12.53,136.2,12.61Zm-1.48-3.46c0-1.36-.53-2-1.46-2s-1.49.68-1.72,2Z" transform="translate(-0.95 -2.38)"/><path class="cls-1" d="M142.37,8a1,1,0,0,1-.23.65.81.81,0,0,1-.62.25.76.76,0,0,1-.51-.18.59.59,0,0,1-.2-.45.57.57,0,0,1,.15-.4c.1-.12.16-.2.16-.24s-.13-.26-.38-.26a1,1,0,0,0-.81.59,5.85,5.85,0,0,0-.39,2.58v3.34c0,.14,0,.22.14.26a5.67,5.67,0,0,0,.88.07c.12,0,.18.06.18.13s-.07.12-.22.12h-3.3c-.18,0-.27,0-.27-.1s.07-.1.22-.1h.24c.39,0,.61-.05.68-.14a3.24,3.24,0,0,0,0-.63V8.83c0-.63-.09-1-.28-1.09a2.24,2.24,0,0,0-.89-.16c-.14,0-.2,0-.2-.12s.05-.12.17-.12H137a4.36,4.36,0,0,1,.51,0l.22,0A3.27,3.27,0,0,0,139.16,7l.22-.1.14-.06a5.79,5.79,0,0,1,.07.82V8a1.69,1.69,0,0,1,1.53-1.16,1.29,1.29,0,0,1,.9.34A1.09,1.09,0,0,1,142.37,8Z" transform="translate(-0.95 -2.38)"/><path class="cls-1" d="M152.42,12.61a1.55,1.55,0,0,1-.26.61,3.87,3.87,0,0,1-.54.7,2.61,2.61,0,0,1-2,.75,3.37,3.37,0,0,1-2.56-1.1,3.86,3.86,0,0,1-1-2.74,4.23,4.23,0,0,1,1-2.84,3.07,3.07,0,0,1,2.44-1.14,3,3,0,0,1,2,.71,2.47,2.47,0,0,1,.87,1.81,8.73,8.73,0,0,1-1.45.06h-1.19l-2,.06a6.55,6.55,0,0,0-.08,1.06,4.52,4.52,0,0,0,.65,2.64,2.15,2.15,0,0,0,1.85.92,1.71,1.71,0,0,0,1.08-.31,3.57,3.57,0,0,0,.89-1.17.2.2,0,0,1,.18-.13C152.38,12.5,152.42,12.53,152.42,12.61Zm-1.48-3.46c0-1.36-.53-2-1.46-2s-1.49.68-1.72,2Z" transform="translate(-0.95 -2.38)"/><path class="cls-1" d="M161.11,14.37c0,.09-.09.13-.26.13h-3.13c-.14,0-.22,0-.22-.12s0-.09.1-.1l.65,0c.22,0,.34-.05.38-.1a1.64,1.64,0,0,0,.05-.55V10.35a9.51,9.51,0,0,0-.14-2.21,1.12,1.12,0,0,0-1.16-.76,1.75,1.75,0,0,0-1.42.74.94.94,0,0,0-.17.61V14c0,.13.12.21.36.22h.52c.11,0,.17,0,.17.12s-.07.12-.2.12h-3.1c-.17,0-.25,0-.25-.1s.1-.12.3-.14H154q.25,0,.3-.12l.06-.25v-3.7c0-1.28,0-2,0-2.13s-.16-.21-.42-.21h-.5c-.22,0-.34,0-.34-.12s.12-.17.36-.17a4.74,4.74,0,0,0,1.11-.18,2.38,2.38,0,0,0,.83-.39.44.44,0,0,1,.24-.14c.08,0,.12.11.12.32V8A2.73,2.73,0,0,1,158,6.85a1.9,1.9,0,0,1,1.77.9,4.1,4.1,0,0,1,.31,1.94v3.88c0,.36,0,.56,0,.59a.75.75,0,0,0,.49.1h.31C161.05,14.26,161.11,14.3,161.11,14.37Z" transform="translate(-0.95 -2.38)"/><path class="cls-1" d="M169.49,13.46c0,.11-.14.29-.43.55a2.48,2.48,0,0,1-1.73.66,2,2,0,0,1-1.41-.47,2.77,2.77,0,0,1-.27-1.6v-5a.2.2,0,0,0-.19-.19h-.65c-.25,0-.37,0-.37-.12s.06-.12.18-.13a2.64,2.64,0,0,0,2.07-1.31.3.3,0,0,1,.25-.16.11.11,0,0,1,.12.12v.36a3.49,3.49,0,0,0,.07.92,3,3,0,0,0,.51,0A6.36,6.36,0,0,0,168.88,7L169,7c.09,0,.13,0,.13.15s-.46.24-1.38.24h-.69v3.15a21.26,21.26,0,0,0,.12,3,.7.7,0,0,0,.78.6,2,2,0,0,0,1.26-.63.19.19,0,0,1,.15-.08C169.45,13.38,169.49,13.41,169.49,13.46Z" transform="translate(-0.95 -2.38)"/><path class="cls-1" d="M173.28,14.37c0,.1-.1.15-.29.15l-.41,0-.85,0H170a.27.27,0,0,1-.2.07c-.12,0-.19,0-.19-.13s.12-.18.34-.18a1.64,1.64,0,0,0,.71-.09,2,2,0,0,0,.06-.71V8.26a4,4,0,0,0,0-.5s-.09-.08-.22-.08h-.66c-.12,0-.19,0-.19-.12s.1-.1.29-.11a4.15,4.15,0,0,0,1.93-.53l.17-.1a2.4,2.4,0,0,1,.13.93v5.46a5.56,5.56,0,0,0,0,.8c0,.08.07.13.17.15a2.87,2.87,0,0,0,.75.07C173.2,14.23,173.28,14.27,173.28,14.37ZM172,3.77a.68.68,0,0,1-.76.77.73.73,0,0,1-.54-.21.71.71,0,0,1-.23-.52.7.7,0,0,1,.77-.8A.67.67,0,0,1,172,3.77Z" transform="translate(-0.95 -2.38)"/><path class="cls-1" d="M177.27,14.35c0,.1-.07.15-.22.15h-.2l-.9,0h-.53l-1.36,0h-.2c-.17,0-.26,0-.26-.14s.06-.11.19-.11h.44q.48,0,.48-.21c0-.07,0-.51,0-1.32V4.06a2.81,2.81,0,0,0,0-.61c0-.09-.12-.14-.27-.14h-.61c-.16,0-.24,0-.24-.14S173.71,3,174,3a4.25,4.25,0,0,0,1.52-.38l.35-.17.14,0a5.82,5.82,0,0,1,.12,1.5v9.53a3.84,3.84,0,0,0,0,.61.15.15,0,0,0,.11.12,3.12,3.12,0,0,0,.63,0Q177.27,14.23,177.27,14.35Z" transform="translate(-0.95 -2.38)"/><path class="cls-1" d="M182.58,13.46c0,.11-.14.29-.43.55a2.48,2.48,0,0,1-1.73.66A2,2,0,0,1,179,14.2a2.77,2.77,0,0,1-.27-1.6v-5a.2.2,0,0,0-.19-.19h-.65c-.25,0-.37,0-.37-.12s.06-.12.18-.13a2.64,2.64,0,0,0,2.07-1.31.3.3,0,0,1,.25-.16.11.11,0,0,1,.12.12v.36a3.49,3.49,0,0,0,.07.92,3,3,0,0,0,.51,0A6.36,6.36,0,0,0,182,7l.12,0c.09,0,.13,0,.13.15s-.46.24-1.38.24h-.69v3.15a21.26,21.26,0,0,0,.12,3,.7.7,0,0,0,.78.6,2,2,0,0,0,1.26-.63.19.19,0,0,1,.15-.08C182.54,13.38,182.58,13.41,182.58,13.46Z" transform="translate(-0.95 -2.38)"/><path class="cls-1" d="M188,8a1,1,0,0,1-.23.65.81.81,0,0,1-.62.25.76.76,0,0,1-.51-.18.59.59,0,0,1-.2-.45.57.57,0,0,1,.15-.4c.11-.12.16-.2.16-.24s-.13-.26-.38-.26a1,1,0,0,0-.81.59,5.85,5.85,0,0,0-.39,2.58v3.34c0,.14,0,.22.14.26a5.67,5.67,0,0,0,.88.07c.12,0,.18.06.18.13s-.07.12-.22.12h-3.3c-.18,0-.27,0-.27-.1s.07-.1.22-.1H183c.39,0,.61-.05.68-.14a3.24,3.24,0,0,0,0-.63V8.83c0-.63-.09-1-.28-1.09a2.24,2.24,0,0,0-.89-.16c-.13,0-.2,0-.2-.12s0-.12.17-.12h.12a4.36,4.36,0,0,1,.51,0l.22,0A3.27,3.27,0,0,0,184.77,7l.22-.1.14-.06a5.79,5.79,0,0,1,.07.82V8a1.69,1.69,0,0,1,1.53-1.16,1.29,1.29,0,0,1,.9.34A1.05,1.05,0,0,1,188,8Z" transform="translate(-0.95 -2.38)"/><path class="cls-1" d="M195.65,10.79a4,4,0,0,1-1,2.77,3.23,3.23,0,0,1-2.5,1.11,3.38,3.38,0,0,1-2.58-1.11,3.88,3.88,0,0,1-1-2.77,4.08,4.08,0,0,1,1-2.82,3.25,3.25,0,0,1,2.52-1.12A3.32,3.32,0,0,1,194.62,8,4,4,0,0,1,195.65,10.79Zm-1.55,0a6.1,6.1,0,0,0-.57-2.91,1.51,1.51,0,0,0-1.43-.76,1.64,1.64,0,0,0-1.49,1,5.7,5.7,0,0,0-.53,2.71,5.26,5.26,0,0,0,.57,2.68,1.74,1.74,0,0,0,1.58,1,1.28,1.28,0,0,0,1.16-.59A5.64,5.64,0,0,0,194.1,10.78Z" transform="translate(-0.95 -2.38)"/><path class="cls-1" d="M204.47,13.46c0,.11-.14.29-.42.55a2.51,2.51,0,0,1-1.73.66,2,2,0,0,1-1.42-.47,2.77,2.77,0,0,1-.27-1.6v-5a.18.18,0,0,0-.18-.19h-.65c-.25,0-.37,0-.37-.12s.06-.12.18-.13a2.61,2.61,0,0,0,2.06-1.31.31.31,0,0,1,.25-.16.11.11,0,0,1,.12.12v.36a4,4,0,0,0,.07.92,3,3,0,0,0,.51,0A6.28,6.28,0,0,0,203.86,7L204,7c.09,0,.14,0,.14.15s-.46.24-1.38.24H202v3.15a21.26,21.26,0,0,0,.12,3,.7.7,0,0,0,.78.6,2,2,0,0,0,1.26-.63.23.23,0,0,1,.16-.08C204.43,13.38,204.47,13.41,204.47,13.46Z" transform="translate(-0.95 -2.38)"/><path class="cls-1" d="M208.27,14.37c0,.1-.1.15-.29.15l-.41,0-.85,0H205a.29.29,0,0,1-.2.07c-.13,0-.19,0-.19-.13s.11-.18.34-.18a1.57,1.57,0,0,0,.7-.09,2,2,0,0,0,.06-.71V8.26a2.62,2.62,0,0,0,0-.5s-.09-.08-.21-.08h-.66c-.13,0-.19,0-.19-.12s.09-.1.28-.11a4.12,4.12,0,0,0,1.93-.53l.17-.1a2.18,2.18,0,0,1,.14.93v5.46a6.43,6.43,0,0,0,0,.8.21.21,0,0,0,.18.15,2.87,2.87,0,0,0,.75.07C208.19,14.23,208.27,14.27,208.27,14.37ZM207,3.77a.68.68,0,0,1-.76.77.77.77,0,0,1-.55-.21.7.7,0,0,1-.22-.52.7.7,0,0,1,.77-.8A.67.67,0,0,1,207,3.77Z" transform="translate(-0.95 -2.38)"/><path class="cls-1" d="M212.26,14.35c0,.1-.07.15-.22.15h-.2l-.91,0h-.52l-1.36,0h-.21c-.17,0-.25,0-.25-.14s.06-.11.19-.11h.44c.31,0,.47-.07.47-.21s0-.51,0-1.32V4.06a2.81,2.81,0,0,0,0-.61.27.27,0,0,0-.28-.14h-.61c-.16,0-.24,0-.24-.14S208.7,3,209,3a4.2,4.2,0,0,0,1.51-.38l.36-.17.14,0a5.48,5.48,0,0,1,.11,1.5v9.53a5.87,5.87,0,0,0,0,.61.15.15,0,0,0,.12.12,2.93,2.93,0,0,0,.63,0Q212.26,14.23,212.26,14.35Z" transform="translate(-0.95 -2.38)"/><path class="cls-1" d="M222.87,13.7c0,.19-.2.4-.6.61a2.62,2.62,0,0,1-1.16.31,1.1,1.1,0,0,1-1.22-1.21,2.1,2.1,0,0,1-2,1.26,1.72,1.72,0,0,1-1.21-.43,1.46,1.46,0,0,1-.47-1.12,2.48,2.48,0,0,1,1.67-2.21,9.14,9.14,0,0,1,2-.54V9.94a8,8,0,0,0-.16-2,1.15,1.15,0,0,0-1.22-.86,1.52,1.52,0,0,0-1,.32,1,1,0,0,0-.4.82c0,.09.07.13.21.13a.5.5,0,0,1,.38.2.72.72,0,0,1,.16.46.66.66,0,0,1-.74.75.87.87,0,0,1-.64-.26.93.93,0,0,1-.25-.67,1.81,1.81,0,0,1,.63-1.38,2.78,2.78,0,0,1,1.94-.63c1.24,0,2,.34,2.29,1a5.06,5.06,0,0,1,.16,1.55V12.6c0,.52,0,.82,0,.91.06.41.22.62.5.62a1,1,0,0,0,.78-.34c.11-.13.2-.19.25-.19S222.87,13.63,222.87,13.7Zm-3-1.8V10.66a4.22,4.22,0,0,0-1.81.76,1.56,1.56,0,0,0-.54,1.25,1.27,1.27,0,0,0,.31.89,1,1,0,0,0,.78.35,1.3,1.3,0,0,0,1.15-.82A3.57,3.57,0,0,0,219.88,11.9Z" transform="translate(-0.95 -2.38)"/><path class="cls-1" d="M230,10.42a4.47,4.47,0,0,1-1.07,3,3.29,3.29,0,0,1-2.58,1.24,3,3,0,0,1-1.11-.22,2.68,2.68,0,0,0-.78-.22.77.77,0,0,0-.43.16.71.71,0,0,1-.35.16c-.09,0-.14-.18-.14-.56V5.15c0-1.14-.07-1.76-.22-1.85a2,2,0,0,0-.66,0c-.28,0-.41,0-.41-.14s.06-.12.19-.12h.23a4.37,4.37,0,0,0,1.81-.39,1,1,0,0,1,.35-.12h.07V7.82a2.17,2.17,0,0,1,1.94-1,2.91,2.91,0,0,1,2.29,1A3.74,3.74,0,0,1,230,10.42Zm-1.55.08a4.91,4.91,0,0,0-.5-2.46,1.56,1.56,0,0,0-2.32-.57,1.59,1.59,0,0,0-.58.74,12.83,12.83,0,0,0-.15,2.68,17,17,0,0,0,.12,2.78c.13.47.54.71,1.25.71a1.62,1.62,0,0,0,1.48-.76A5.91,5.91,0,0,0,228.44,10.5Z" transform="translate(-0.95 -2.38)"/><path class="cls-1" d="M236.21,12.3A2.27,2.27,0,0,1,235.5,14a2.39,2.39,0,0,1-1.72.69,3.2,3.2,0,0,1-1.4-.41.86.86,0,0,0-.39-.12c-.16,0-.27.11-.35.33s-.11.2-.19.2-.12-.05-.12-.13V12.26c0-.13,0-.19.12-.19s.14.06.16.19a2.46,2.46,0,0,0,.44,1.23,2.18,2.18,0,0,0,1.82.89,1.36,1.36,0,0,0,1-.36,1.23,1.23,0,0,0,.38-.95A1.39,1.39,0,0,0,234.8,12a2,2,0,0,0-.43-.31l-1.15-.45c-1.26-.48-1.89-1.2-1.89-2.15A2.2,2.2,0,0,1,232,7.5a2.16,2.16,0,0,1,1.59-.65,4.14,4.14,0,0,1,1,.2.94.94,0,0,0,.31.06.41.41,0,0,0,.43-.34c0-.12.09-.17.16-.17s.11,0,.11.13v.82a9.69,9.69,0,0,0,.09,1.31v0a.13.13,0,0,1-.14.14c-.07,0-.15-.17-.25-.52a2,2,0,0,0-.66-1,1.67,1.67,0,0,0-1.08-.38,1.32,1.32,0,0,0-.95.36,1.19,1.19,0,0,0-.37.9c0,.57.38,1,1.14,1.3a8,8,0,0,1,2.24,1.15A1.94,1.94,0,0,1,236.21,12.3Z" transform="translate(-0.95 -2.38)"/><path class="cls-1" d="M241.81,13.46c0,.11-.15.29-.43.55a2.51,2.51,0,0,1-1.73.66,1.92,1.92,0,0,1-1.41-.47c-.19-.18-.28-.72-.28-1.6v-5a.18.18,0,0,0-.18-.19h-.65c-.25,0-.37,0-.37-.12s.06-.12.18-.13A2.61,2.61,0,0,0,239,5.8a.31.31,0,0,1,.26-.16c.07,0,.11,0,.11.12v.36a4,4,0,0,0,.07.92,3,3,0,0,0,.51,0A6.21,6.21,0,0,0,241.19,7l.12,0c.09,0,.14,0,.14.15s-.46.24-1.38.24h-.7v3.15a21.26,21.26,0,0,0,.12,3,.71.71,0,0,0,.79.6,2,2,0,0,0,1.25-.63.23.23,0,0,1,.16-.08C241.77,13.38,241.81,13.41,241.81,13.46Z" transform="translate(-0.95 -2.38)"/><path class="cls-1" d="M247.21,8a.92.92,0,0,1-.24.65.79.79,0,0,1-.61.25.76.76,0,0,1-.51-.18.59.59,0,0,1-.2-.45.57.57,0,0,1,.15-.4.57.57,0,0,0,.15-.24c0-.17-.12-.26-.37-.26a1,1,0,0,0-.82.59,5.85,5.85,0,0,0-.39,2.58v3.34a.24.24,0,0,0,.15.26,5.34,5.34,0,0,0,.87.07c.13,0,.19.06.19.13s-.07.12-.22.12h-3.3c-.18,0-.27,0-.27-.1s.07-.1.22-.1h.24c.38,0,.61-.05.68-.14a3.24,3.24,0,0,0,0-.63V8.83c0-.63-.09-1-.28-1.09a2.27,2.27,0,0,0-.89-.16q-.21,0-.21-.12c0-.08.06-.12.17-.12h.12a4.36,4.36,0,0,1,.51,0l.22,0A3.31,3.31,0,0,0,244,7l.22-.1.14-.06a5.76,5.76,0,0,1,.06.82V8A1.71,1.71,0,0,1,246,6.88a1.25,1.25,0,0,1,.9.34A1.06,1.06,0,0,1,247.21,8Z" transform="translate(-0.95 -2.38)"/><path class="cls-1" d="M254.52,13.7c0,.19-.2.4-.6.61a2.62,2.62,0,0,1-1.16.31,1.1,1.1,0,0,1-1.22-1.21,2.09,2.09,0,0,1-2,1.26,1.68,1.68,0,0,1-1.2-.43,1.44,1.44,0,0,1-.48-1.12,2.48,2.48,0,0,1,1.67-2.21,9.32,9.32,0,0,1,2-.54V9.94a8.13,8.13,0,0,0-.15-2,1.15,1.15,0,0,0-1.23-.86,1.49,1.49,0,0,0-1,.32,1,1,0,0,0-.4.82c0,.09.07.13.21.13a.5.5,0,0,1,.37.2.73.73,0,0,1,.17.46.66.66,0,0,1-.74.75.85.85,0,0,1-.64-.26.94.94,0,0,1-.26-.67,1.81,1.81,0,0,1,.63-1.38,2.8,2.8,0,0,1,1.94-.63c1.25,0,2,.34,2.3,1a5.16,5.16,0,0,1,.15,1.55V12.6c0,.52,0,.82,0,.91.05.41.22.62.49.62a1,1,0,0,0,.78-.34c.12-.13.2-.19.26-.19S254.52,13.63,254.52,13.7Zm-3-1.8V10.66a4.12,4.12,0,0,0-1.8.76,1.53,1.53,0,0,0-.55,1.25,1.32,1.32,0,0,0,.31.89,1,1,0,0,0,.78.35,1.32,1.32,0,0,0,1.16-.82A3.7,3.7,0,0,0,251.53,11.9Z" transform="translate(-0.95 -2.38)"/><path class="cls-1" d="M262.63,14.35q0,.12-.63.12l-.92,0-1.19,0c-.14,0-.37,0-.67,0l-.67,0q-.15,0-.15-.12c0-.09.1-.14.32-.14.54,0,.82-.09.82-.27a26.21,26.21,0,0,0-2.86-3.42V14q0,.26.48.24h.47c.15,0,.22,0,.22.12s-.12.14-.37.14h-2.92c-.28,0-.41-.05-.41-.15a.1.1,0,0,1,.07-.11l.59,0c.27,0,.41-.08.42-.19a4.54,4.54,0,0,0,0-.88V4.81c0-.89,0-1.36,0-1.39s-.19-.12-.49-.12h-.44c-.13,0-.19,0-.19-.13s.13-.13.39-.13a3.72,3.72,0,0,0,1.7-.49.81.81,0,0,1,.27-.12c.13,0,.19.47.19,1.41v6.28a16.19,16.19,0,0,0,2.75-2.71c0-.07-.22-.1-.66-.1h-.53c-.2,0-.3,0-.3-.14s.17-.15.53-.15h2.38c.4,0,.64,0,.71,0a.11.11,0,0,1,.1.12c0,.08-.26.12-.8.13a1.83,1.83,0,0,0-.69.09,1.88,1.88,0,0,0-.4.31l-2.12,2.06q2.36,2.58,3.35,3.8a2,2,0,0,0,.64.59,2.35,2.35,0,0,0,.84.07C262.58,14.21,262.63,14.26,262.63,14.35Z" transform="translate(-0.95 -2.38)"/><path class="cls-1" d="M267.1,13.46c0,.11-.14.29-.42.55a2.52,2.52,0,0,1-1.74.66,2,2,0,0,1-1.41-.47,2.77,2.77,0,0,1-.27-1.6v-5a.18.18,0,0,0-.19-.19h-.64c-.25,0-.38,0-.38-.12s.06-.12.19-.13A2.62,2.62,0,0,0,264.3,5.8a.31.31,0,0,1,.25-.16.11.11,0,0,1,.12.12v.36a3.49,3.49,0,0,0,.07.92,3,3,0,0,0,.51,0A6.36,6.36,0,0,0,266.49,7l.12,0c.09,0,.13,0,.13.15s-.46.24-1.37.24h-.7v3.15a21.26,21.26,0,0,0,.12,3,.7.7,0,0,0,.78.6,2,2,0,0,0,1.26-.63.21.21,0,0,1,.15-.08C267.06,13.38,267.1,13.41,267.1,13.46Z" transform="translate(-0.95 -2.38)"/><path class="cls-1" d="M270.89,14.37c0,.1-.09.15-.29.15l-.41,0-.84,0h-1.77a.31.31,0,0,1-.21.07c-.12,0-.18,0-.18-.13s.11-.18.34-.18a1.57,1.57,0,0,0,.7-.09,2,2,0,0,0,.06-.71V8.26a2.62,2.62,0,0,0,0-.5s-.09-.08-.21-.08h-.67q-.18,0-.18-.12c0-.06.09-.1.28-.11a4.15,4.15,0,0,0,1.93-.53l.17-.1a2.22,2.22,0,0,1,.13.93v5.46a5.56,5.56,0,0,0,0,.8q0,.12.18.15a2.78,2.78,0,0,0,.74.07C270.81,14.23,270.89,14.27,270.89,14.37Zm-1.27-10.6a.68.68,0,0,1-.77.77.75.75,0,0,1-.54-.21.7.7,0,0,1-.22-.52c0-.53.25-.8.76-.8A.68.68,0,0,1,269.62,3.77Z" transform="translate(-0.95 -2.38)"/><path class="cls-1" d="M278.69,10.79a4,4,0,0,1-1,2.77,3.23,3.23,0,0,1-2.5,1.11,3.38,3.38,0,0,1-2.58-1.11,3.92,3.92,0,0,1-1-2.77,4.08,4.08,0,0,1,1-2.82,3.27,3.27,0,0,1,2.53-1.12A3.34,3.34,0,0,1,277.67,8,4,4,0,0,1,278.69,10.79Zm-1.54,0a6.09,6.09,0,0,0-.58-2.91,1.5,1.5,0,0,0-1.43-.76,1.65,1.65,0,0,0-1.49,1,5.82,5.82,0,0,0-.53,2.71,5.26,5.26,0,0,0,.57,2.68,1.77,1.77,0,0,0,1.59,1,1.27,1.27,0,0,0,1.15-.59A5.63,5.63,0,0,0,277.15,10.78Z" transform="translate(-0.95 -2.38)"/><path class="cls-1" d="M287.45,14.37c0,.09-.09.13-.26.13h-3.12c-.15,0-.22,0-.22-.12a.1.1,0,0,1,.09-.1l.65,0c.22,0,.34-.05.38-.1a1.64,1.64,0,0,0,0-.55V10.35a9.51,9.51,0,0,0-.14-2.21,1.12,1.12,0,0,0-1.15-.76,1.75,1.75,0,0,0-1.43.74,1,1,0,0,0-.17.61V14c0,.13.12.21.36.22H283c.11,0,.17,0,.17.12s-.07.12-.2.12h-3.1c-.17,0-.25,0-.25-.1s.1-.12.31-.14h.42c.17,0,.27,0,.31-.12l.05-.25v-3.7c0-1.28,0-2,0-2.13s-.16-.21-.42-.21h-.49c-.23,0-.34,0-.34-.12s.11-.17.35-.17a4.74,4.74,0,0,0,1.11-.18,2.38,2.38,0,0,0,.83-.39.44.44,0,0,1,.24-.14c.08,0,.12.11.12.32V8a2.76,2.76,0,0,1,2.28-1.14,1.9,1.9,0,0,1,1.76.9,4.1,4.1,0,0,1,.31,1.94v3.88a1.69,1.69,0,0,0,.05.59.75.75,0,0,0,.49.1h.31C287.39,14.26,287.45,14.3,287.45,14.37Z" transform="translate(-0.95 -2.38)"/><path class="cls-1" d="M294.39,12.61a1.47,1.47,0,0,1-.27.61,3.45,3.45,0,0,1-.53.7,2.61,2.61,0,0,1-2,.75,3.38,3.38,0,0,1-2.56-1.1,3.9,3.9,0,0,1-1-2.74A4.23,4.23,0,0,1,289,8a3.09,3.09,0,0,1,2.44-1.14,3,3,0,0,1,2,.71,2.41,2.41,0,0,1,.87,1.81,8.55,8.55,0,0,1-1.44.06h-1.19l-2,.06a6.6,6.6,0,0,0-.09,1.06,4.52,4.52,0,0,0,.66,2.64,2.13,2.13,0,0,0,1.84.92,1.74,1.74,0,0,0,1.09-.31,3.72,3.72,0,0,0,.88-1.17.21.21,0,0,1,.19-.13C294.34,12.5,294.39,12.53,294.39,12.61Zm-1.48-3.46q-.07-2-1.47-2c-.91,0-1.49.68-1.71,2Z" transform="translate(-0.95 -2.38)"/><path class="cls-1" d="M303.07,14.37c0,.09-.08.13-.25.13h-3.13c-.15,0-.22,0-.22-.12a.1.1,0,0,1,.09-.1l.66,0c.21,0,.34-.05.37-.1a1.64,1.64,0,0,0,.05-.55V10.35a8.93,8.93,0,0,0-.14-2.21,1.11,1.11,0,0,0-1.15-.76,1.76,1.76,0,0,0-1.43.74,1,1,0,0,0-.17.61V14c0,.13.12.21.36.22h.52c.12,0,.17,0,.17.12s-.06.12-.2.12h-3.09c-.17,0-.26,0-.26-.1s.1-.12.31-.14H296c.17,0,.27,0,.31-.12l0-.25v-3.7c0-1.28,0-2,0-2.13s-.17-.21-.43-.21h-.49c-.23,0-.34,0-.34-.12s.12-.17.35-.17a4.74,4.74,0,0,0,1.11-.18,2.29,2.29,0,0,0,.83-.39.44.44,0,0,1,.24-.14c.08,0,.12.11.12.32V8A2.76,2.76,0,0,1,300,6.85a1.92,1.92,0,0,1,1.77.9,4.26,4.26,0,0,1,.3,1.94v3.88a1.69,1.69,0,0,0,.05.59c.07.07.23.1.5.1h.3C303,14.26,303.07,14.3,303.07,14.37Z" transform="translate(-0.95 -2.38)"/><path class="cls-1" d="M308.85,12.3a2.24,2.24,0,0,1-.72,1.68,2.37,2.37,0,0,1-1.71.69,3.2,3.2,0,0,1-1.4-.41.86.86,0,0,0-.39-.12c-.16,0-.28.11-.35.33s-.11.2-.19.2-.12-.05-.12-.13V12.26c0-.13,0-.19.12-.19s.14.06.15.19a2.56,2.56,0,0,0,.45,1.23,2.18,2.18,0,0,0,1.82.89,1.36,1.36,0,0,0,1-.36,1.23,1.23,0,0,0,.37-.95,1.39,1.39,0,0,0-.42-1.06,2,2,0,0,0-.43-.31l-1.15-.45c-1.26-.48-1.89-1.2-1.89-2.15a2.2,2.2,0,0,1,.64-1.6,2.16,2.16,0,0,1,1.59-.65,4.14,4.14,0,0,1,1,.2.89.89,0,0,0,.3.06.41.41,0,0,0,.44-.34c0-.12.09-.17.15-.17s.12,0,.12.13v.82a9.69,9.69,0,0,0,.09,1.31v0a.13.13,0,0,1-.14.14c-.07,0-.15-.17-.25-.52a2,2,0,0,0-.66-1,1.67,1.67,0,0,0-1.08-.38,1.32,1.32,0,0,0-.95.36,1.19,1.19,0,0,0-.37.9c0,.57.38,1,1.14,1.3a8.12,8.12,0,0,1,2.24,1.15A1.94,1.94,0,0,1,308.85,12.3Z" transform="translate(-0.95 -2.38)"/><path class="cls-1" d="M321.11,14.35q0,.12-.63.12l-.92,0-1.19,0c-.15,0-.37,0-.67,0l-.67,0q-.15,0-.15-.12c0-.09.1-.14.32-.14q.81,0,.81-.27a25.53,25.53,0,0,0-2.85-3.42V14q0,.26.48.24h.47c.15,0,.22,0,.22.12s-.12.14-.37.14H313c-.27,0-.41-.05-.41-.15a.11.11,0,0,1,.08-.11l.59,0c.27,0,.41-.08.42-.19a4.54,4.54,0,0,0,0-.88V4.81c0-.89,0-1.36,0-1.39s-.19-.12-.49-.12h-.45c-.12,0-.18,0-.18-.13S312.74,3,313,3a3.72,3.72,0,0,0,1.7-.49.74.74,0,0,1,.27-.12c.13,0,.19.47.19,1.41v6.28a16.69,16.69,0,0,0,2.75-2.71c0-.07-.22-.1-.66-.1h-.53c-.2,0-.3,0-.3-.14s.17-.15.52-.15h2.38c.41,0,.65,0,.72,0a.11.11,0,0,1,.1.12c0,.08-.27.12-.8.13a1.94,1.94,0,0,0-.7.09,2.12,2.12,0,0,0-.39.31l-2.12,2.06q2.36,2.58,3.35,3.8a2,2,0,0,0,.64.59,2.32,2.32,0,0,0,.84.07C321.06,14.21,321.11,14.26,321.11,14.35Z" transform="translate(-0.95 -2.38)"/><path class="cls-1" d="M326.16,8a.92.92,0,0,1-.24.65.79.79,0,0,1-.61.25.72.72,0,0,1-.51-.18.57.57,0,0,1-.21-.45.54.54,0,0,1,.16-.4.57.57,0,0,0,.15-.24c0-.17-.13-.26-.38-.26a1,1,0,0,0-.81.59,5.85,5.85,0,0,0-.39,2.58v3.34a.25.25,0,0,0,.14.26,5.67,5.67,0,0,0,.88.07c.12,0,.18.06.18.13s-.07.12-.22.12H321c-.19,0-.28,0-.28-.1s.08-.1.23-.1h.23c.39,0,.61-.05.68-.14a2.28,2.28,0,0,0,0-.63V8.83c0-.63-.1-1-.28-1.09a2.33,2.33,0,0,0-.9-.16c-.13,0-.2,0-.2-.12s.06-.12.17-.12h.12a4.36,4.36,0,0,1,.51,0l.22,0A3.27,3.27,0,0,0,322.94,7l.23-.1.13-.06a4.62,4.62,0,0,1,.07.82V8a1.69,1.69,0,0,1,1.53-1.16,1.29,1.29,0,0,1,.9.34A1.06,1.06,0,0,1,326.16,8Z" transform="translate(-0.95 -2.38)"/><path class="cls-1" d="M333.47,13.7c0,.19-.2.4-.6.61a2.62,2.62,0,0,1-1.16.31,1.1,1.1,0,0,1-1.22-1.21,2.11,2.11,0,0,1-2,1.26,1.72,1.72,0,0,1-1.2-.43,1.46,1.46,0,0,1-.47-1.12,2.48,2.48,0,0,1,1.67-2.21,9.19,9.19,0,0,1,2-.54V9.94a8.13,8.13,0,0,0-.15-2,1.15,1.15,0,0,0-1.22-.86,1.52,1.52,0,0,0-1,.32,1,1,0,0,0-.4.82c0,.09.07.13.21.13a.52.52,0,0,1,.38.2.72.72,0,0,1,.16.46.66.66,0,0,1-.74.75.87.87,0,0,1-.64-.26.93.93,0,0,1-.25-.67,1.81,1.81,0,0,1,.63-1.38,2.78,2.78,0,0,1,1.94-.63c1.24,0,2,.34,2.29,1a5.16,5.16,0,0,1,.15,1.55V12.6c0,.52,0,.82,0,.91.06.41.22.62.49.62a1,1,0,0,0,.79-.34c.11-.13.2-.19.25-.19S333.47,13.63,333.47,13.7Zm-3-1.8V10.66a4.23,4.23,0,0,0-1.8.76,1.56,1.56,0,0,0-.54,1.25,1.27,1.27,0,0,0,.31.89,1,1,0,0,0,.78.35,1.3,1.3,0,0,0,1.15-.82A3.7,3.7,0,0,0,330.47,11.9Z" transform="translate(-0.95 -2.38)"/><path class="cls-1" d="M339.06,3.77a.84.84,0,0,1-.21.59.74.74,0,0,1-.56.23.8.8,0,0,1-.54-.2.67.67,0,0,1-.22-.51,1.14,1.14,0,0,1,.22-.6.26.26,0,0,0,.05-.15c0-.26-.18-.39-.55-.39-.63,0-1.05.4-1.25,1.22a11.53,11.53,0,0,0-.15,2.26v.83H337q.33,0,.33.15c0,.1-.14.14-.44.14h-1V14c0,.16.15.24.47.24a1.74,1.74,0,0,1,.79.06.15.15,0,0,1,0,.07c0,.08-.07.12-.2.12a.42.42,0,0,1-.17,0l-1.4,0H333.5q-.3,0-.3-.12c0-.09.08-.13.24-.13a2.07,2.07,0,0,0,1-.11.13.13,0,0,0,0-.1l0-.22V7.36a5.24,5.24,0,0,1-.73,0c-.07,0-.1,0-.1-.13s.1-.16.3-.16h.55A7.48,7.48,0,0,1,335,3.94a2.54,2.54,0,0,1,2.35-1.46,1.94,1.94,0,0,1,1.22.36A1.11,1.11,0,0,1,339.06,3.77Z" transform="translate(-0.95 -2.38)"/><path class="cls-1" d="M342.56,13.46c0,.11-.14.29-.42.55a2.52,2.52,0,0,1-1.74.66A2,2,0,0,1,339,14.2a2.77,2.77,0,0,1-.27-1.6v-5a.18.18,0,0,0-.19-.19h-.64c-.25,0-.38,0-.38-.12s.07-.12.19-.13a2.62,2.62,0,0,0,2.06-1.31.31.31,0,0,1,.25-.16.11.11,0,0,1,.12.12v.36a3.49,3.49,0,0,0,.07.92,3,3,0,0,0,.51,0A6.28,6.28,0,0,0,342,7l.12,0c.09,0,.14,0,.14.15s-.46.24-1.38.24h-.7v3.15a21.26,21.26,0,0,0,.12,3,.7.7,0,0,0,.78.6,2,2,0,0,0,1.26-.63.21.21,0,0,1,.15-.08C342.52,13.38,342.56,13.41,342.56,13.46Z" transform="translate(-0.95 -2.38)"/><path class="cls-1" d="M345.91,14.37a2,2,0,0,1-1,1.8,2.37,2.37,0,0,1-1.12.41c-.09,0-.14,0-.14-.11s.06-.11.17-.13c.95-.23,1.43-.72,1.43-1.46a1,1,0,0,0-.38-.94c0,.43-.2.65-.62.65a.76.76,0,0,1-.56-.24.78.78,0,0,1-.23-.57,1,1,0,0,1,.29-.73,1,1,0,0,1,.73-.28,1.26,1.26,0,0,1,1,.45A1.73,1.73,0,0,1,345.91,14.37Z" transform="translate(-0.95 -2.38)"/><path class="cls-1" d="M357.93,14.13q0,.12-.24.12h-.51a2.94,2.94,0,0,0-1.41.32,1.06,1.06,0,0,1-.29.14q-.15,0-.15-.21l0-.53a2.38,2.38,0,0,1-1.74.74,2.93,2.93,0,0,1-2.35-1.11,4.2,4.2,0,0,1-.93-2.81,4.25,4.25,0,0,1,.93-2.85,3,3,0,0,1,2.42-1.09,2,2,0,0,1,1.73.83V5a6.84,6.84,0,0,0-.11-1.6c-.07-.17-.17-.25-.31-.23l-.58,0c-.15,0-.22,0-.22-.16s.06-.15.19-.15l.6,0a3.93,3.93,0,0,0,1.56-.48.27.27,0,0,1,.12,0c.11,0,.17.13.17.41V9.55q0,4,.06,4.32c0,.08.29.12.8.12C357.85,14,357.93,14,357.93,14.13Zm-2.52-4.27a4,4,0,0,0-.35-2.09,1.44,1.44,0,0,0-1.18-.58,1.64,1.64,0,0,0-1.46,1,5.19,5.19,0,0,0-.54,2.55,6.63,6.63,0,0,0,.47,2.62,1.89,1.89,0,0,0,.61.76,1.34,1.34,0,0,0,.82.3,1.55,1.55,0,0,0,1-.32,1.42,1.42,0,0,0,.56-.76A24.33,24.33,0,0,0,355.41,9.86Z" transform="translate(-0.95 -2.38)"/><path class="cls-1" d="M364.76,12.61a1.41,1.41,0,0,1-.26.61,3.47,3.47,0,0,1-.54.7,2.58,2.58,0,0,1-1.95.75,3.38,3.38,0,0,1-2.56-1.1,3.9,3.9,0,0,1-1-2.74,4.23,4.23,0,0,1,1-2.84,3.07,3.07,0,0,1,2.44-1.14,3,3,0,0,1,2,.71,2.41,2.41,0,0,1,.87,1.81,8.67,8.67,0,0,1-1.45.06h-1.19l-2,.06a7.92,7.92,0,0,0-.08,1.06,4.6,4.6,0,0,0,.65,2.64,2.15,2.15,0,0,0,1.85.92,1.76,1.76,0,0,0,1.09-.31,3.72,3.72,0,0,0,.88-1.17.21.21,0,0,1,.19-.13C364.72,12.5,364.76,12.53,364.76,12.61Zm-1.48-3.46c0-1.36-.53-2-1.46-2s-1.49.68-1.71,2Z" transform="translate(-0.95 -2.38)"/><path class="cls-1" d="M370.36,13.46c0,.11-.15.29-.43.55a2.49,2.49,0,0,1-1.73.66,1.92,1.92,0,0,1-1.41-.47c-.19-.18-.28-.72-.28-1.6v-5a.18.18,0,0,0-.18-.19h-.65c-.25,0-.37,0-.37-.12s.06-.12.18-.13a2.61,2.61,0,0,0,2.06-1.31.33.33,0,0,1,.26-.16c.08,0,.11,0,.11.12v.36A4,4,0,0,0,368,7a3,3,0,0,0,.51,0A6.21,6.21,0,0,0,369.74,7l.12,0c.09,0,.14,0,.14.15s-.46.24-1.38.24h-.7v3.15a21.26,21.26,0,0,0,.12,3,.71.71,0,0,0,.79.6,2,2,0,0,0,1.25-.63.23.23,0,0,1,.16-.08C370.32,13.38,370.36,13.41,370.36,13.46Z" transform="translate(-0.95 -2.38)"/><path class="cls-1" d="M381.85,14.35q0,.12-.63.12l-.92,0-1.19,0c-.15,0-.37,0-.67,0l-.67,0q-.15,0-.15-.12c0-.09.1-.14.32-.14q.81,0,.81-.27a25.53,25.53,0,0,0-2.85-3.42V14q0,.26.48.24h.47c.15,0,.22,0,.22.12s-.12.14-.37.14h-2.93c-.27,0-.4-.05-.4-.15a.1.1,0,0,1,.07-.11l.59,0c.27,0,.41-.08.42-.19a4.54,4.54,0,0,0,0-.88V4.81c0-.89,0-1.36,0-1.39s-.19-.12-.49-.12h-.44c-.13,0-.19,0-.19-.13s.13-.13.39-.13a3.72,3.72,0,0,0,1.7-.49.81.81,0,0,1,.27-.12c.13,0,.19.47.19,1.41v6.28a16.69,16.69,0,0,0,2.75-2.71c0-.07-.22-.1-.66-.1h-.53c-.2,0-.3,0-.3-.14s.17-.15.52-.15h2.38c.41,0,.65,0,.72,0a.11.11,0,0,1,.1.12c0,.08-.27.12-.8.13a1.94,1.94,0,0,0-.7.09,2.12,2.12,0,0,0-.39.31l-2.12,2.06q2.36,2.58,3.35,3.8a2,2,0,0,0,.64.59,2.32,2.32,0,0,0,.84.07C381.8,14.21,381.85,14.26,381.85,14.35Z" transform="translate(-0.95 -2.38)"/><path class="cls-1" d="M388.82,10.79a4,4,0,0,1-1,2.77,3.24,3.24,0,0,1-2.5,1.11,3.39,3.39,0,0,1-2.59-1.11,3.91,3.91,0,0,1-1-2.77,4,4,0,0,1,1-2.82,3.23,3.23,0,0,1,2.52-1.12A3.34,3.34,0,0,1,387.79,8,4.06,4.06,0,0,1,388.82,10.79Zm-1.55,0a6,6,0,0,0-.58-2.91,1.5,1.5,0,0,0-1.43-.76,1.62,1.62,0,0,0-1.48,1,5.69,5.69,0,0,0-.54,2.71,5.26,5.26,0,0,0,.57,2.68,1.77,1.77,0,0,0,1.59,1,1.29,1.29,0,0,0,1.16-.59A5.73,5.73,0,0,0,387.27,10.78Z" transform="translate(-0.95 -2.38)"/><path class="cls-1" d="M401.28,14.37c0,.09-.1.13-.29.13h-3.06c-.15,0-.22,0-.22-.11s.06-.13.19-.13h.56c.17,0,.27,0,.29-.12a2.7,2.7,0,0,0,.05-.71V9.2a2.86,2.86,0,0,0-.26-1.41,1,1,0,0,0-.89-.41,1.45,1.45,0,0,0-.82.26,1.43,1.43,0,0,0-.53.67,12.33,12.33,0,0,0-.07,1.89v3.21a6.15,6.15,0,0,0,0,.65c0,.13.13.2.3.2H397c.15,0,.22.05.22.13s-.08.11-.25.11h-3.06c-.14,0-.21,0-.21-.13a.1.1,0,0,1,.1-.11h.68c.18,0,.28-.07.29-.17l0-.24V9.11a2.58,2.58,0,0,0-.25-1.36,1,1,0,0,0-.87-.37,1.44,1.44,0,0,0-1,.39,1.29,1.29,0,0,0-.42,1v4.82a1.27,1.27,0,0,0,.08.6c.05.06.21.09.49.09h.32c.12,0,.18,0,.18.13s-.07.12-.22.12H390c-.16,0-.24,0-.24-.13s.08-.12.22-.12a2.42,2.42,0,0,0,.75-.06.25.25,0,0,0,.12-.21V9.57a12.38,12.38,0,0,0,0-1.5c0-.14-.2-.22-.49-.22h-.56c-.15,0-.23,0-.23-.12a.1.1,0,0,1,.08-.11,4.9,4.9,0,0,1,.56-.06,3.55,3.55,0,0,0,1-.2A1.46,1.46,0,0,0,391.8,7c.12-.13.21-.19.27-.19s.09.05.1.14,0,.4,0,1a2.28,2.28,0,0,1,2.09-1.09c1,0,1.62.38,1.84,1.14a2.27,2.27,0,0,1,2.13-1.14,1.71,1.71,0,0,1,1.7.9,3.79,3.79,0,0,1,.24,1.58v4.2a1.61,1.61,0,0,0,.06.64,1.23,1.23,0,0,0,.52.09h.3C401.22,14.25,401.28,14.29,401.28,14.37Z" transform="translate(-0.95 -2.38)"/><path class="cls-1" d="M409.08,10.69a4.25,4.25,0,0,1-1,2.84,3,3,0,0,1-2.4,1.14,2,2,0,0,1-1.74-.82v4a1.72,1.72,0,0,0,0,.44.31.31,0,0,0,.16.12,6.87,6.87,0,0,0,1,.05q.21,0,.21.15c0,.08-.08.12-.22.12h-3.34c-.33,0-.49,0-.49-.13s.07-.16.2-.16H402c.33,0,.51-.07.53-.22s0-.59,0-1.56V8.16c0-.32-.15-.46-.46-.44h-.71c-.11,0-.16,0-.16-.13s.13-.16.38-.16a3.2,3.2,0,0,0,1.7-.44.73.73,0,0,1,.34-.14.16.16,0,0,1,.17.13,3.75,3.75,0,0,1,.06.77,2.07,2.07,0,0,1,1.81-.9,3.08,3.08,0,0,1,2.42,1.08A4,4,0,0,1,409.08,10.69Zm-1.51,0a5.75,5.75,0,0,0-.41-2.27,1.8,1.8,0,0,0-1.69-1.29,1.43,1.43,0,0,0-1,.42,1.49,1.49,0,0,0-.46,1c0,.5,0,1.55,0,3.15,0,.81,0,1.3.05,1.46a1.1,1.1,0,0,0,.22.5,1.5,1.5,0,0,0,1.28.7,1.46,1.46,0,0,0,1.34-.75A5.7,5.7,0,0,0,407.57,10.7Z" transform="translate(-0.95 -2.38)"/><path class="cls-1" d="M413.43,14.35c0,.1-.07.15-.22.15H413l-.9,0h-.53l-1.36,0H410c-.17,0-.26,0-.26-.14s.06-.11.19-.11h.44q.48,0,.48-.21c0-.07,0-.51,0-1.32V4.06a2.81,2.81,0,0,0,0-.61c0-.09-.13-.14-.27-.14H410c-.16,0-.24,0-.24-.14s.14-.13.42-.14a4.25,4.25,0,0,0,1.52-.38l.35-.17.14,0a5.82,5.82,0,0,1,.12,1.5v9.53c0,.34,0,.54,0,.61a.18.18,0,0,0,.12.12,2.93,2.93,0,0,0,.63,0Q413.43,14.23,413.43,14.35Z" transform="translate(-0.95 -2.38)"/><path class="cls-1" d="M420.46,12.61a1.47,1.47,0,0,1-.27.61,3.45,3.45,0,0,1-.53.7,2.61,2.61,0,0,1-2,.75,3.38,3.38,0,0,1-2.56-1.1,3.9,3.9,0,0,1-1-2.74,4.23,4.23,0,0,1,1-2.84,3.09,3.09,0,0,1,2.44-1.14,3,3,0,0,1,2,.71,2.41,2.41,0,0,1,.87,1.81,8.55,8.55,0,0,1-1.44.06h-1.19l-2,.06a6.6,6.6,0,0,0-.09,1.06,4.52,4.52,0,0,0,.66,2.64,2.13,2.13,0,0,0,1.84.92,1.74,1.74,0,0,0,1.09-.31,3.72,3.72,0,0,0,.88-1.17.21.21,0,0,1,.19-.13C420.41,12.5,420.46,12.53,420.46,12.61ZM419,9.15q-.08-2-1.47-2c-.91,0-1.49.68-1.71,2Z" transform="translate(-0.95 -2.38)"/><path class="cls-1" d="M429.55,14.35q0,.12-.63.12l-.92,0-1.19,0c-.14,0-.37,0-.67,0l-.67,0q-.15,0-.15-.12c0-.09.1-.14.32-.14.54,0,.82-.09.82-.27a26.21,26.21,0,0,0-2.86-3.42V14q0,.26.48.24h.47c.15,0,.22,0,.22.12s-.12.14-.37.14h-2.93c-.27,0-.4-.05-.4-.15a.1.1,0,0,1,.07-.11l.59,0c.27,0,.41-.08.42-.19a4.54,4.54,0,0,0,0-.88V4.81c0-.89,0-1.36,0-1.39s-.19-.12-.49-.12h-.44c-.13,0-.19,0-.19-.13s.13-.13.39-.13a3.72,3.72,0,0,0,1.7-.49.81.81,0,0,1,.27-.12c.13,0,.19.47.19,1.41v6.28a16.19,16.19,0,0,0,2.75-2.71c0-.07-.22-.1-.66-.1h-.53c-.2,0-.3,0-.3-.14S425,7,425.38,7h2.38c.41,0,.65,0,.72,0a.11.11,0,0,1,.1.12c0,.08-.27.12-.8.13a1.94,1.94,0,0,0-.7.09,2.12,2.12,0,0,0-.39.31l-2.12,2.06q2.35,2.58,3.35,3.8a2,2,0,0,0,.64.59,2.35,2.35,0,0,0,.84.07C429.5,14.21,429.55,14.26,429.55,14.35Z" transform="translate(-0.95 -2.38)"/><path class="cls-1" d="M434.58,12.3a2.24,2.24,0,0,1-.72,1.68,2.37,2.37,0,0,1-1.71.69,3.2,3.2,0,0,1-1.4-.41.86.86,0,0,0-.39-.12c-.16,0-.28.11-.35.33s-.11.2-.19.2-.12-.05-.12-.13V12.26c0-.13,0-.19.12-.19s.14.06.15.19a2.56,2.56,0,0,0,.45,1.23,2.18,2.18,0,0,0,1.82.89,1.36,1.36,0,0,0,1-.36,1.23,1.23,0,0,0,.37-.95,1.39,1.39,0,0,0-.42-1.06,2,2,0,0,0-.43-.31l-1.15-.45c-1.26-.48-1.89-1.2-1.89-2.15a2.2,2.2,0,0,1,.64-1.6,2.16,2.16,0,0,1,1.59-.65,4.14,4.14,0,0,1,1,.2.89.89,0,0,0,.3.06.41.41,0,0,0,.44-.34c0-.12.09-.17.15-.17s.12,0,.12.13v.82A9.69,9.69,0,0,0,434,8.86v0a.13.13,0,0,1-.14.14c-.07,0-.15-.17-.25-.52a2,2,0,0,0-.66-1,1.67,1.67,0,0,0-1.08-.38,1.32,1.32,0,0,0-1,.36,1.19,1.19,0,0,0-.37.9c0,.57.38,1,1.14,1.3A8.12,8.12,0,0,1,434,10.85,1.94,1.94,0,0,1,434.58,12.3Z" transform="translate(-0.95 -2.38)"/><path class="cls-1" d="M441.89,12.61a1.55,1.55,0,0,1-.26.61,3.87,3.87,0,0,1-.54.7,2.59,2.59,0,0,1-1.95.75,3.37,3.37,0,0,1-2.56-1.1,3.86,3.86,0,0,1-1-2.74,4.23,4.23,0,0,1,1-2.84A3.07,3.07,0,0,1,439,6.85a3,3,0,0,1,2,.71,2.47,2.47,0,0,1,.87,1.81,8.73,8.73,0,0,1-1.45.06h-1.19l-2,.06a7.92,7.92,0,0,0-.08,1.06,4.6,4.6,0,0,0,.65,2.64,2.15,2.15,0,0,0,1.85.92,1.71,1.71,0,0,0,1.08-.31,3.57,3.57,0,0,0,.89-1.17.2.2,0,0,1,.19-.13C441.85,12.5,441.89,12.53,441.89,12.61Zm-1.48-3.46c0-1.36-.53-2-1.46-2s-1.49.68-1.72,2Z" transform="translate(-0.95 -2.38)"/><path class="cls-1" d="M453.15,10.79a4,4,0,0,1-1,2.77,3.23,3.23,0,0,1-2.5,1.11,3.38,3.38,0,0,1-2.58-1.11,3.92,3.92,0,0,1-1-2.77A4.08,4.08,0,0,1,447,8a3.27,3.27,0,0,1,2.53-1.12A3.34,3.34,0,0,1,452.12,8,4.06,4.06,0,0,1,453.15,10.79Zm-1.55,0A6,6,0,0,0,451,7.87a1.5,1.5,0,0,0-1.43-.76,1.65,1.65,0,0,0-1.49,1,5.82,5.82,0,0,0-.53,2.71,5.26,5.26,0,0,0,.57,2.68,1.77,1.77,0,0,0,1.59,1,1.27,1.27,0,0,0,1.15-.59A5.63,5.63,0,0,0,451.6,10.78Z" transform="translate(-0.95 -2.38)"/><path class="cls-1" d="M462,7.85c0,.53-.23.79-.7.79a.65.65,0,0,1-.43-.17.45.45,0,0,1-.2-.36.76.76,0,0,1,.05-.21.63.63,0,0,0,.05-.23c0-.15-.07-.22-.23-.22a.51.51,0,0,0-.39.21.62.62,0,0,0-.19.43s0,.23.08.58a5.18,5.18,0,0,1,.09.8,2.62,2.62,0,0,1-.8,1.94,2.74,2.74,0,0,1-2,.78,4.7,4.7,0,0,1-1.12-.26,1.44,1.44,0,0,0-.29-.06.88.88,0,0,0-.65.29.86.86,0,0,0-.28.62c0,.59.35.89,1.07.89a8.22,8.22,0,0,0,1.31-.16,8.61,8.61,0,0,1,1.27-.11,2.3,2.3,0,0,1,1.62.54,2,2,0,0,1,.59,1.51,3,3,0,0,1-1.25,2.43,5,5,0,0,1-3.15,1,3.8,3.8,0,0,1-2.22-.57,1.81,1.81,0,0,1-.81-1.57,1.63,1.63,0,0,1,.75-1.46,4.13,4.13,0,0,1,1.19-.43c-.81-.31-1.21-.8-1.21-1.46s.52-1.38,1.57-1.7a2.54,2.54,0,0,1-1-2.11,2.58,2.58,0,0,1,.78-2,2.87,2.87,0,0,1,2.06-.74A2.8,2.8,0,0,1,458.7,7a3.64,3.64,0,0,1,1,.75,1.57,1.57,0,0,1,1.34-.8C461.7,7,462,7.28,462,7.85Zm-1.85,8.2c0-.94-.56-1.41-1.66-1.41a9.41,9.41,0,0,0-1.4.15,9.61,9.61,0,0,1-1.38.15,1.68,1.68,0,0,0-.87,1.62,1.74,1.74,0,0,0,.62,1.39,2.45,2.45,0,0,0,1.64.53,3.39,3.39,0,0,0,2.17-.71A2.15,2.15,0,0,0,460.17,16.05Zm-1.31-6.51c0-1.65-.46-2.47-1.36-2.47s-1.33.77-1.33,2.3q0,2.58,1.41,2.58C458.43,12,458.86,11.15,458.86,9.54Z" transform="translate(-0.95 -2.38)"/><path class="cls-1" d="M470.47,12.3a2.24,2.24,0,0,1-.72,1.68,2.39,2.39,0,0,1-1.71.69,3.17,3.17,0,0,1-1.4-.41.86.86,0,0,0-.39-.12q-.24,0-.36.33c0,.13-.1.2-.18.2s-.12-.05-.12-.13V12.26c0-.13,0-.19.12-.19s.14.06.15.19a2.66,2.66,0,0,0,.44,1.23,2.19,2.19,0,0,0,1.82.89,1.37,1.37,0,0,0,1-.36,1.23,1.23,0,0,0,.37-.95,1.39,1.39,0,0,0-.42-1.06,2,2,0,0,0-.44-.31l-1.14-.45c-1.26-.48-1.89-1.2-1.89-2.15a2.2,2.2,0,0,1,2.23-2.25,4.14,4.14,0,0,1,1,.2.89.89,0,0,0,.3.06.42.42,0,0,0,.44-.34c0-.12.08-.17.15-.17s.12,0,.12.13v.82a11.13,11.13,0,0,0,.08,1.31v0c0,.09,0,.14-.13.14s-.16-.17-.26-.52a1.94,1.94,0,0,0-.65-1,1.67,1.67,0,0,0-1.08-.38,1.31,1.31,0,0,0-.95.36,1.2,1.2,0,0,0-.38.9c0,.57.38,1,1.14,1.3a8.07,8.07,0,0,1,2.25,1.15A2,2,0,0,1,470.47,12.3Z" transform="translate(-0.95 -2.38)"/><path class="cls-1" d="M479.39,13.89c0,.08-.12.12-.37.13a6.14,6.14,0,0,0-2.33.58.34.34,0,0,1-.12,0c-.07,0-.1-.05-.1-.14v-.95a2.54,2.54,0,0,1-2.18,1.09,2.08,2.08,0,0,1-1.78-.73,1.36,1.36,0,0,1-.27-.56c0-.17,0-.62,0-1.36V8.12a1.75,1.75,0,0,0-.07-.69c0-.07-.19-.11-.46-.12h-.22c-.3,0-.45,0-.45-.14s.09-.12.28-.12.5,0,.89,0l.34,0a7.63,7.63,0,0,0,1.1-.07v4.73a5.65,5.65,0,0,0,.17,1.72,1.08,1.08,0,0,0,1.11.66,1.42,1.42,0,0,0,1.32-.74,3.6,3.6,0,0,0,.31-1.73V9.07a5.78,5.78,0,0,0,0-.86V7.65c0-.17-.05-.27-.11-.3a1.06,1.06,0,0,0-.38,0q-.72,0-.72-.15c0-.07.12-.11.36-.11h2.31V11.8a14.65,14.65,0,0,0,.05,1.54c0,.22.12.34.26.38a5.78,5.78,0,0,0,.95,0C479.33,13.77,479.39,13.81,479.39,13.89Z" transform="translate(-0.95 -2.38)"/><path class="cls-1" d="M486.91,10.42a4.47,4.47,0,0,1-1.07,3,3.31,3.31,0,0,1-2.59,1.24,3,3,0,0,1-1.1-.22,2.77,2.77,0,0,0-.78-.22.77.77,0,0,0-.43.16.74.74,0,0,1-.36.16c-.09,0-.13-.18-.13-.56V5.15c0-1.14-.08-1.76-.22-1.85a2,2,0,0,0-.67,0c-.27,0-.4,0-.4-.14s.06-.12.18-.12h.24a4.36,4.36,0,0,0,1.8-.39,1,1,0,0,1,.36-.12h.07V7.82a2.16,2.16,0,0,1,1.94-1,2.92,2.92,0,0,1,2.29,1A3.74,3.74,0,0,1,486.91,10.42Zm-1.55.08a5,5,0,0,0-.5-2.46,1.56,1.56,0,0,0-2.32-.57,1.53,1.53,0,0,0-.58.74,12.83,12.83,0,0,0-.15,2.68,17,17,0,0,0,.12,2.78c.12.47.54.71,1.24.71a1.62,1.62,0,0,0,1.49-.76A5.91,5.91,0,0,0,485.36,10.5Z" transform="translate(-0.95 -2.38)"/><path class="cls-1" d="M492.57,13.46c0,.11-.14.29-.43.55a2.48,2.48,0,0,1-1.73.66A2,2,0,0,1,489,14.2a2.77,2.77,0,0,1-.27-1.6v-5a.2.2,0,0,0-.19-.19h-.65c-.25,0-.37,0-.37-.12s.06-.12.19-.13a2.64,2.64,0,0,0,2.06-1.31.3.3,0,0,1,.25-.16.11.11,0,0,1,.12.12v.36a3.49,3.49,0,0,0,.07.92,2.91,2.91,0,0,0,.5,0A6.41,6.41,0,0,0,492,7l.12,0c.09,0,.13,0,.13.15s-.46.24-1.38.24h-.69v3.15a21.26,21.26,0,0,0,.12,3,.7.7,0,0,0,.78.6,2,2,0,0,0,1.26-.63.19.19,0,0,1,.15-.08C492.53,13.38,492.57,13.41,492.57,13.46Z" transform="translate(-0.95 -2.38)"/><path class="cls-1" d="M496.36,14.37c0,.1-.1.15-.29.15l-.41,0-.85,0H493a.27.27,0,0,1-.2.07c-.13,0-.19,0-.19-.13s.12-.18.34-.18a1.64,1.64,0,0,0,.71-.09,2,2,0,0,0,.06-.71V8.26a4,4,0,0,0,0-.5s-.09-.08-.22-.08h-.66c-.13,0-.19,0-.19-.12s.1-.1.29-.11a4.15,4.15,0,0,0,1.93-.53l.17-.1a2.4,2.4,0,0,1,.13.93v5.46c0,.45,0,.72,0,.8a.21.21,0,0,0,.18.15,2.87,2.87,0,0,0,.75.07C496.28,14.23,496.36,14.27,496.36,14.37Zm-1.28-10.6a.68.68,0,0,1-.76.77.73.73,0,0,1-.54-.21.71.71,0,0,1-.23-.52.7.7,0,0,1,.77-.8A.67.67,0,0,1,495.08,3.77Z" transform="translate(-0.95 -2.38)"/><path class="cls-1" d="M500.35,14.35c0,.1-.07.15-.22.15h-.2l-.9,0h-.53l-1.36,0h-.2c-.17,0-.26,0-.26-.14s.06-.11.19-.11h.44q.48,0,.48-.21c0-.07,0-.51,0-1.32V4.06a2.81,2.81,0,0,0,0-.61c0-.09-.13-.14-.27-.14h-.61c-.16,0-.24,0-.24-.14s.14-.13.42-.14a4.25,4.25,0,0,0,1.52-.38l.35-.17.14,0a5.82,5.82,0,0,1,.12,1.5v9.53c0,.34,0,.54,0,.61a.18.18,0,0,0,.12.12,2.93,2.93,0,0,0,.63,0Q500.35,14.23,500.35,14.35Z" transform="translate(-0.95 -2.38)"/><path class="cls-1" d="M507.38,12.61a1.47,1.47,0,0,1-.27.61,3.45,3.45,0,0,1-.53.7,2.61,2.61,0,0,1-2,.75,3.38,3.38,0,0,1-2.56-1.1,3.9,3.9,0,0,1-1-2.74A4.23,4.23,0,0,1,502,8a3.09,3.09,0,0,1,2.44-1.14,3,3,0,0,1,2,.71,2.41,2.41,0,0,1,.87,1.81,8.55,8.55,0,0,1-1.44.06h-1.19l-2,.06a6.6,6.6,0,0,0-.09,1.06,4.52,4.52,0,0,0,.66,2.64,2.13,2.13,0,0,0,1.84.92,1.74,1.74,0,0,0,1.09-.31,3.72,3.72,0,0,0,.88-1.17.21.21,0,0,1,.19-.13C507.33,12.5,507.38,12.53,507.38,12.61ZM505.9,9.15q-.07-2-1.47-2c-.91,0-1.49.68-1.71,2Z" transform="translate(-0.95 -2.38)"/><path class="cls-1" d="M511.33,4.08a1.9,1.9,0,0,1-1,1.8,2.41,2.41,0,0,1-1.14.39c-.12,0-.19,0-.19-.13s.07-.14.21-.17a2.68,2.68,0,0,0,1.09-.53,1.2,1.2,0,0,0,.3-.88,1.36,1.36,0,0,0-.22-.79c0,.39-.24.58-.73.58a.84.84,0,0,1-.62-.24.82.82,0,0,1-.25-.61,1,1,0,0,1,.32-.72,1.06,1.06,0,0,1,.77-.3,1.34,1.34,0,0,1,1,.45A1.66,1.66,0,0,1,511.33,4.08Z" transform="translate(-0.95 -2.38)"/><path class="cls-1" d="M515.79,4.08a1.91,1.91,0,0,1-1,1.8,2.41,2.41,0,0,1-1.14.39c-.12,0-.18,0-.18-.13s.07-.14.2-.17a2.61,2.61,0,0,0,1.09-.53,1.21,1.21,0,0,0,.31-.88,1.36,1.36,0,0,0-.23-.79c0,.39-.24.58-.73.58a.82.82,0,0,1-.86-.85,1,1,0,0,1,.31-.72,1.08,1.08,0,0,1,.77-.3,1.34,1.34,0,0,1,1,.45A1.67,1.67,0,0,1,515.79,4.08Z" transform="translate(-0.95 -2.38)"/><path class="cls-1" d="M451.83,29.27l-.12.66h-2.42l.1-.66Z" transform="translate(-0.95 -2.38)"/><path class="cls-1" d="M461.87,25.79a1.75,1.75,0,0,1-.45,1.16,2.81,2.81,0,0,1-1.23.82,6,6,0,0,1-1.84.28l.38.11a1.75,1.75,0,0,1,1,.55,2,2,0,0,1,.24,1.17c0,.12,0,.24,0,.34l-.1,1.06c0,.3,0,.53,0,.68,0,.31.1.46.29.46a.34.34,0,0,0,.18-.07.42.42,0,0,0,0-.16.33.33,0,0,1,.1-.24.3.3,0,0,1,.23-.11c.11,0,.16.06.16.18a.5.5,0,0,1-.26.42,1.2,1.2,0,0,1-.64.17,1.07,1.07,0,0,1-1.2-1.22,6.71,6.71,0,0,1,0-.72l.11-.93a6.42,6.42,0,0,0,.05-.67.76.76,0,0,0-.52-.79,4.88,4.88,0,0,0-.93-.11L456,32a.29.29,0,0,0,0,.11c0,.12.14.19.42.23l.22,0h.27c.05,0,.07,0,.07.06s-.08.12-.26.12l-1.42,0h-1l-.43,0c-.11,0-.16,0-.16-.1s.11-.07.34-.08a1.38,1.38,0,0,0,.63-.12c.1,0,.23-.27.39-.67l2.65-6.77a.41.41,0,0,0,.05-.17c0-.15-.25-.23-.73-.23-.08,0-.12,0-.12-.08s0-.09.1-.1h.72a4.66,4.66,0,0,0,.56,0h.58c.83,0,1.31,0,1.46.05a1.64,1.64,0,0,1,.67.18A1.41,1.41,0,0,1,461.87,25.79Zm-1.14,0c0-.69-.21-1.13-.63-1.31a2.33,2.33,0,0,0-.87-.1.28.28,0,0,0-.27.14,3.64,3.64,0,0,0-.2.39l-1.18,3,.34,0a3.26,3.26,0,0,0,2-.61A1.88,1.88,0,0,0,460.73,25.8Z" transform="translate(-0.95 -2.38)"/><path class="cls-1" d="M464.51,27.38a.42.42,0,0,1-.06.14,6,6,0,0,0-.28.59l-1.38,3.15a3.21,3.21,0,0,0-.28.79.3.3,0,0,0,.34.32,1.06,1.06,0,0,0,.52-.16,1.14,1.14,0,0,0,.45-.38c.07-.1.13-.14.17-.14s.07,0,.07.07-.11.24-.33.42a1.71,1.71,0,0,1-1.14.43,1.09,1.09,0,0,1-.69-.21.69.69,0,0,1-.27-.56,2.78,2.78,0,0,1,.3-1l1.24-2.78a.81.81,0,0,1,.15-.31.19.19,0,0,0,0-.09c0-.07-.17-.12-.52-.14-.07,0-.1,0-.1-.09s0-.1.1-.1l.18,0a3.39,3.39,0,0,0,.54,0,1.89,1.89,0,0,0,.7-.09l.17,0C464.48,27.28,464.51,27.31,464.51,27.38Zm.82-2.25c0,.34-.15.51-.46.51a.55.55,0,0,1-.4-.15.53.53,0,0,1-.16-.38c0-.33.19-.49.56-.49S465.33,24.79,465.33,25.13Z" transform="translate(-0.95 -2.38)"/><path class="cls-1" d="M470.48,27.81a.51.51,0,0,1-.14.38.41.41,0,0,1-.34.16c-.24,0-.36-.11-.36-.35v-.27c0-.2-.07-.3-.2-.3s-.62.41-1.32,1.23c-.27.31-.43.5-.51.57a1.3,1.3,0,0,1-.32.18l.24,0c.59.09.89.36.89.81a7.5,7.5,0,0,1-.15,1.28,3.15,3.15,0,0,0-.06.54c0,.16.08.24.22.24a1,1,0,0,0,.68-.41,2.56,2.56,0,0,0,.5-1c0-.14.09-.22.16-.22s.1,0,.1.11a2.47,2.47,0,0,1-.36.87,1.53,1.53,0,0,1-1.4.89.76.76,0,0,1-.84-.87,6.92,6.92,0,0,1,.18-1.27,2.52,2.52,0,0,0,.06-.52c0-.18-.11-.3-.32-.37a1.49,1.49,0,0,0-.43-.06,2,2,0,0,0-.36,0l-1.17,2.79-.1.07-.24,0-.3,0-.26,0a.15.15,0,0,1-.08,0,.06.06,0,0,1-.07-.07.37.37,0,0,1,.06-.15l.15-.34,2.94-7a2.28,2.28,0,0,1,.12-.3l.08-.22a.37.37,0,0,0,0-.11c0-.09-.08-.14-.23-.14l-.28,0-.29,0c-.08,0-.13,0-.13-.08a.09.09,0,0,1,.08-.1h.53a8.23,8.23,0,0,0,1.3-.08.3.3,0,0,1,.13,0,.05.05,0,0,1,.06.06,4.07,4.07,0,0,1-.24.62l-1.73,4.07c0,.12-.13.34-.26.66h.41a.66.66,0,0,0,.4-.11,7.45,7.45,0,0,0,.63-.68,7.74,7.74,0,0,1,1-1.07,1.23,1.23,0,0,1,.75-.27C470.23,27.17,470.48,27.39,470.48,27.81Z" transform="translate(-0.95 -2.38)"/><path class="cls-1" d="M476.4,27.81a.56.56,0,0,1-.14.38.43.43,0,0,1-.34.16c-.24,0-.36-.11-.36-.35v-.27q0-.3-.21-.3T474,28.66c-.26.31-.43.5-.5.57a1.3,1.3,0,0,1-.32.18l.24,0c.59.09.88.36.88.81a7.3,7.3,0,0,1-.14,1.28,3.15,3.15,0,0,0-.06.54c0,.16.07.24.22.24a1,1,0,0,0,.67-.41,2.31,2.31,0,0,0,.5-1c0-.14.1-.22.17-.22a.1.1,0,0,1,.1.11,2.47,2.47,0,0,1-.36.87,1.54,1.54,0,0,1-1.4.89.76.76,0,0,1-.85-.87,6.32,6.32,0,0,1,.19-1.27,3.37,3.37,0,0,0,.05-.52.38.38,0,0,0-.31-.37,1.54,1.54,0,0,0-.43-.06,2,2,0,0,0-.36,0l-1.18,2.79-.09.07-.24,0-.3,0-.27,0a.11.11,0,0,1-.07,0c-.05,0-.07,0-.07-.07a.37.37,0,0,1,.06-.15l.14-.34,2.94-7,.12-.3.09-.22a.3.3,0,0,0,0-.11c0-.09-.07-.14-.23-.14l-.28,0-.28,0c-.09,0-.13,0-.13-.08s0-.09.08-.1h.53a8.23,8.23,0,0,0,1.3-.08.27.27,0,0,1,.13,0,.05.05,0,0,1,.06.06,4.07,4.07,0,0,1-.24.62l-1.73,4.07c-.05.12-.14.34-.26.66h.4a.69.69,0,0,0,.41-.11,7.45,7.45,0,0,0,.63-.68,7.18,7.18,0,0,1,1-1.07,1.23,1.23,0,0,1,.74-.27C476.15,27.17,476.4,27.39,476.4,27.81Z" transform="translate(-0.95 -2.38)"/><path class="cls-1" d="M481.13,28.12a1.26,1.26,0,0,1-.7,1.07,3.35,3.35,0,0,1-1.76.42c-.26,0-.54,0-.86-.05a4.09,4.09,0,0,0-.44,1.71c0,.71.32,1.06.95,1.06a2,2,0,0,0,1.43-.75c.1-.11.17-.17.2-.17a.05.05,0,0,1,.06.06c0,.18-.19.41-.56.68a2.29,2.29,0,0,1-1.35.46,1.84,1.84,0,0,1-1.28-.45,1.49,1.49,0,0,1-.51-1.15,3.5,3.5,0,0,1,1.47-2.6,3.69,3.69,0,0,1,2.29-1.1C480.77,27.31,481.13,27.58,481.13,28.12Zm-.86-.2a.32.32,0,0,0-.37-.37,1.21,1.21,0,0,0-.75.28,5.09,5.09,0,0,0-1.24,1.58h.32a2.4,2.4,0,0,0,1.31-.41A1.29,1.29,0,0,0,480.27,27.92Z" transform="translate(-0.95 -2.38)"/><path class="cls-1" d="M491.89,26.83a5.2,5.2,0,0,1-1,3.13,5.85,5.85,0,0,1-2.71,2,6.57,6.57,0,0,1-1.25.35,13.13,13.13,0,0,1-1.78.1h-2.49l-.26,0c-.11,0-.16,0-.16-.11s.05-.1.15-.12h.37a1.42,1.42,0,0,0,.7-.11,1.22,1.22,0,0,0,.2-.32c0-.11.12-.29.22-.53l2.42-6a4,4,0,0,0,.26-.73c0-.1-.13-.16-.38-.19l-.64-.05c-.13,0-.2,0-.2-.09s.09-.08.26-.08.36,0,.72,0h1.56l.6,0h.4a3.82,3.82,0,0,1,1.77.35A2.42,2.42,0,0,1,491.89,26.83Zm-1.19-.39a2.06,2.06,0,0,0-.62-1.67,2.22,2.22,0,0,0-1.42-.4,3.32,3.32,0,0,0-.72.05c-.08,0-.17.13-.27.35s-.26.57-.33.74l-2.27,5.73a8.23,8.23,0,0,0-.3.81c0,.12.22.18.65.18a4.67,4.67,0,0,0,3.63-1.56,6.38,6.38,0,0,0,1.21-2A6.29,6.29,0,0,0,490.7,26.44Z" transform="translate(-0.95 -2.38)"/><path class="cls-1" d="M497.53,27.38a1,1,0,0,1-.1.25l-1.58,3.58a2.22,2.22,0,0,0-.23.79.28.28,0,0,0,.31.31,1.24,1.24,0,0,0,.94-.64c.06-.08.11-.13.14-.13s.05,0,.05.05-.09.23-.26.42a1.65,1.65,0,0,1-1.26.57,1,1,0,0,1-.61-.19.56.56,0,0,1-.23-.46,1.46,1.46,0,0,1,.08-.42,2.14,2.14,0,0,1-1.75,1.1,1.35,1.35,0,0,1-1-.4,1.42,1.42,0,0,1-.4-1,3.15,3.15,0,0,1,.46-1.5,5.62,5.62,0,0,1,1.21-1.48,3,3,0,0,1,1.9-.92.91.91,0,0,1,1,.87l.3-.64c.06-.13.12-.19.16-.19l.15,0,.17,0a1.05,1.05,0,0,0,.4-.06l.09,0C497.51,27.29,497.53,27.32,497.53,27.38Zm-1.51,1a.85.85,0,0,0-.22-.6.77.77,0,0,0-.57-.22,1.52,1.52,0,0,0-1.16.7,8,8,0,0,0-1,1.69,4.1,4.1,0,0,0-.38,1.56c0,.54.22.81.67.81a1.29,1.29,0,0,0,.84-.42,3.44,3.44,0,0,0,.75-1.05l.93-2A1.32,1.32,0,0,0,496,28.37Z" transform="translate(-0.95 -2.38)"/><path class="cls-1" d="M502.22,27.86a.59.59,0,0,1-.15.41.48.48,0,0,1-.36.18c-.13,0-.2-.05-.2-.14l0-.12a.59.59,0,0,0,0-.13.26.26,0,0,0-.29-.29c-.23,0-.55.23-1,.68a7.1,7.1,0,0,0-1.18,1.88l-.86,1.9c-.08.18-.15.27-.2.27l-.37,0a1.42,1.42,0,0,0-.33,0h-.07c-.07,0-.11,0-.11,0s0,0,0-.05l.06-.12,2-4.62c0-.07-.06-.1-.16-.1h-.32c-.12,0-.18,0-.18-.08s.2-.08.62-.1a2.69,2.69,0,0,0,.84-.11l.11,0s.07,0,.07.07a2.17,2.17,0,0,1-.16.45l-.44,1.08c.73-1,1.38-1.54,1.94-1.54C502,27.33,502.22,27.51,502.22,27.86Z" transform="translate(-0.95 -2.38)"/><path class="cls-1" d="M505.74,24.07a.88.88,0,0,1-.06.16l-.12.29-2.69,6.57a3.45,3.45,0,0,0-.3.95c0,.21.14.32.43.32a1.19,1.19,0,0,0,.87-.51c.12-.14.19-.21.22-.21s.09,0,.09.08-.14.28-.4.51a1.7,1.7,0,0,1-1.17.4c-.66,0-1-.24-1-.73a3.41,3.41,0,0,1,.3-1l2.69-6.57c0-.05,0-.08,0-.09s-.08-.11-.23-.11c-.35,0-.53,0-.53-.08s0-.06.11-.06h.66a6.9,6.9,0,0,0,.76,0l.19,0C505.69,24,505.74,24,505.74,24.07Z" transform="translate(-0.95 -2.38)"/><path class="cls-1" d="M507.39,27.38a.42.42,0,0,1-.06.14c-.05.1-.14.29-.27.59l-1.38,3.15a2.8,2.8,0,0,0-.28.79c0,.21.11.32.34.32a1.1,1.1,0,0,0,.52-.16,1.14,1.14,0,0,0,.45-.38c.07-.1.13-.14.17-.14a.06.06,0,0,1,.07.07c0,.09-.11.24-.34.42a1.67,1.67,0,0,1-1.14.43,1.09,1.09,0,0,1-.69-.21.69.69,0,0,1-.27-.56,2.78,2.78,0,0,1,.3-1l1.25-2.78a.81.81,0,0,1,.15-.31.19.19,0,0,0,0-.09c0-.07-.17-.12-.53-.14q-.09,0-.09-.09c0-.07,0-.1.09-.1l.18,0a3.48,3.48,0,0,0,.54,0,2,2,0,0,0,.71-.09l.17,0C507.37,27.28,507.39,27.31,507.39,27.38Zm.83-2.25c0,.34-.15.51-.47.51a.53.53,0,0,1-.39-.15.49.49,0,0,1-.16-.38c0-.33.18-.49.55-.49S508.22,24.79,508.22,25.13Z" transform="translate(-0.95 -2.38)"/><path class="cls-1" d="M512.78,28.24a3,3,0,0,1-.31,1l-1,2.2a1.52,1.52,0,0,0-.17.52c0,.17.09.25.28.25a1.88,1.88,0,0,0,1-.55l.1,0s.07,0,.07.06-.13.23-.4.42a2.07,2.07,0,0,1-1.16.37,1.16,1.16,0,0,1-.62-.16.49.49,0,0,1-.24-.42,2.12,2.12,0,0,1,.22-.72l1-2.16a3.21,3.21,0,0,0,.35-1.06c0-.28-.14-.41-.42-.41a2,2,0,0,0-1.29.79,5.7,5.7,0,0,0-1,1.68l-1,2.28c0,.12-.09.18-.16.18h-.81c-.06,0-.08,0-.08-.06a.13.13,0,0,1,0-.07l.09-.18,1.83-4.4s.05-.07.06-.1-.11-.09-.3-.1-.36-.05-.36-.13,0-.09.13-.09l.27,0,.27,0a2.59,2.59,0,0,0,.86-.09l.1,0c.05,0,.08,0,.08.07a.08.08,0,0,1,0,.06l-.44,1.13.28-.31a2.46,2.46,0,0,1,1.71-.95,1.12,1.12,0,0,1,.78.27A.89.89,0,0,1,512.78,28.24Z" transform="translate(-0.95 -2.38)"/><path class="cls-1" d="M518.91,27.76q0,.39-.36.39a.29.29,0,0,1-.33-.33.17.17,0,0,1,0-.07.37.37,0,0,0,0-.12s0-.06-.07-.06-.19.09-.34.26a.71.71,0,0,0-.22.39.22.22,0,0,0,0,.14,2,2,0,0,1,.14.73,2,2,0,0,1-.57,1.45,2,2,0,0,1-1.52.59,2.13,2.13,0,0,1-1.25-.39c-.61.22-.92.45-.92.72s.12.27.36.31a3.4,3.4,0,0,0,.76.08h1a4.49,4.49,0,0,1,1,.08,1.15,1.15,0,0,1,.88,1.29,2.26,2.26,0,0,1-.68,1.66,2.7,2.7,0,0,1-2,.74,3.12,3.12,0,0,1-1.65-.43,1.47,1.47,0,0,1-.88-1.23,1,1,0,0,1,.44-.82,5.13,5.13,0,0,1,.9-.41q-.69-.28-.69-.84c0-.61.46-1,1.39-1.31a1.62,1.62,0,0,1-.38-1,2.17,2.17,0,0,1,.67-1.59,2.25,2.25,0,0,1,1.62-.66,1.49,1.49,0,0,1,1.22.65c.3-.46.61-.69.94-.69S518.91,27.43,518.91,27.76Zm-1.72,5.91a.84.84,0,0,0-.2-.54.8.8,0,0,0-.48-.29,5.86,5.86,0,0,0-1.26-.07H513.9a1.22,1.22,0,0,0-.75,1.16,1.34,1.34,0,0,0,.48,1.07,1.84,1.84,0,0,0,1.25.41,2.6,2.6,0,0,0,1.62-.53A1.49,1.49,0,0,0,517.19,33.67ZM517,28.34c0-.56-.23-.84-.7-.84s-.73.34-1,1a4,4,0,0,0-.39,1.63.68.68,0,0,0,.76.78c.38,0,.7-.31,1-.93A4.18,4.18,0,0,0,517,28.34Z" transform="translate(-0.95 -2.38)"/></g></g></svg>
