<svg xmlns="http://www.w3.org/2000/svg" viewBox="0 0 1895.47 681.03"><defs><style>.cls-1{fill:#fff;}</style></defs><title>logo_2@36x-100</title><g id="Layer_2" data-name="Layer 2"><g id="Layer_1-2" data-name="Layer 1"><path class="cls-1" d="M831.15,292.24c1.17-.73,3.66-1.36,4.43-2.87,3.47-6.83,7.66-13.62,9.34-20.95a116,116,0,0,0,3.18-29.73c-1-29.23-15.37-51.72-38.8-68-13.49-9.35-28.58-16.4-43-24.34-10.15-5.58-20.16-11.56-30.76-16.14-7.13-3.08-15.66-3-22.72-6.15-16.49-7.46-34.07-9.93-51.59-11.7-23.69-2.39-47.55-3.4-71.37-4.16-10.23-.33-20.53,1.47-30.8,2.24q-31.23,2.36-62.45,4.61c-4.94.36-9.95.18-14.84.88-16.67,2.4-33.3,5.16-50,7.63-8.84,1.31-17.84,1.82-26.58,3.6a216.12,216.12,0,0,0-29,7.76c-15.09,5.36-31.31,3.22-46.59,9.34-19.71,7.91-41,11.81-61.13,18.8-13.8,4.78-26.91,11.65-40.12,18-11.45,5.51-22.68,11.5-33.9,17.49-7.79,4.17-15,10.11-23.21,12.66-8.54,2.63-8.83,7.56-8.48,14.93l16.55-2.39.44,2.1-4.57,2c.47,1.17.62,2.8,1.51,3.58a140.61,140.61,0,0,0,12.78,10.1c.42.28,3.08-3.83,4.53-3.72,3.55.26,7,1.8,9.78,2.62,1.91-.79,3.66-1.59,5.47-2.24,1.23-.44,2.74-.36,3.78-1.05,10.54-7,20.9-14.23,31.56-21,3.6-2.29,8.32-2.87,11.79-5.28,6.86-4.76,13.86-8.71,22.32-9.53,1.08-.11,2.49-.17,3.13-.84,7.69-7.93,18.2-7.88,27.92-10.09,2.46-.55,5.2-.87,7.23-2.19,13.35-8.65,29.4-8,43.77-13.05,5-1.75,12.85,1.91,13.84-8,1.78,1.69,2.93,3.65,3.91,3.57,6.45-.53,13-.78,19.22-2.47a259.61,259.61,0,0,1,35.09-6.67c9.45-1.22,18.93-2.17,28.26-3.22L458.37,157c4.55-.9,9.06-3.18,12.8-2.28,12.35,3,23.74-2.2,35.48-3.52,5.19-.58,12.6,1.87,16.54-5.13.48-.85,4.15-.18,6.24.27,1.15.24,2.11,2.23,3.1,2.18,8.71-.42,17.46-.69,26.08-1.88,5.69-.79,11.89-5.42,16.58-4,5.93,1.76,11.19.92,16.77.9,10.21,0,20.44-.44,30.63,0,16.35.68,32.87.63,48.95,3.21,21.27,3.41,41.33,11.64,61.33,19.6,8,3.19,16.76,5.06,24.09,9.38,11.2,6.61,21.71,14.48,32,22.44,9.47,7.3,15.6,17.27,19.33,28.61,4.12,12.56,3.75,25.41,2.63,38.39-.69,8.07-3.28,15.15-8.74,20.92-7.76,8.21-15.86,16.11-23.92,24-5.74,5.64-11,12-17.63,16.43-13.27,8.84-27.38,16.41-41,24.75-30.63,18.76-63,34-96.14,47.7-26.94,11.12-53.65,22.79-80.54,34-11.3,4.72-22.8,9-34.54,13.55.64-14.06,1.23-27.19,1.81-40.06-.28.37-.77,1-2.76,3.54-.36-6.36-.83-10.87-.59-15.33,0-.54,3.95-.86,7.62-1.6-6.67-9.39,5.65-21-4.66-30.26-.24-.22.36-1.27.45-1.95.8-5.89,1.95-11.77,2.28-17.7.71-12.67,1-25.37,1.44-38.05.35-10,1.1-20,1-29.94-.12-12.3-.58-24.61-1.52-36.87-1.51-19.71-3.12-39.42-15.22-56.39-3.38-4.76-5.56-10.37-8.4-15.79-6.67,2.56-10.42,7.45-10.21,14,.53,16.54,2.44,33.05,2.59,49.58.25,25.38.59,50.71-1.88,76.13-2.3,23.58-6.06,46.55-14.16,68.79-4.71,12.94-9.46,25.85-14.07,38.82-.77,2.18-.89,4.57-1.36,6.86-.56,2.76-.34,6.15-1.9,8.14-7.33,9.37-4,21.94,7.26,25.19,5.68,1.64,11.6,2.46,19.66,4.11-11.65,4.35-21.24,8.16-31,11.5-18.17,6.21-36.49,12-54.64,18.24-16.63,5.76-33.16,11.83-49.64,18-8.73,3.27-17.39,6.78-25.85,10.66-9.69,4.44-19,9.6-28.71,14.1-6.39,3-13.23,5-19.58,8.08-10.33,5-20.42,10.38-30.6,15.64-14.31,7.39-28.55,14.91-42.92,22.19-15.57,7.89-31.06,16-46.93,23.23s-32.18,13.44-48.17,20.39c-10.68,4.64-21.21,9.63-31.65,14.78-6.84,3.38-13.48,7.2-20.08,11s-13.21,8.36-20,12.2c-8,4.54-16.44,8.36-24.22,13.25C.12,672.19,0,676.43,0,679.21c0,.64,3.87,2.16,5.59,1.75,9.66-2.32,19.2-5.17,28.81-7.71,5.29-1.39,10.68-2.37,15.94-3.82,4.22-1.15,8.29-2.86,12.49-4.09q8.22-2.42,16.54-4.42c4.28-1,8.83-1.24,12.92-2.74,15.79-5.8,31.63-11.56,47.1-18.14,12.4-5.27,24.23-11.85,36.45-17.57,5.22-2.45,10.8-4.15,16.17-6.3,1.43-.57,3.11-1.24,4-2.39,3.66-4.88,8.61-5.12,12.69-5.09,2.86-2.51,5-5.88,7.78-6.56,19.24-4.65,35-18.63,56-19.42,9.05-.35,17.9-6.42,26.83-9.91,17-6.65,34.06-13.26,51-20,5.29-2.1,10.4-4.66,15.65-6.89,4.72-2,9.7-5.72,14.23-5.28,6.66.66,11.43.38,15.19-5.71.72-1.16,4-.72,6-1.11,3.67-.7,7.36-1.36,11-2.3,1.18-.3,2.77-2.29,3.11-2,7.22,5.2,13.33-.75,19.87-1.82.59-.1,1.08-.82,1.6-1.25l-3.44-4c5.82,0,10.57,5.68,15.9.05l-.64-1.48c7.74-1.88,15.3-3.27,22.52-5.65,4.36-1.44,8-5.12,12.33-6.58,7.81-2.62,16.1-3.8,23.87-6.51,13.1-4.56,25-12,38.35-16.14a3.88,3.88,0,0,0,1.78-1.84c2.61-4.56,5.92-5.65,11.22-4.09,3.17.93,7.1-.71,10.72-1.2-.3-2.47-.5-4.12-.83-6.86,2.31,1.75,4,3.91,5,3.61,6.9-2.26,14-4.4,20.37-7.73,11.57-6,22.71-12.86,34.09-19.24a57.18,57.18,0,0,1,7.18-2.94c8.55-3.35,14.24-11.79,24.23-13,3-.36,5.58-4.42,8.54-6.51.84-.59,2.38-.13,3.58-.29,1.58-.22,3.37-.18,4.68-.93,7.35-4.18,14.68-8.4,21.81-12.94,5.11-3.24,9.9-7,14.82-10.53,2-1.88,4.4-3.1,6.54-4.72,5.64-4.26,10.68-9.64,16.85-12.85,9.09-4.71,17.39-9.79,23.27-18.47a32.48,32.48,0,0,1,8.17-7.76c2.95-2.11,6.45-3.44,9.69-5.13,9.23-4.83,13.2-14.54,20.12-21.49,1.6-1.61,2.78-6.49,7.2-3,.31.24,3.33-2.72,4.87-4.4.84-.9,1-3,1.82-3.26,7.08-2.2,9.55-8.56,12.8-14.06C827,302,828.84,297.12,831.15,292.24Z"/><path class="cls-1" d="M1854.22,451.47l-1.66.11c0-2-.64-5.33.1-5.67,6.6-3,3.71-7.83,2.62-12.13-2.41-9.43-4.89-18.85-7.69-28.18-5.38-17.92-3.23-37.28-11.23-54.81-3.45-7.55-8.58-13-16.79-12.86-16.65.34-33.14.09-48.81-6.89-3.13-1.39-7-1.12-10.48-1.69-14.25-2.31-28.57-4.24-42.7-7.13-8.37-1.72-20.29,1.88-25,8.62-1.87,2.66-4.61,4.72-7,7.06-5.85,10.82-14.34,22.35-6,36,.37.62-.39,1.83-.37,2.76.14,6.85,4.56,13.66,9.89,13.72s10.61-1.16,15.86-2.15c6.07-1.15,12.07-2.67,18.7-4.16.25,10.12,1,20.48-5.94,25.21-9.72,6.59-21.41,11.83-32.92,13.83-16.5,2.88-29.31-6.24-38.65-19.56a232.57,232.57,0,0,1-13-21.47c-2.77-5-6.65-10.46-6.8-15.81-.68-23.4,3.74-45.67,20.12-63.79,9.37-10.37,18.92-21.05,33.83-23.15,12.75-1.8,25.61-3.15,38.47-3.79,10-.5,20,.41,30,.63,2.8.06,5.75.4,8.36-.32,2.29-.64,5.36-2.15,6.11-4.05,5.91-15.05,8.8-29.82-4.77-43-4.72-4.6-11.31-7.35-16.21-4.66-8.82,4.83-17.27,10.44-26.42,14.5-10,4.45-20.61,7.76-31.1,11.1-7.19,2.29-15.11,2.74-21.9,5.8-23.8,10.75-40.82,28.17-49.73,53.15-6.43,18-9.91,36.5-9.23,55.62.29,8,.2,16.5,2.72,23.94,3,8.78,8.88,16.52,13,25,8.64,17.77,23.44,28.62,41.17,35.18,9.23,3.42,19.54,4.6,29.46,5.23,9,.58,18.43-2.41,27.3-1.21,12.66,1.71,22-5.83,32.38-9.68,9-3.33,16.37-11,24.38-16.9,8.63-6.34,11.43-14.8,8.45-25-1.65-5.63-4-11.07-5.47-16.74-1.24-4.78-4.34-11.37,1.84-13.77,6.5-2.53,14.13-2.17,20.61-3,1.79,8,2.81,14.61,4.77,20.92,6.07,19.57,10.09,39.37,10.71,60,.25,8.18,3.42,16.31,5.58,24.38,1.7,6.36,5.37,12.57,5.45,18.88.08,7.09,2.46,12.42,5.69,18.29,5.45,9.86,9.94,20.25,14.71,30.48,1.45,3.11,2,6.71,3.79,9.58,6.52,10.47,13.68,20.54,20,31.13,3.25,5.44,10.6,10.44,18.06,9.16,2.58-.44,5.79-3.79,6.56-6.44.94-3.24.3-7.38-.86-10.71-3.21-9.16-10.44-16.57-11.08-27-.43-7-2.27-13.9-3.43-20.86-.7-4.19-.83-8.73-7.18-7.93-.47.06-1.22-2-2.1-3.54h5.68c-2.7-9.86-5.3-19.36-7.91-28.85l-1.28.39c-.5,1.82-1,3.64-1.72,6.22-8-13.36-8.09-20.61-.88-22.18l-8.62-21.82C1855.23,448.54,1854.73,450,1854.22,451.47Z"/><path d="M831.15,292.24c-2.31,4.88-4.2,9.75-6.82,14.19-3.25,5.5-5.72,11.86-12.8,14.06-.85.26-1,2.36-1.82,3.26-1.54,1.68-4.56,4.64-4.87,4.4-4.42-3.46-5.6,1.42-7.2,3-6.92,6.95-10.89,16.66-20.12,21.49-3.24,1.69-6.74,3-9.69,5.13a32.48,32.48,0,0,0-8.17,7.76c-5.88,8.68-14.18,13.76-23.27,18.47-6.17,3.21-11.21,8.59-16.85,12.85-2.14,1.62-4.58,2.84-6.54,4.72-4.92,3.53-9.71,7.29-14.82,10.53-7.13,4.54-14.46,8.76-21.81,12.94-1.31.75-3.1.71-4.68.93-1.2.16-2.74-.3-3.58.29-3,2.09-5.49,6.15-8.54,6.51-10,1.2-15.68,9.64-24.23,13a57.18,57.18,0,0,0-7.18,2.94C616.78,455.11,605.64,462,594.07,468c-6.41,3.33-13.47,5.47-20.37,7.73-.92.3-2.64-1.86-5-3.61.33,2.74.53,4.39.83,6.86-3.62.49-7.55,2.13-10.72,1.2-5.3-1.56-8.61-.47-11.22,4.09a3.88,3.88,0,0,1-1.78,1.84c-13.34,4.1-25.25,11.58-38.35,16.14-7.77,2.71-16.06,3.89-23.87,6.51-4.35,1.46-8,5.14-12.33,6.58-7.22,2.38-14.78,3.77-22.52,5.65l.64,1.48c-5.33,5.63-10.08-.08-15.9-.05l3.44,4c-.52.43-1,1.15-1.6,1.25-6.54,1.07-12.65,7-19.87,1.82-.34-.25-1.93,1.74-3.11,2-3.62.94-7.31,1.6-11,2.3-2.07.39-5.31,0-6,1.11-3.76,6.09-8.53,6.37-15.19,5.71-4.53-.44-9.51,3.28-14.23,5.28-5.25,2.23-10.36,4.79-15.65,6.89-17,6.75-34,13.36-51,20-8.93,3.49-17.78,9.56-26.83,9.91-21,.79-36.74,14.77-56,19.42-2.79.68-4.92,4-7.78,6.56-4.08,0-9,.21-12.69,5.09-.87,1.15-2.55,1.82-4,2.39-5.37,2.15-10.95,3.85-16.17,6.3-12.22,5.72-24.05,12.3-36.45,17.57-15.47,6.58-31.31,12.34-47.1,18.14-4.09,1.5-8.64,1.71-12.92,2.74q-8.31,2-16.54,4.42c-4.2,1.23-8.27,2.94-12.49,4.09-5.26,1.45-10.65,2.43-15.94,3.82-9.61,2.54-19.15,5.39-28.81,7.71-1.72.41-5.59-1.11-5.59-1.75,0-2.78.12-7,1.85-8.1,7.78-4.89,16.21-8.71,24.22-13.25,6.79-3.84,13.26-8.26,20-12.2s13.24-7.67,20.08-11c10.44-5.15,21-10.14,31.65-14.78,16-7,32.33-13.14,48.17-20.39s31.36-15.34,46.93-23.23c14.37-7.28,28.61-14.8,42.92-22.19,10.18-5.26,20.27-10.68,30.6-15.64,6.35-3,13.19-5.1,19.58-8.08,9.66-4.5,19-9.66,28.71-14.1,8.46-3.88,17.12-7.39,25.85-10.66,16.48-6.18,33-12.25,49.64-18,18.15-6.28,36.47-12,54.64-18.24,9.75-3.34,19.34-7.15,31-11.5-8.06-1.65-14-2.47-19.66-4.11-11.28-3.25-14.59-15.82-7.26-25.19,1.56-2,1.34-5.38,1.9-8.14.47-2.29.59-4.68,1.36-6.86,4.61-13,9.36-25.88,14.07-38.82,8.1-22.24,11.86-45.21,14.16-68.79,2.47-25.42,2.13-50.75,1.88-76.13-.15-16.53-2.06-33-2.59-49.58-.21-6.59,3.54-11.48,10.21-14,2.84,5.42,5,11,8.4,15.79,12.1,17,13.71,36.68,15.22,56.39.94,12.26,1.4,24.57,1.52,36.87.1,10-.65,20-1,29.94-.46,12.68-.73,25.38-1.44,38.05-.33,5.93-1.48,11.81-2.28,17.7-.09.68-.69,1.73-.45,1.95,10.31,9.3-2,20.87,4.66,30.26-3.67.74-7.59,1.06-7.62,1.6-.24,4.46.23,9,.59,15.33,2-2.55,2.48-3.17,2.76-3.54-.58,12.87-1.17,26-1.81,40.06C520.19,442,531.69,437.7,543,433c26.89-11.24,53.6-22.91,80.54-34,33.16-13.68,65.51-28.94,96.14-47.7,13.61-8.34,27.72-15.91,41-24.75,6.6-4.4,11.89-10.79,17.63-16.43,8.06-7.92,16.16-15.82,23.92-24,5.46-5.77,8-12.85,8.74-20.92,1.12-13,1.49-25.83-2.63-38.39-3.73-11.34-9.86-21.31-19.33-28.61-10.32-8-20.83-15.83-32-22.44-7.33-4.32-16.07-6.19-24.09-9.38-20-8-40.06-16.19-61.33-19.6-16.08-2.58-32.6-2.53-48.95-3.21-10.19-.43-20.42,0-30.63,0-5.58,0-10.84.86-16.77-.9-4.69-1.39-10.89,3.24-16.58,4-8.62,1.19-17.37,1.46-26.08,1.88-1,.05-1.95-1.94-3.1-2.18-2.09-.45-5.76-1.12-6.24-.27-3.94,7-11.35,4.55-16.54,5.13-11.74,1.32-23.13,6.5-35.48,3.52-3.74-.9-8.25,1.38-12.8,2.28l2.67,1.39c-9.33,1.05-18.81,2-28.26,3.22a259.61,259.61,0,0,0-35.09,6.67c-6.18,1.69-12.77,1.94-19.22,2.47-1,.08-2.13-1.88-3.91-3.57-1,9.93-8.85,6.27-13.84,8-14.37,5-30.42,4.4-43.77,13.05-2,1.32-4.77,1.64-7.23,2.19-9.72,2.21-20.23,2.16-27.92,10.09-.64.67-2.05.73-3.13.84-8.46.82-15.46,4.77-22.32,9.53-3.47,2.41-8.19,3-11.79,5.28-10.66,6.79-21,14.05-31.56,21-1,.69-2.55.61-3.78,1.05-1.81.65-3.56,1.45-5.47,2.24-2.78-.82-6.23-2.36-9.78-2.62-1.45-.11-4.11,4-4.53,3.72a140.61,140.61,0,0,1-12.78-10.1c-.89-.78-1-2.41-1.51-3.58l4.57-2-.44-2.1-16.55,2.39c-.35-7.37-.06-12.3,8.48-14.93,8.25-2.55,15.42-8.49,23.21-12.66,11.22-6,22.45-12,33.9-17.49,13.21-6.36,26.32-13.23,40.12-18,20.13-7,41.42-10.89,61.13-18.8,15.28-6.12,31.5-4,46.59-9.34a216.12,216.12,0,0,1,29-7.76c8.74-1.78,17.74-2.29,26.58-3.6,16.67-2.47,33.3-5.23,50-7.63,4.89-.7,9.9-.52,14.84-.88q31.23-2.25,62.45-4.61c10.27-.77,20.57-2.57,30.8-2.24,23.82.76,47.68,1.77,71.37,4.16,17.52,1.77,35.1,4.24,51.59,11.7,7.06,3.2,15.59,3.07,22.72,6.15,10.6,4.58,20.61,10.56,30.76,16.14,14.44,7.94,29.53,15,43,24.34,23.43,16.25,37.82,38.74,38.8,68a116,116,0,0,1-3.18,29.73c-1.68,7.33-5.87,14.12-9.34,20.95C834.81,290.88,832.32,291.51,831.15,292.24Z"/><path d="M1854.22,451.47c.51-1.47,1-2.93,1.42-4.09l8.62,21.82c-7.21,1.57-7.12,8.82.88,22.18.71-2.58,1.22-4.4,1.72-6.22l1.28-.39c2.61,9.49,5.21,19,7.91,28.85h-5.68c.88,1.54,1.63,3.6,2.1,3.54,6.35-.8,6.48,3.74,7.18,7.93,1.16,7,3,13.86,3.43,20.86.64,10.44,7.87,17.85,11.08,27,1.16,3.33,1.8,7.47.86,10.71-.77,2.65-4,6-6.56,6.44-7.46,1.28-14.81-3.72-18.06-9.16-6.31-10.59-13.47-20.66-20-31.13-1.79-2.87-2.34-6.47-3.79-9.58-4.77-10.23-9.26-20.62-14.71-30.48-3.23-5.87-5.61-11.2-5.69-18.29-.08-6.31-3.75-12.52-5.45-18.88-2.16-8.07-5.33-16.2-5.58-24.38-.62-20.63-4.64-40.43-10.71-60-2-6.31-3-12.92-4.77-20.92-6.48.82-14.11.46-20.61,3-6.18,2.4-3.08,9-1.84,13.77,1.46,5.67,3.82,11.11,5.47,16.74,3,10.23.18,18.69-8.45,25-8,5.87-15.4,13.57-24.38,16.9-10.37,3.85-19.72,11.39-32.38,9.68-8.87-1.2-18.25,1.79-27.3,1.21-9.92-.63-20.23-1.81-29.46-5.23-17.73-6.56-32.53-17.41-41.17-35.18-4.11-8.44-10-16.18-13-25-2.52-7.44-2.43-15.9-2.72-23.94-.68-19.12,2.8-37.6,9.23-55.62,8.91-25,25.93-42.4,49.73-53.15,6.79-3.06,14.71-3.51,21.9-5.8,10.49-3.34,21.06-6.65,31.1-11.1,9.15-4.06,17.6-9.67,26.42-14.5,4.9-2.69,11.49.06,16.21,4.66,13.57,13.2,10.68,28,4.77,43-.75,1.9-3.82,3.41-6.11,4.05-2.61.72-5.56.38-8.36.32-10-.22-20.06-1.13-30-.63-12.86.64-25.72,2-38.47,3.79-14.91,2.1-24.46,12.78-33.83,23.15-16.38,18.12-20.8,40.39-20.12,63.79.15,5.35,4,10.76,6.8,15.81a232.57,232.57,0,0,0,13,21.47c9.34,13.32,22.15,22.44,38.65,19.56,11.51-2,23.2-7.24,32.92-13.83,7-4.73,6.19-15.09,5.94-25.21-6.63,1.49-12.63,3-18.7,4.16-5.25,1-10.58,2.21-15.86,2.15s-9.75-6.87-9.89-13.72c0-.93.74-2.14.37-2.76-8.29-13.66.2-25.19,6-36,2.35-2.34,5.09-4.4,7-7.06,4.73-6.74,16.65-10.34,25-8.62,14.13,2.89,28.45,4.82,42.7,7.13,3.5.57,7.35.3,10.48,1.69,15.67,7,32.16,7.23,48.81,6.89,8.21-.17,13.34,5.31,16.79,12.86,8,17.53,5.85,36.89,11.23,54.81,2.8,9.33,5.28,18.75,7.69,28.18,1.09,4.3,4,9.14-2.62,12.13-.74.34-.1,3.71-.1,5.67Z"/><path d="M993.64,454.92c-1.34-11.35-2.79-22.68-4.53-34-1.82-11.8-3.81-23.57-6.1-35.28-1.14-5.89-3.85-11.53-4.55-17.44-1.26-10.71-1.26-21.57-2.3-32.32-1.08-11.09-3-22.09-4.15-33.17-1.13-10.76-3.79-21.28-2.36-32.43,1-7.57-1.41-15.51-1.17-23.25.39-12.93,2.44-25.82,2.42-38.73,0-22.57,2.22-45.31-3.29-67.63-.12-.48.37-1.22.76-1.69,3.64-4.35,3.9-8.41-1.1-11.91-3.75-2.61-7.32-6.16-11.49-7.2-2.3-.58-6.88,2.5-8.33,5.1a84,84,0,0,0-7.05,18c-2,7-2.31,14.39-4.57,21.21-3.86,11.65-7.23,23.83-13.4,34.27-11.67,19.76-25.16,38.44-37.91,57.56a17.38,17.38,0,0,1-1.4,1.58c-8.8,10.19-17.42,20.54-26.46,30.52-5.87,6.47-12.29,12.46-18.58,18.55-7.6,7.37-16.39,13.8-22.74,22.11-11.82,15.47-23.3,30.9-41.09,40.17-3.54,1.84-7.35,3.79-10,6.67-13.94,15.45-31.37,25.72-49.37,35.61-8,4.39-17.43,8.51-21.09,18.19-1.94,5.12-4.41,8.67-9.62,11.34-4.6,2.36-8.64,6.79-11.57,11.2-5.16,7.74.74,20.33,9.65,22.38,1.3.3,2.29,2,3.52,3.06l2.29-3.36c.74,1.5,1,3.2,1.95,3.75,7.33,4.35,18.84-.92,21-9.21a7.48,7.48,0,0,1,3.47-4.06c5.24-2.86,11.47-4.42,15.89-8.17,13.38-11.37,26.14-23.47,39-35.42,10.77-10,21.3-20.27,32.08-30.26,14.54-13.45,30.08-24.7,51-26.29A199.61,199.61,0,0,0,884,359.12c18.26-4.41,36.74-4.33,56.1-5.18,1.51,8.11,4.49,15.64,3.91,22.89-1.13,14.22,4.17,28,.37,42.62-3.07,11.83-1.28,24.86-2.18,37.32-.4,5.66,1.58,7.9,7,9.21,8.58,2.09,16.86,5.46,25.44,7.54,2.2.53,5.49-1.26,7.52-2.92,1.76-1.44,2.44-4.19,3.84-6.81l-4.63-1.2c2.47-4.49,5-7.14,10.65-2.67C992.59,458.22,993.82,456.48,993.64,454.92Zm-52-146.48c0,.24,0,.47,0,.71-.42,15.19-.48,14.75-15.35,17-17.48,2.6-34.83,6.05-52.47,9.17,22.28-25.95,44.12-51.4,66.64-77.62.84,5.28,2.23,10,2.23,14.68C942.68,284.38,942.05,296.41,941.68,308.44Z"/><path d="M444.14,639.84c-.27.61-.57,1.28-.91,2a4.71,4.71,0,0,0-.5,1.72c0,.74.57,1.11,1.72,1.11v1.21H432v-1.21a4.71,4.71,0,0,0,1.06-.1,1.56,1.56,0,0,0,.86-.61,9.29,9.29,0,0,0,.91-1.46c.34-.64.77-1.5,1.31-2.58l18.28-40.8,1.22-2.58a3.58,3.58,0,0,0,.4-1.36c0-.81-.61-1.21-1.82-1.21v-1.21H469V594c-1.08,0-1.62.4-1.62,1.21a3.61,3.61,0,0,0,.51,1.57c.33.64.77,1.53,1.31,2.67l19.39,40.2,1.42,2.83a6.38,6.38,0,0,0,1,1.51,1.77,1.77,0,0,0,1,.61,7.29,7.29,0,0,0,1.41.1v1.21h-14v-1.21a2.64,2.64,0,0,0,1.62-.35,1.37,1.37,0,0,0,.4-1.06,2.68,2.68,0,0,0-.25-1.06c-.17-.37-.52-1.17-1.06-2.38l-3.84-8.08H447.58Zm28.58-14.74-11.41-23.84-10.5,23.84Z"/><path d="M527.37,641.86a3.86,3.86,0,0,0,.45,2.27c.3.38,1,.56,2.07.56v1.21H518.58v-1.21c1.07,0,1.77-.18,2.07-.56a3.86,3.86,0,0,0,.45-2.27V605.5a3.91,3.91,0,0,0-.45-2.27,2.72,2.72,0,0,0-2.07-.56v-1.21h30.9q6.67,0,9.7,3.33t3,9.1q0,5.85-3.18,8.83t-9,3.18l11.11,17a5.41,5.41,0,0,0,1.21,1.47,2.28,2.28,0,0,0,1.31.35v1.21h-10.9v-1.21a3.53,3.53,0,0,0,1.36-.15c.17-.1.25-.32.25-.66a2,2,0,0,0-.3-1c-.2-.33-.47-.81-.81-1.41l-9.9-15.56h-16Zm21.51-21.61q3.63,0,5.15-1.62a7,7,0,0,0,1.51-5q0-3.63-1.56-5.3c-1.05-1.11-3.08-1.67-6.11-1.67h-20.5v13.54Z"/><path d="M630.28,609.54a2,2,0,0,0-2.52-2.42H612.1v34.74a3.85,3.85,0,0,0,.46,2.27c.3.38,1,.56,2.07.56v1.21H602.91v-1.21c1.08,0,1.77-.18,2.07-.56a3.77,3.77,0,0,0,.46-2.27V607.12H589.78a2.74,2.74,0,0,0-2,.55,2.81,2.81,0,0,0-.5,1.87h-1.21V599h1.21a2.81,2.81,0,0,0,.5,1.87,2.74,2.74,0,0,0,2,.55h38a2,2,0,0,0,2.52-2.42h1.22v10.5Z"/><path d="M749.56,621a3.29,3.29,0,0,0-.35-1.81,1,1,0,0,0-.76-.51,3.91,3.91,0,0,0-2.27,1.21,22.61,22.61,0,0,0-2.83,3.14,36.12,36.12,0,0,0-2.77,4.24,29.13,29.13,0,0,0-2.12,4.54,12.78,12.78,0,0,0,2.27,3.23,18.42,18.42,0,0,0,2.82,2.43,14.78,14.78,0,0,0,2.68,1.51,5.33,5.33,0,0,0,1.82.51,1.27,1.27,0,0,0,1.26-.76,2.49,2.49,0,0,0,.25-1.46h1.22v8.68h-1.52c-1.55,0-2.93,0-4.14-.1a9.58,9.58,0,0,1-3.48-.86,12.93,12.93,0,0,1-3.34-2.27,22.85,22.85,0,0,1-3.48-4.24,15.85,15.85,0,0,1-8.38,6.11,34.67,34.67,0,0,1-10.51,1.66,45.89,45.89,0,0,1-8-.65,16.23,16.23,0,0,1-6.46-2.53,12.91,12.91,0,0,1-4.29-4.95,16.84,16.84,0,0,1-1.57-7.72,13.45,13.45,0,0,1,1-5.1,16.15,16.15,0,0,1,2.63-4.35,21.5,21.5,0,0,1,3.83-3.53,24.84,24.84,0,0,1,4.5-2.58,9.77,9.77,0,0,1-3.64-3.94,11.28,11.28,0,0,1-1.31-5.25,11.8,11.8,0,0,1,5.15-10.3,16,16,0,0,1,5.35-2.37,25.1,25.1,0,0,1,6.16-.76,21.77,21.77,0,0,1,6.87,1,16.77,16.77,0,0,1,5.2,2.73,11.92,11.92,0,0,1,3.34,4,11,11,0,0,1,1.16,4.95,10.87,10.87,0,0,1-2.07,7.07,14.18,14.18,0,0,1-6,4,10.9,10.9,0,0,1,4.39,3,15.54,15.54,0,0,1,2.78,4.54,31.11,31.11,0,0,1,6.36-8.94,24.3,24.3,0,0,1,9.5-5.81V621Zm-45.65,8.74a10,10,0,0,0,3.34,8q3.33,2.84,9.09,2.84a16.6,16.6,0,0,0,6.11-1,14.4,14.4,0,0,0,4.29-2.53,10.92,10.92,0,0,0,2.57-3.25,7.35,7.35,0,0,0,.86-3.25,7.55,7.55,0,0,0-1.16-3.8,15.22,15.22,0,0,0-3-3.66,16,16,0,0,0-4.34-2.74,12.77,12.77,0,0,0-5.1-1.06,15.94,15.94,0,0,0-4.75.71,12,12,0,0,0-4,2.08,10.78,10.78,0,0,0-2.78,3.3A9,9,0,0,0,703.91,629.69Zm23.64-24.39a7.54,7.54,0,0,0-2.12-5.1q-2.13-2.37-6.87-2.37c-3.17,0-5.41.8-6.72,2.42a8.19,8.19,0,0,0-2,5.25,6.86,6.86,0,0,0,2.12,4.9q2.13,2.18,6.67,2.17a10,10,0,0,0,6.56-1.92A6.55,6.55,0,0,0,727.55,605.3Z"/><path d="M825,596.41a2.88,2.88,0,0,0-.5-1.77,2.34,2.34,0,0,0-1.92-.65v-1.21H853.9a30.37,30.37,0,0,1,11.26,2,24.06,24.06,0,0,1,8.48,5.5,24.64,24.64,0,0,1,5.4,8.43A29,29,0,0,1,881,619.34,34,34,0,0,1,879.35,630a23.45,23.45,0,0,1-4.8,8.44,21.65,21.65,0,0,1-7.88,5.5,27.75,27.75,0,0,1-10.85,2H822.59v-1.21a2.31,2.31,0,0,0,1.92-.66,2.83,2.83,0,0,0,.5-1.76Zm29.9,42.83q8.88,0,13.33-5t4.44-14.85q0-9.8-5.1-14.85t-14.49-5h-19.6v39.8Z"/><path d="M911.57,605.5a3.89,3.89,0,0,0-.46-2.27,2.37,2.37,0,0,0-1.87-.56v-1.21H950a2.74,2.74,0,0,0,2-.55,2.81,2.81,0,0,0,.5-1.87h1.21v10.5h-1.21a2.81,2.81,0,0,0-.5-1.87,2.74,2.74,0,0,0-2-.55H918.23v13.13h22.32a2,2,0,0,0,2.53-2.43h1.21v10.51h-1.21a2,2,0,0,0-2.53-2.43H918.23v14.35h32.83a2.74,2.74,0,0,0,2-.56,2.79,2.79,0,0,0,.5-1.87h1.21V648h-1.21a2.17,2.17,0,0,0-.5-1.71,3.47,3.47,0,0,0-2-.41H909.24v-1.21a2.33,2.33,0,0,0,1.87-.56,3.85,3.85,0,0,0,.46-2.27Z"/><path d="M984.79,633.48a9.42,9.42,0,0,0-.2,1.31c0,.54.52,1.16,1.56,1.87a18.66,18.66,0,0,0,4.14,2,42.21,42.21,0,0,0,6,1.57,37.48,37.48,0,0,0,7,.65q7,0,10.86-1.87t3.89-5.3a4.63,4.63,0,0,0-2.68-4.54,22,22,0,0,0-6.71-1.87q-4.05-.56-8.74-.81a46.79,46.79,0,0,1-8.74-1.26,16,16,0,0,1-6.71-3.34c-1.79-1.54-2.68-3.87-2.68-7A12.13,12.13,0,0,1,987.52,604a18.79,18.79,0,0,1,6.11-2.43,34.2,34.2,0,0,1,7.22-.75,39,39,0,0,1,7,.55,41.05,41.05,0,0,1,5.2,1.26c1.45.48,2.61.9,3.48,1.27a5.73,5.73,0,0,0,1.92.55,1.21,1.21,0,0,0,.81-.25,4.84,4.84,0,0,0,.81-1.16l1.31.5-3.73,9.9-1.22-.5a1.66,1.66,0,0,0,.15-.46,3.55,3.55,0,0,0,.06-.76c0-.53-.46-1.11-1.37-1.71a16.71,16.71,0,0,0-3.63-1.72,31.4,31.4,0,0,0-5.15-1.31,33.83,33.83,0,0,0-5.91-.51,25,25,0,0,0-6.37.66,10.65,10.65,0,0,0-3.78,1.72,5.41,5.41,0,0,0-1.87,2.42,7.86,7.86,0,0,0-.51,2.78,4.31,4.31,0,0,0,2.68,4.19,22.41,22.41,0,0,0,6.72,1.77c2.69.33,5.6.59,8.73.75a46,46,0,0,1,8.74,1.27,16.27,16.27,0,0,1,6.72,3.28c1.78,1.51,2.67,3.79,2.67,6.82,0,4.84-1.73,8.4-5.2,10.65s-9.07,3.38-16.82,3.38a42.65,42.65,0,0,1-7.17-.55,47.65,47.65,0,0,1-5.7-1.31c-1.65-.51-3-1-4.2-1.42a7.91,7.91,0,0,0-2.52-.65,1.44,1.44,0,0,0-1.21.5,4.18,4.18,0,0,0-.61,1l-1.21-.4,3.94-10.2Z"/><path d="M1054.18,644.69c1.07,0,1.77-.18,2.07-.56a3.86,3.86,0,0,0,.45-2.27V605.5a3.91,3.91,0,0,0-.45-2.27,2.72,2.72,0,0,0-2.07-.56v-1.21h11.31v1.21c-1.08,0-1.77.19-2.07.56a3.89,3.89,0,0,0-.46,2.27v36.36a3.85,3.85,0,0,0,.46,2.27c.3.38,1,.56,2.07.56v1.21h-11.31Z"/><path d="M1137.91,614.69a5.93,5.93,0,0,0,.2-1.11c0-.33-.39-.89-1.16-1.66a14.61,14.61,0,0,0-3.44-2.38,27.19,27.19,0,0,0-5.6-2.12,29.21,29.21,0,0,0-7.68-.91,21.1,21.1,0,0,0-7.57,1.31,16.86,16.86,0,0,0-9.75,9.45,18.61,18.61,0,0,0-1.36,7.22,16,16,0,0,0,1.26,6.31,14.47,14.47,0,0,0,3.73,5.2,18.07,18.07,0,0,0,6.27,3.54,27.09,27.09,0,0,0,8.83,1.31,27.45,27.45,0,0,0,3.49-.25c1.31-.17,2.66-.4,4-.71a26,26,0,0,0,3.89-1.16,10.69,10.69,0,0,0,3-1.72V631h-9.19a2,2,0,0,0-2.53,2.43h-1.21v-9.7h1.21a1.48,1.48,0,0,0,.51,1.16,3.1,3.1,0,0,0,2,.46h17.27v1.21a2.2,2.2,0,0,0-1.11.55,2,2,0,0,0-.31,1.27v6.77a1.59,1.59,0,0,0,1.42,1.71v1a24.58,24.58,0,0,1-5.25,4,33,33,0,0,1-6,2.68,31.05,31.05,0,0,1-6.22,1.36,52,52,0,0,1-6,.35,37.21,37.21,0,0,1-10.31-1.36,21.7,21.7,0,0,1-8.18-4.29,20.62,20.62,0,0,1-5.4-7.22,23.44,23.44,0,0,1-2-9.85,20.43,20.43,0,0,1,1.72-8.08,22.69,22.69,0,0,1,5-7.27,24.54,24.54,0,0,1,8-5.25,27.91,27.91,0,0,1,11-2,32.45,32.45,0,0,1,7.73.85,45.44,45.44,0,0,1,6.06,1.92,41,41,0,0,1,4.19,2,6.55,6.55,0,0,0,2,.91,1,1,0,0,0,.81-.25,4.55,4.55,0,0,1,.4-.45l1.22.5-3.84,8.89Z"/><path d="M1173.15,644.69a3.09,3.09,0,0,0,2.18-.56,3.29,3.29,0,0,0,.55-2.27V605.5a3.32,3.32,0,0,0-.55-2.27,3.14,3.14,0,0,0-2.18-.56v-1.21h14.75v1.21a6,6,0,0,0-2.17.26c-.37.17-.56.38-.56.65a5.5,5.5,0,0,0,1.11,1.72l27.38,31.41V605.5a3.31,3.31,0,0,0-.56-2.27,3.13,3.13,0,0,0-2.17-.56v-1.21H1222v1.21a3.11,3.11,0,0,0-2.17.56,3.31,3.31,0,0,0-.56,2.27v36.36a3.28,3.28,0,0,0,.56,2.27,3.06,3.06,0,0,0,2.17.56v1.21H1208.5v-1.21a8.16,8.16,0,0,0,2.43-.2.73.73,0,0,0,.4-.71,1.19,1.19,0,0,0-.35-.86,12,12,0,0,1-.86-1l-28.58-32.62v32.52a3.29,3.29,0,0,0,.55,2.27,3.08,3.08,0,0,0,2.17.56v1.21h-11.11Z"/><path d="M1596.66,433.11c-1.2-2.54-2.92-5.13-3.11-7.79-1.3-17.41-2.26-34.86-3.3-52.29-.52-8.85-1.32-17.69-1.38-26.54,0-6.34,1.46-12.7,1.35-19-.16-9.93-1.26-19.85-1.65-29.78-.32-8.08,1.32-16.54-.53-24.2-5.34-22.14-5.14-44.46-5.15-66.94,0-12.88-2.19-25.75-2.83-38.65-.81-16.34-1.64-32.71-1.37-49,.34-20.21,2.58-40.41,2.54-60.6,0-15.68,3.34-31.53-2.12-47.15C1576,2.18,1570.3-1.53,1559.18.58c-9.74,1.84-13.48,7.58-12.29,17.27,1.51,12.21,3.38,24.5,3.29,36.75-.12,15.81-3.11,31.63-2.91,47.43.36,28,2.29,56,3.3,84,.2,5.66-1.35,11.39-1.06,17,1,20.1,3.22,40.17,3.68,60.28.43,18.83-.75,37.7-1.27,56.56-.35,12.71-.85,25.42-1.14,38.14-.16,6.65,0,13.31,0,21.71-3.16-2.23-5.08-3.11-6.33-4.56-5.32-6.18-11.13-12.1-15.5-18.93-7.18-11.2-13.79-22.82-19.87-34.66-5.34-10.41-9.62-21.36-14.35-32.08-3.12-7.06-6-14.25-9.42-21.14-1.61-3.2-4.41-5.81-7.81-10.12V242.72c-3-.28-5,.1-5.77-.68s-1.45-3.9-1.06-4.13c6.6-3.9.81-8.06.18-11.88-.43-2.66-2.82-4.95-3.49-7.61-1.55-6.17-3.56-11.66-10.38-13.89-1-.34-1.78-2-2.41-3.15-1.88-3.51-2.78-8.63-5.67-10.27-4-2.25-9.53-2.83-14.24-2.36-5,.49-6.46,4.89-5.81,9.76,1.46,11,2.86,21.94,4.3,32.91.4,3,1.91,6.39,1.08,9-1.8,5.68,3.14,8,4.39,11.95,1.35,4.21-.08,9.26,0,13.95.05,2.21,1.07,4.4,1.21,6.63.7,10.71,1.74,21.43,1.72,32.15,0,13.48,7.21,26.62,1.82,40.34-.37,1,.29,2.31.42,3.48.29,2.7.67,5.4.77,8.11.13,3.22-4.33,6.69.58,9.63a40.65,40.65,0,0,1-2.53,3.41c-1,1.13-2.83,1.85-3.35,3.14-1.91,4.73-4.63,4.24-7.46,1.27a124.44,124.44,0,0,1-8.61-10.27c-9.54-12.44-11.2-13.2-25.57-7.82-4.93,1.84-9.16,5.48-14,7.66-8,3.58-16.25,6.47-24.27,10-9.3,4-10.67,3.38-12.14-6.84-.13-.91-.19-1.82-.24-2.36l-4.61-1c.57-1.29,1.15-2.58,1.7-3.88s1.91-3,1.68-4.23c-1.62-9.15-3.35-18.29-5.49-27.34-.75-3.2-2.75-6.12-4.24-9.3,0-4.67.53-9.93-.11-15-1.2-9.56-3.07-19-4.67-28.56-.58-3.49.64-8.07-4.73-8.87s-9.67.33-12.57,5.63c-4.19,7.67-6.3,14.7-4.26,24.22,2.34,10.92.22,22.74.58,34.16.21,6.58,2,13.12,2.16,19.7.22,7-.56,14-.91,21-.26,5.11,0,10.32-1,15.27-.5,2.48-2.9,5.75-5.16,6.51-20.64,7-41.4,13.63-62.21,20.11-4.82,1.5-10,2-14.6,2.95,3.16-28.38,5.42-56.57,9.63-84.46a501.75,501.75,0,0,0,5.71-85.12c-.55-28.18-2.11-56.35-3.21-84.19l-3.78,1.93-1.74-1.53,5.19-7.67c-3.57-28.12-2.27-57.53-11.77-85.61L1225,75.3l-1.91-.58c.87-3.35,2.22-6.65,2.49-10,.28-3.63.77-8.12-1-10.86-7-10.89-16.64-8.93-28.52.43-2.14,1.69-3.19,6-3,9.06s3.42,6,3.84,9.11c1.35,10.2,2,20.49,3,30.74q2.46,26.19,5,52.39c.82,8.29,1.2,16.69,2.89,24.8a302.81,302.81,0,0,1,6.38,70.78c-.12,4.5-.43,9-.64,13.49-.77,16.55-.35,33.26-2.56,49.61-4.23,31.34-10,62.48-15.14,93.68-.24,1.46-1.39,2.76-2.12,4.14-1.3-.82-3-1.34-3.82-2.51-4-5.92-7.21-12.37-11.58-18-7.18-9.19-15-17.89-22.61-26.74-2.72-3.17-5.73-6.09-8.4-9.3-2.22-2.67-3.75-6-6.24-8.36-14.06-13.25-31.71-22.38-42.82-39.17-5-7.52-5.49-8.4,3.5-11.89,4.54-1.76,8.45-5.17,14.58-9.06,15.13,5.52,24.13-9.23,35.18-18,12-9.47,14.43-23,11.25-37.71.27,1,.54,2.09.74,2.9,3.14-13.73-2.88-25-10.37-36l-5.19,1.6c-.39-2.79.16-6.35-1.19-7.33-7.32-5.37-13.78-12.45-24-12.58a172.29,172.29,0,0,1-22-1.63c-11.48-1.65-21.93,1.83-32.7,4.91-15.79,4.52-28.09,14.59-40.78,24.07-7,5.24-9.42,14.55-4,22.54,6.55,9.67,8.07,20.29,8.06,31.23,0,19.74-1,39.48-1.08,59.22,0,14,.57,28,1.42,41.93,1,17.22-6,32.48-11,48.2-3.9,12.28-.43,17.95,12.41,18.82,3.24.22,7,.42,9.52,2.15,5,3.54,8.77,1.77,12.8-1.24,13-9.69,12.24-23.74,9.73-36.86-3.37-17.63-2.54-35-.68-52.46.26-2.47,2.54-6,4.67-6.7,2.59-.9,7.25-.51,8.88,1.28,8.5,9.33,16.37,19.23,24.31,29.07,1,1.2.47,3.76,1.53,4.69,2.94,2.6,6.88,4.2,9.47,7,10.14,11.21,20,22.69,29.79,34.18q8.46,9.9,16.53,20.13c4.79,6,9,12.54,14.11,18.34,7.43,8.52,15.69,16.32,23,24.92q26.65,31.26,52.72,63c6.74,8.17,13,16.74,19.21,25.34,4.45,6.16,8.45,12.66,12.61,19,5.76,8.84,11.66,17.61,17.18,26.6,3.68,6,6,13,10.34,18.39,10.26,12.83,21.23,25.1,32.24,37.3,1.46,1.62,4.76,1.85,7.28,2.17,8,1,11.44-5.53,16.07-10,5.78-5.61,6.13-9.68.86-15.88-2.57-3-2-4.6.21-7.77,2.44-3.5,4.77-8.22-.51-12.37-8.66-6.8-17.53-13.47-25.42-21.12-12.54-12.16-24.26-25.17-36.48-37.66a394.62,394.62,0,0,1-40.68-49.73c-12.55-17.9-26.3-35-39.25-52.59-.93-1.27-.22-5.73.81-6.17,9.21-3.93,18.53-7.68,28.08-10.69,7.57-2.39,15.57-3.36,23.21-5.59,2.6-.76,4.65-3.42,6.66-5,3.43-.39,6.84-.75,10.25-1.18,5-.64,10-1.42,15.06-1.88.48,0,1.76,1.92,1.6,2.74-1.46,7.54-3.28,15-4.7,22.56-.69,3.65-2.43,8.76-.76,10.88a93.75,93.75,0,0,0,17,16.32c6.92,5.22,15,8.84,22,14.07,7.11,5.39,14.71,3.91,18-4.4a5.45,5.45,0,0,1,2.79-2.66c8.18-3.47,9.16-5.74,8.07-14.7-1-8-3.73-15.57-4.22-23.85-.71-11.87-4.22-23.58-6.39-34.6l10.14-7.75c2.31,0,4.64.61,6.45-.1,7-2.76,13.77-6.23,20.86-8.79a11.59,11.59,0,0,1,8.26.43c6,3,11.22,2.36,16.57-1.37,4-2.76,8.2-5.08,12.31-7.59l2,1.56c0,6.81.36,13.65-.07,20.44-1,16.31-2.68,32.59-3.64,48.9-.92,15.67-1.32,31.37-1.9,47.06-.4,10.67-1,21.34-1,32a511.77,511.77,0,0,1-3.89,64,180.5,180.5,0,0,1-13.2,48.4c-4.87,11.3-1,20.26,11.83,19.39,4.53-.31,9.21,1.06,13.69.53,4.66-.57,9.08-3,13.74-3.74,6.43-1.06,11.71-5,11.59-10.36-.12-5.69-.86-10.91,4.9-15,1.51-1.06.43-6.12.09-9.3-.25-2.3-1.44-4.49-1.84-6.79-3.26-19.07-3.27-38.1-1.73-57.46,1.87-23.44,1.29-47.07,1.85-70.62q1.23-52.24,2.59-104.5.84-33.9,1.66-67.8c0-2.13.21-4.25.38-7.49,3.92,6.29,7.67,10.87,9.86,16.11,5.34,12.77,9.94,25.84,14.88,38.78a93.21,93.21,0,0,0,17,28.21c5.4,6.18,12.15,11.15,17.87,17.08,7.54,7.82,14.6,16.09,22,24.08,8.19,8.87,16.65,17.19,30.3,10.61a4.93,4.93,0,0,1,1.41-.14C1596.82,451.75,1601.51,443.38,1596.66,433.11ZM1067.09,254.4c.53-9.19.7-16.56,1.45-23.87,1.11-10.81,8.4-18.72,18.9-21,7-1.53,13.89-3.23,20.91-4.38,13.53-2.23,27.18,5.71,32.55,17.95,2.31,5.29-3.16,24.72-9.17,27.75-13.47,6.79-26.66,14.38-40.69,19.73C1077.89,275.55,1067,266.51,1067.09,254.4Z"/></g></g></svg>
